<svg width="5" height="20" viewBox="0 0 5 20" fill="none" xmlns="http://www.w3.org/2000/svg">
<path d="M2.5 4C3.32843 4 4 3.32843 4 2.5C4 1.67157 3.32843 1 2.5 1C1.67158 1 1 1.67157 1 2.5C1 3.32843 1.67158 4 2.5 4Z" stroke="#BBBBBB" stroke-width="1.5" stroke-miterlimit="10" stroke-linecap="round" stroke-linejoin="round"/>
<path d="M2.5 19C3.32843 19 4 18.3284 4 17.5C4 16.6716 3.32843 16 2.5 16C1.67158 16 1 16.6716 1 17.5C1 18.3284 1.67158 19 2.5 19Z" stroke="#BBBBBB" stroke-width="1.5" stroke-miterlimit="10" stroke-linecap="round" stroke-linejoin="round"/>
<path d="M2.5 11C3.32843 11 4 10.3284 4 9.5C4 8.67157 3.32843 8 2.5 8C1.67158 8 1 8.67157 1 9.5C1 10.3284 1.67158 11 2.5 11Z" stroke="#BBBBBB" stroke-width="1.5" stroke-miterlimit="10" stroke-linecap="round" stroke-linejoin="round"/>
</svg>
