<svg width="20" height="20" viewBox="0 0 20 20" fill="none" xmlns="http://www.w3.org/2000/svg">
<path d="M18.3334 13.9501V3.89174C18.3334 2.89174 17.5167 2.15008 16.5251 2.23341H16.4751C14.7251 2.38341 12.0667 3.27508 10.5834 4.20841L10.4417 4.30008C10.2001 4.45008 9.80008 4.45008 9.55842 4.30008L9.35008 4.17508C7.86675 3.25008 5.21675 2.36674 3.46675 2.22508C2.47508 2.14174 1.66675 2.89174 1.66675 3.88341V13.9501C1.66675 14.7501 2.31675 15.5001 3.11675 15.6001L3.35841 15.6334C5.16675 15.8751 7.95842 16.7917 9.55842 17.6667L9.59175 17.6834C9.81675 17.8084 10.1751 17.8084 10.3917 17.6834C11.9917 16.8001 14.7917 15.8751 16.6084 15.6334L16.8834 15.6001C17.6834 15.5001 18.3334 14.7501 18.3334 13.9501Z" stroke="#428F92" stroke-width="1.5" stroke-linecap="round" stroke-linejoin="round"/>
<path d="M10 4.57495V17.075" stroke="#428F92" stroke-width="1.5" stroke-linecap="round" stroke-linejoin="round"/>
<path d="M6.45825 7.07495H4.58325" stroke="#428F92" stroke-width="1.5" stroke-linecap="round" stroke-linejoin="round"/>
<path d="M7.08325 9.57495H4.58325" stroke="#428F92" stroke-width="1.5" stroke-linecap="round" stroke-linejoin="round"/>
</svg>
