<svg xmlns="http://www.w3.org/2000/svg" width="17" height="16" viewBox="0 0 17 16" fill="none">
  <path d="M5.83309 12.6667H5.49976C2.83309 12.6667 1.49976 12 1.49976 8.66671V5.33337C1.49976 2.66671 2.83309 1.33337 5.49976 1.33337H10.8331C13.4998 1.33337 14.8331 2.66671 14.8331 5.33337V8.66671C14.8331 11.3334 13.4998 12.6667 10.8331 12.6667H10.4998C10.2931 12.6667 10.0931 12.7667 9.96642 12.9334L8.96642 14.2667C8.52642 14.8534 7.80642 14.8534 7.36642 14.2667L6.36642 12.9334C6.25976 12.7867 6.01309 12.6667 5.83309 12.6667Z" stroke="#00A1A1" stroke-width="1.5" stroke-miterlimit="10" stroke-linecap="round" stroke-linejoin="round"/>
  <path d="M10.8309 7.33333H10.8369" stroke="#00A1A1" stroke-width="2" stroke-linecap="round" stroke-linejoin="round"/>
  <path d="M8.16341 7.33333H8.1694" stroke="#00A1A1" stroke-width="2" stroke-linecap="round" stroke-linejoin="round"/>
  <path d="M5.49618 7.33333H5.50216" stroke="#00A1A1" stroke-width="2" stroke-linecap="round" stroke-linejoin="round"/>
</svg>