<svg xmlns="http://www.w3.org/2000/svg" width="16" height="16" viewBox="0 0 16 16" fill="none">
  <path d="M9.15339 2.33989L10.3267 4.68655C10.4867 5.01322 10.9134 5.32655 11.2734 5.38655L13.4001 5.73989C14.7601 5.96655 15.0801 6.95322 14.1001 7.92655L12.4467 9.57989C12.1667 9.85989 12.0134 10.3999 12.1001 10.7866L12.5734 12.8332C12.9467 14.4532 12.0867 15.0799 10.6534 14.2332L8.66006 13.0532C8.30006 12.8399 7.70673 12.8399 7.34006 13.0532L5.34673 14.2332C3.92006 15.0799 3.05339 14.4466 3.42673 12.8332L3.90006 10.7866C3.98673 10.3999 3.83339 9.85989 3.55339 9.57989L1.90006 7.92655C0.926728 6.95322 1.24006 5.96655 2.60006 5.73989L4.72673 5.38655C5.08006 5.32655 5.50673 5.01322 5.66673 4.68655L6.84006 2.33989C7.48006 1.06655 8.52006 1.06655 9.15339 2.33989Z" stroke="#428F92" stroke-width="1.5" stroke-linecap="round" stroke-linejoin="round"/>
</svg>