<svg width="25" height="32" viewBox="0 0 25 32" fill="none" xmlns="http://www.w3.org/2000/svg">
<g clip-path="url(#clip0_59_1625)">
<path d="M6.56071 5.61385L16.4055 5.43942L18.7299 5.399C18.814 5.40113 18.9003 5.44154 18.9631 5.51387C18.994 5.54897 19.0163 5.58939 19.0302 5.63406C19.0355 5.64469 19.0334 5.65746 19.0387 5.66809C19.0419 5.67979 19.0398 5.69256 19.044 5.70532L19.0451 5.70957V5.72765L19.0461 5.76594L19.0472 5.84252L19.0504 5.99568L19.1377 10.9128L19.3123 20.7469L19.3997 25.664L19.4433 28.122L19.4444 28.1986V28.2347L19.4433 28.2539C19.4412 28.2794 19.4454 28.3071 19.4401 28.3315C19.4348 28.3826 19.4263 28.4347 19.4092 28.4836C19.3784 28.5825 19.3262 28.6761 19.257 28.757C19.1164 28.9197 18.912 29.0207 18.6905 29.0271L8.8457 29.2015L7.61483 29.2239L6.99939 29.2345L6.69168 29.2398L6.61501 29.2409C6.59159 29.2409 6.55858 29.243 6.54474 29.2409C6.5096 29.2388 6.47446 29.2409 6.44039 29.2366C6.16355 29.2132 5.89736 29.0665 5.7238 28.8399C5.63649 28.7272 5.57261 28.5974 5.53853 28.4581C5.52789 28.424 5.52576 28.3879 5.5183 28.3528C5.51192 28.3177 5.51298 28.2805 5.50872 28.2443C5.50446 28.1539 5.50446 28.0433 5.50233 27.9433L5.41502 23.0262L5.2404 22.6859H4.89009L4.71547 23.0262L4.62816 27.9433C4.62709 28.0486 4.6239 28.1422 4.6239 28.2571C4.6271 28.323 4.62603 28.39 4.63455 28.456C4.64413 28.5219 4.65052 28.5878 4.66543 28.6527C4.71973 28.9144 4.8294 29.1643 4.98486 29.3824C5.29364 29.8195 5.79195 30.1237 6.33178 30.1918C6.39886 30.2013 6.46701 30.2024 6.53409 30.2077C6.57136 30.2098 6.59052 30.2098 6.61821 30.2098L6.69487 30.2109L7.00259 30.2162L7.61802 30.2269L8.84889 30.2492L18.6937 30.4236C19.2953 30.4353 19.9033 30.1779 20.3185 29.7355C20.5272 29.5164 20.6923 29.2526 20.7966 28.9644C20.8499 28.8208 20.8861 28.6708 20.9084 28.5198C20.9233 28.4443 20.9233 28.3677 20.9287 28.2922L20.9318 28.2347L20.9329 28.1943L20.934 28.1177L20.9776 25.6597L21.0649 20.7426L21.2396 10.9085L21.3269 5.99143L21.3301 5.83827L21.3311 5.76169L21.3322 5.7234V5.70319L21.3311 5.66916C21.3279 5.57981 21.3269 5.48941 21.3162 5.40006C21.3035 5.31072 21.2939 5.22031 21.2736 5.13203C21.198 4.77679 21.0479 4.43643 20.835 4.14181C20.4154 3.55044 19.7361 3.13989 19.0036 3.05055C18.9131 3.03778 18.8215 3.03459 18.7299 3.03034L18.5596 3.02608L18.2518 3.02077L17.6364 3.01013L16.4055 2.98779L5.41183 3.25689C5.04874 3.2654 4.86134 3.69509 5.10305 3.96632L6.56071 5.61385Z" fill="#B3B3B3"/>
<path d="M-6.6145 17.7751C-0.576217 18.5835 8.53179 19.3961 9.7584 26.7286C8.72558 19.1876 0.745157 15.6043 -6.51761 15.0906C-6.56659 16.3148 -6.59853 16.7158 -6.6145 17.7751Z" fill="#09603F"/>
<path d="M-6.61456 21.3371C-0.57627 22.1455 8.13032 20.7277 9.75834 26.7286C8.19527 20.2788 0.263831 19.1663 -7 18.6526C-6.61455 19.796 -6.59858 20.2778 -6.61456 21.3371Z" fill="#09603F"/>
<path d="M29.9111 7.24965C19.6308 13.0261 11.3107 20.1502 9.7583 26.7286C10.7911 19.1876 21.3344 8.95036 27.7592 5.58191C28.594 6.73593 29.1083 6.4796 29.9111 7.24965Z" fill="#09603F"/>
<path d="M33.6059 9.93415C27.5676 10.7425 11.3863 20.7266 9.7583 26.7275C11.3214 20.2778 26.0205 7.76226 33.2843 7.24854C32.8988 8.39404 33.0596 8.88543 33.6059 9.93415Z" fill="#09603F"/>
<path d="M3.13303 6.6199V6.44381C3.13303 6.30459 3.09935 6.20676 3.03097 6.15032C2.96258 6.09388 2.86766 6.06528 2.74314 6.06528H2.72579C2.25934 6.06528 1.88578 6.03894 1.60203 5.98702C1.31931 5.93509 1.0917 5.83501 0.921245 5.68676C0.815096 5.5957 0.736504 5.48583 0.686491 5.35714C0.636479 5.22921 0.610962 5.07795 0.610962 4.90411C0.610962 4.84316 0.615045 4.77994 0.624231 4.71523C0.633417 4.64976 0.646685 4.57826 0.664037 4.5L2.12359 4.56547C2.11747 4.6046 2.11134 4.64073 2.10624 4.67308C2.10012 4.70544 2.09706 4.73705 2.09706 4.7679C2.09706 4.84165 2.10726 4.90411 2.12768 4.95378C2.14809 5.0042 2.18789 5.04634 2.24709 5.08096C2.31242 5.12009 2.38999 5.14493 2.48185 5.15621C2.57371 5.1675 2.70742 5.17277 2.88399 5.17277H2.90134C3.19632 5.17277 3.43821 5.19008 3.62704 5.2247C3.81586 5.25931 3.98937 5.32478 4.1486 5.42036C4.3017 5.51593 4.41295 5.64085 4.48032 5.79512C4.54768 5.94939 4.59055 6.15484 4.60892 6.41145L3.13303 6.6199ZM4.61096 6.4107V7.31074H4.02714C3.81484 7.41082 3.62602 7.51618 3.46067 7.6268C3.29532 7.73743 3.15549 7.85407 3.04015 7.97598C2.92482 8.09789 2.83806 8.22281 2.77886 8.35075C2.71966 8.47943 2.69006 8.61263 2.69006 8.75185C2.69006 8.96933 2.73599 9.1379 2.82683 9.25756C2.91869 9.37721 3.03301 9.46074 3.17182 9.50891C3.31063 9.55707 3.45046 9.5804 3.59233 9.5804C3.71073 9.5804 3.81484 9.57362 3.9067 9.56083C3.99856 9.54804 4.08838 9.52621 4.17616 9.49536L4.60076 10.3435C4.41806 10.3999 4.23638 10.4405 4.05674 10.4639C3.8771 10.488 3.66888 10.5 3.43311 10.5C2.97891 10.5 2.57881 10.4405 2.23383 10.3209C1.88884 10.2012 1.6204 10.0131 1.42852 9.75649C1.23663 9.49987 1.14069 9.17177 1.14069 8.77142C1.14069 8.50652 1.19785 8.25367 1.31318 8.01436C1.42852 7.77505 1.58774 7.55531 1.79085 7.35589C1.99397 7.15571 2.22872 6.9751 2.4941 6.81406C2.75947 6.65302 3.04526 6.51831 3.35248 6.40995H4.61096V6.4107Z" fill="#FF4D4C"/>
<path d="M9.61096 5.5V6.60905H8.9849V10.5H7.69625V9.01261L7.8585 9.37426C7.70644 9.16005 7.54674 8.97737 7.38024 8.82715C7.2129 8.67693 7.04895 8.56194 6.8867 8.48127C6.72445 8.40059 6.5673 8.36072 6.41524 8.36072C6.34644 8.36072 6.29037 8.37648 6.2462 8.40894C6.20203 8.44139 6.17994 8.48961 6.17994 8.5536C6.17994 8.63427 6.21562 8.70011 6.28697 8.75019C6.35833 8.80119 6.46281 8.8559 6.59958 8.91524L6.06186 10.0169C5.69829 9.86665 5.40777 9.65801 5.18945 9.39002C4.97114 9.12203 4.86156 8.82437 4.86156 8.49796C4.86156 8.19288 4.92442 7.94343 5.04929 7.75056C5.17416 7.55768 5.33641 7.41673 5.53519 7.32863C5.73397 7.24054 5.94379 7.19603 6.16465 7.19603C6.36597 7.19603 6.56135 7.22571 6.74994 7.28412C6.93852 7.34347 7.1254 7.43157 7.30974 7.54933C7.49407 7.6671 7.67671 7.81454 7.8585 7.99165L7.71834 8.08809C7.71324 7.96476 7.70814 7.82938 7.70389 7.68194C7.6988 7.53542 7.69625 7.40838 7.69625 7.30082V6.60905H4.61096V5.5H9.61096Z" fill="#FF4D4C"/>
<path d="M12.611 12.1062V13.3026H11.8617V17.5H10.3193V14.1269L10.4779 14.7771C10.2725 14.517 10.0794 14.2889 9.90043 14.0919C9.72149 13.8958 9.54764 13.7317 9.3809 13.6017C9.21314 13.4717 9.04437 13.3736 8.87458 13.3066C8.70377 13.2406 8.52483 13.2066 8.33674 13.2066C8.15475 13.2066 7.9992 13.2286 7.87008 13.2716C7.74096 13.3146 7.6098 13.3856 7.47763 13.4837C7.34546 13.5817 7.18787 13.7117 7.00588 13.8738L6.6358 13.7958C6.76492 13.6857 6.90421 13.6067 7.05468 13.5577C7.20414 13.5087 7.34139 13.4837 7.46441 13.4837C7.77552 13.4837 8.00936 13.5637 8.16492 13.7217C8.32048 13.8808 8.39876 14.0619 8.39876 14.2639C8.39876 14.3389 8.39469 14.419 8.38554 14.502C8.37639 14.586 8.35809 14.6681 8.32861 14.7491L7.86194 14.584C7.90871 14.521 7.97785 14.444 8.06935 14.354C8.16085 14.2639 8.25846 14.1729 8.36419 14.0809C8.46993 13.9888 8.56347 13.9078 8.64582 13.8378L9.67676 13.0135L10.5318 13.8638L7.84364 16.1616L6.87371 15.2422L7.53456 14.7481L7.34037 15.0432L7.06688 15.1042C7.2021 15.0062 7.29564 14.9191 7.34851 14.8441C7.40138 14.7691 7.42781 14.6911 7.42781 14.61C7.42781 14.523 7.40239 14.458 7.35257 14.415C7.30276 14.372 7.22447 14.3499 7.11873 14.3499C7.03028 14.3499 6.94386 14.366 6.85846 14.398C6.77305 14.43 6.68053 14.475 6.5809 14.532L5.61096 13.6387C5.92207 13.2976 6.21488 13.0085 6.48838 12.7714C6.76187 12.5343 7.04045 12.3543 7.32614 12.2292C7.61082 12.1052 7.92396 12.0432 8.26456 12.0432C8.54618 12.0432 8.80951 12.0882 9.05352 12.1772C9.29753 12.2673 9.53645 12.3983 9.77131 12.5714C10.0062 12.7444 10.2441 12.9645 10.485 13.2306L10.3529 13.3606C10.3468 13.2626 10.3396 13.1395 10.3305 12.9925C10.3213 12.8454 10.3173 12.7134 10.3173 12.5984V11.5H11.639L11.8505 12.1072H12.611V12.1062Z" fill="#FF4D4C"/>
<path d="M9.50693 19.1617C9.31963 19.1617 9.13618 19.1363 8.95581 19.0862C8.77544 19.0362 8.62591 18.9567 8.50797 18.8492C8.39004 18.7411 8.33069 18.5982 8.33069 18.4206C8.33069 18.189 8.43398 18.0094 8.64132 17.8825C8.84867 17.755 9.15699 17.6916 9.56705 17.6916C9.84762 17.6916 10.1259 17.7223 10.4026 17.7844C10.6785 17.8458 10.9622 17.952 11.2682 18.0768C13.611 19 9.36972 24.8878 9.50693 25.5C9.50693 25.5 10.111 22 11.111 19.5C11.2682 19.0228 11.1672 18.8219 10.9337 18.687C10.7001 18.5522 10.4758 18.4507 10.2623 18.3833C10.0488 18.3158 9.84839 18.2818 9.66109 18.2818C9.55395 18.2818 9.47995 18.2971 9.43756 18.3278C9.39516 18.3585 9.37435 18.3973 9.37435 18.4433C9.37435 18.4894 9.39208 18.5255 9.42754 18.5502C9.46299 18.5755 9.51233 18.5875 9.57476 18.5875C9.65492 18.5875 9.71967 18.5722 9.76823 18.5415C9.81756 18.5108 9.85379 18.4694 9.87846 18.4173C9.90312 18.3652 9.91931 18.3045 9.92856 18.235C9.93781 18.1656 9.94166 18.0902 9.94166 18.0094V17.5H11.111V17.7143C11.111 17.8645 11.0917 18.0227 11.0539 18.189C11.0162 18.3545 10.9429 18.5121 10.8335 18.661C10.724 18.8092 10.5637 18.93 10.3525 19.0228C10.1405 19.1156 9.85841 19.1617 9.50693 19.1617Z" fill="#FF4D4C"/>
<path d="M15.611 24.0059V25.0028H14.967V28.5H13.6414V25.5887L13.6947 25.9212C13.5383 25.7379 13.3862 25.5778 13.2403 25.4412C13.0935 25.3036 12.9476 25.1953 12.8008 25.1161C12.654 25.0369 12.5002 24.9969 12.3385 24.9969C12.2625 24.9969 12.1961 25.0086 12.1375 25.0328C12.079 25.0569 12.0353 25.0903 12.0047 25.1336C11.9741 25.1769 11.9593 25.2303 11.9593 25.2928C11.9593 25.3603 11.9785 25.4253 12.0161 25.4878C12.0536 25.5503 12.1305 25.6037 12.2468 25.647C12.363 25.6904 12.5369 25.717 12.7693 25.7262L12.6111 26.8822C12.1367 26.8297 11.7513 26.733 11.4559 26.593C11.1606 26.4538 10.9456 26.273 10.8119 26.0513C10.6782 25.8296 10.611 25.567 10.611 25.2636C10.611 25.0228 10.6739 24.8036 10.8006 24.606C10.9264 24.4085 11.102 24.251 11.3266 24.1326C11.5512 24.0143 11.8098 23.9559 12.1034 23.9559C12.3813 23.9559 12.6286 24.0043 12.8462 24.1001C13.0629 24.1968 13.2578 24.3143 13.429 24.4543C13.6003 24.5943 13.7523 24.7285 13.8834 24.8586L13.6711 24.7427C13.6606 24.6177 13.6536 24.4927 13.6484 24.3668C13.6431 24.2418 13.6405 24.1309 13.6405 24.0343V23.5H14.7765L14.9582 24.0059H15.611Z" fill="#FF4D4C"/>
<path d="M18.611 23.5V24.5132H17.8527L18.3495 24.4031C18.2389 24.5056 18.1493 24.6039 18.0789 24.6971C18.0096 24.7902 17.9583 24.8817 17.9261 24.9724C17.8939 25.063 17.8778 25.1647 17.8778 25.2774C17.8778 25.4341 17.8999 25.5942 17.9432 25.7586C17.9864 25.9229 18.0317 26.0923 18.0779 26.2686C18.1242 26.4448 18.1473 26.6337 18.1473 26.8336C18.1473 27.0344 18.1182 27.2182 18.0598 27.3843C18.0015 27.5503 17.8959 27.7011 17.742 27.8358C17.5882 27.9705 17.3659 28.0925 17.0753 28.2026C16.7846 28.3128 16.4065 28.4119 15.9418 28.5L15.611 27.5012C15.9016 27.447 16.1178 27.3877 16.2606 27.3216C16.4035 27.2555 16.497 27.1759 16.5442 27.0827C16.5905 26.9895 16.6136 26.8794 16.6136 26.7523C16.6136 26.571 16.5915 26.4049 16.5483 26.2525C16.505 26.1008 16.4598 25.9449 16.4135 25.7865C16.3672 25.6272 16.3441 25.4527 16.3441 25.2613C16.3441 25.1486 16.3632 25.041 16.4004 24.9385C16.4387 24.836 16.492 24.7377 16.5613 24.6445C16.6307 24.5513 16.7122 24.4607 16.8057 24.3726L16.8409 24.5124H15.7508V23.5H18.611Z" fill="#FF4D4C"/>
</g>
<defs>
<clipPath id="clip0_59_1625">
<rect width="25" height="31" fill="white" transform="translate(0 0.5)"/>
</clipPath>
</defs>
</svg>
