<svg xmlns="http://www.w3.org/2000/svg" width="18" height="18" viewBox="0 0 18 18" fill="none">
  <path d="M13.5 14.1451H12.93C12.33 14.1451 11.76 14.3775 11.34 14.7975L10.0575 16.065C9.47248 16.6425 8.52001 16.6425 7.93501 16.065L6.6525 14.7975C6.2325 14.3775 5.655 14.1451 5.0625 14.1451H4.5C3.255 14.1451 2.25 13.1476 2.25 11.9176V3.73505C2.25 2.50505 3.255 1.50757 4.5 1.50757H13.5C14.745 1.50757 15.75 2.50505 15.75 3.73505V11.9176C15.75 13.1401 14.745 14.1451 13.5 14.1451Z" stroke="#222222" stroke-width="1.5" stroke-miterlimit="10" stroke-linecap="round" stroke-linejoin="round"/>
  <path d="M8.99995 7.49998C9.96507 7.49998 10.7475 6.71759 10.7475 5.75247C10.7475 4.78735 9.96507 4.005 8.99995 4.005C8.03484 4.005 7.25244 4.78735 7.25244 5.75247C7.25244 6.71759 8.03484 7.49998 8.99995 7.49998Z" stroke="#222222" stroke-width="1.5" stroke-linecap="round" stroke-linejoin="round"/>
  <path d="M12 11.745C12 10.395 10.6575 9.30005 9 9.30005C7.3425 9.30005 6 10.395 6 11.745" stroke="#222222" stroke-width="1.5" stroke-linecap="round" stroke-linejoin="round"/>
</svg>