<svg xmlns="http://www.w3.org/2000/svg" width="18" height="18" viewBox="0 0 18 18" fill="none">
  <path d="M6.765 2.13L2.7225 5.28C2.0475 5.805 1.5 6.9225 1.5 7.77V13.3275C1.5 15.0675 2.9175 16.4925 4.6575 16.4925H13.3425C15.0825 16.4925 16.5 15.0675 16.5 13.335V7.875C16.5 6.9675 15.8925 5.805 15.15 5.2875L10.515 2.04C9.465 1.305 7.7775 1.3425 6.765 2.13Z" stroke="#222222" stroke-width="1.5" stroke-linecap="round" stroke-linejoin="round"/>
  <path d="M7.875 13.5H10.125C11.3625 13.5 12.375 12.4875 12.375 11.25V9C12.375 7.7625 11.3625 6.75 10.125 6.75H7.875C6.6375 6.75 5.625 7.7625 5.625 9V11.25C5.625 12.4875 6.6375 13.5 7.875 13.5Z" stroke="#222222" stroke-width="1.5" stroke-linecap="round" stroke-linejoin="round"/>
  <path d="M9 6.75V13.5" stroke="#222222" stroke-width="1.5" stroke-linecap="round" stroke-linejoin="round"/>
  <path d="M5.625 10.125H12.375" stroke="#222222" stroke-width="1.5" stroke-linecap="round" stroke-linejoin="round"/>
</svg>