<svg width="16" height="16" viewBox="0 0 16 16" fill="none" xmlns="http://www.w3.org/2000/svg">
<path d="M3.33333 6.66675C2.6 6.66675 2 7.26675 2 8.00008C2 8.73341 2.6 9.33341 3.33333 9.33341C4.06667 9.33341 4.66667 8.73341 4.66667 8.00008C4.66667 7.26675 4.06667 6.66675 3.33333 6.66675Z" stroke="#555555"/>
<path d="M12.6668 6.66675C11.9335 6.66675 11.3335 7.26675 11.3335 8.00008C11.3335 8.73341 11.9335 9.33341 12.6668 9.33341C13.4002 9.33341 14.0002 8.73341 14.0002 8.00008C14.0002 7.26675 13.4002 6.66675 12.6668 6.66675Z" stroke="#555555"/>
<path d="M7.99984 6.66675C7.2665 6.66675 6.6665 7.26675 6.6665 8.00008C6.6665 8.73341 7.2665 9.33341 7.99984 9.33341C8.73317 9.33341 9.33317 8.73341 9.33317 8.00008C9.33317 7.26675 8.73317 6.66675 7.99984 6.66675Z" stroke="#555555"/>
</svg>
