<svg width="44" height="46" viewBox="0 0 44 46" fill="none" xmlns="http://www.w3.org/2000/svg">
<g id="Aspire_to_Innovate_Seal 2" clip-path="url(#clip0_1224_83524)">
<g id="g1143">
<path id="Path_359" d="M26.305 41.9659C25.9189 41.949 25.6107 42.2841 25.6598 42.6675V42.8645H25.3102V43.3127H25.6598V45.2849H26.2961V43.3038H26.713V42.8556H26.3006V42.7614C26.3006 42.5552 26.3052 42.4879 26.5248 42.4879H26.7041V41.9728H26.3722C26.35 41.9693 26.3275 41.967 26.305 41.9659ZM5.71875 41.9728V42.5644H6.35953V41.9728H5.71875ZM35.3859 42.0086V45.2849H36.027V42.0086H35.3859ZM36.6544 42.0086V45.2849H37.2908V42.0086H36.6544ZM20.3079 42.1967V42.8645H19.9808V43.3127H20.3079V44.7831C20.3079 45.0968 20.411 45.303 20.9623 45.303H21.3658V44.8189H21.2313C20.9669 44.8189 20.9667 44.765 20.9667 44.6216V43.3038H21.3658V42.8556H20.949V42.1967L20.3079 42.1967ZM22.5849 42.7795C21.965 42.8365 21.5069 43.3826 21.5587 44.003C21.5587 45.0204 22.0876 45.3477 22.7734 45.3477C23.2655 45.3708 23.7075 45.0482 23.8354 44.5724L23.181 44.5677C23.1179 44.7352 22.9519 44.8412 22.7734 44.8278C22.2579 44.8278 22.1995 44.4244 22.1995 44.2362H23.8535V44.1242C23.8535 43.0037 23.1946 42.7795 22.7105 42.7795L22.5849 42.7795ZM11.1741 42.7887C11.1499 42.7889 11.1258 42.7903 11.1017 42.7928C10.798 42.7784 10.5133 42.9408 10.3712 43.2096V42.8556H9.76144V45.2849H10.3937V43.891C10.3914 43.8672 10.3914 43.8432 10.3937 43.8193C10.3986 43.5446 10.6253 43.3259 10.9 43.3308C11.3168 43.3308 11.3168 43.6312 11.3168 43.8105V45.2849H11.9535V43.6043C11.9578 43.5685 11.9578 43.5324 11.9535 43.4967C11.9183 43.0935 11.5789 42.7851 11.1741 42.7887ZM8.38088 42.7893C8.35705 42.7894 8.33325 42.7905 8.30953 42.7928C8.00553 42.7772 7.72027 42.94 7.57896 43.2096V42.8556H6.96925V45.2849H7.60559V43.891C7.60334 43.8672 7.60334 43.8432 7.60559 43.8193C7.61054 43.5463 7.83466 43.3282 8.10777 43.3308C8.52909 43.3308 8.52904 43.6312 8.52904 43.8105V45.2849H9.16538L9.15207 43.6043C9.15425 43.5668 9.15425 43.5293 9.15207 43.4919C9.11656 43.093 8.78142 42.7876 8.38088 42.7893ZM18.6945 42.7928C18.2014 42.7928 17.6816 42.8961 17.6099 43.6401H18.2193V43.5906C18.2193 43.4002 18.4179 43.3038 18.6091 43.3038C18.7705 43.3038 19.0307 43.3173 19.0307 43.5817C19.0307 43.7207 18.9006 43.779 18.8065 43.779L18.2285 43.8596C17.8274 43.8929 17.5245 44.2373 17.5426 44.6393C17.5404 44.6663 17.5404 44.6933 17.5426 44.7202C17.5712 45.097 17.901 45.3786 18.2777 45.3477C18.5798 45.3574 18.8695 45.2267 19.0622 44.9937C19.0713 45.0915 19.0922 45.1878 19.1246 45.2805H19.806V45.1862C19.7254 45.1593 19.6627 45.0965 19.6627 44.8097V43.4919C19.6627 42.8958 19.0351 42.7928 18.6945 42.7928ZM31.0561 42.7928C30.7528 42.7945 30.4843 42.9892 30.3883 43.2769V42.8556H29.7697V45.303H30.4108V44.0344C30.404 43.9869 30.404 43.9386 30.4108 43.891C30.4455 43.603 30.711 43.4003 30.998 43.4428C31.0592 43.4384 31.1206 43.4384 31.1817 43.4428V42.7928H31.0561ZM33.8305 42.7928C33.333 42.7928 32.8177 42.8961 32.7415 43.6401H33.3601C33.3576 43.6252 33.3576 43.61 33.3601 43.595C33.3856 43.4079 33.5576 43.3038 33.7455 43.3038C33.9113 43.3038 34.1668 43.3173 34.1668 43.5817C34.1668 43.7207 34.0459 43.779 33.9428 43.779L33.3689 43.8596C32.9597 43.8814 32.6451 44.23 32.6654 44.6393V44.7158C32.6964 45.0938 33.0266 45.376 33.4048 45.3477C33.7069 45.3568 33.9962 45.2262 34.1893 44.9937C34.1969 45.0913 34.2164 45.1876 34.2473 45.2805H34.9513V45.1862C34.8751 45.1593 34.8153 45.0965 34.8123 44.8097L34.7987 43.4919C34.7925 42.8959 34.1711 42.7928 33.8305 42.7928ZM28.0505 42.7934C26.3223 42.7944 26.3616 45.399 28.0891 45.3477V45.3433C28.1443 45.3478 28.1998 45.3478 28.255 45.3433C28.9054 45.2887 29.3876 44.716 29.3307 44.0658V44.0344C29.3109 43.3421 28.7431 42.7916 28.0505 42.7934ZM13.5194 42.7965C11.8509 42.9108 11.9759 45.4011 13.6474 45.3477C14.3209 45.3246 14.8615 44.784 14.8846 44.1105C14.9081 43.3548 14.2737 42.7442 13.5194 42.7965ZM5.71875 42.8556V45.2849H6.35953V42.8556H5.71875ZM15.0102 42.8556L15.8798 45.2849H16.5519L17.4259 42.8556H16.7448L16.2249 44.6486L15.7227 42.8556H15.0102ZM22.7105 43.3172H22.7597C23.0226 43.3386 23.221 43.5648 23.2079 43.8282H22.2128C22.2621 43.5055 22.4102 43.3172 22.7105 43.3172ZM28.0891 43.3264V43.3308C28.5821 43.3308 28.6763 43.7745 28.6763 44.0658C28.6763 44.3571 28.5821 44.8052 28.0891 44.8052C27.596 44.8052 27.5063 44.3571 27.5063 44.0658C27.5063 43.7745 27.596 43.3264 28.0891 43.3264ZM13.6474 43.3308C14.1405 43.3308 14.2346 43.7789 14.2346 44.0702C14.2346 44.3616 14.1405 44.8097 13.6474 44.8097C13.1544 44.8097 13.065 44.3616 13.065 44.0702C13.065 43.7789 13.1544 43.3308 13.6474 43.3308ZM19.0396 44.1017L19.0127 44.4109C18.9873 44.7018 18.7299 44.9164 18.4391 44.8906H18.4077C18.254 44.8834 18.1403 44.7529 18.1431 44.5991C18.148 44.3347 18.3566 44.2604 18.5914 44.2317C18.748 44.2126 18.9026 44.1798 19.0396 44.1017ZM34.1849 44.1017L34.1579 44.4109C34.1327 44.7001 33.8777 44.914 33.5885 44.8906H33.5526C33.3991 44.8832 33.2855 44.7528 33.2884 44.5991C33.2933 44.3347 33.5267 44.2335 33.7366 44.2317C33.8949 44.2304 34.0496 44.1838 34.1849 44.1017Z" fill="#038442"/>
<g id="g1098">
<g id="g1082">
<path id="path1073" d="M6.75854 1.26653C8.39564 0.606793 9.80455 0.482798 11.005 0.864079C12.4553 1.32473 13.5097 2.34477 14.1137 3.87448C15.1771 6.5677 15.9966 9.51651 19.1964 9.43232C18.1117 9.85715 17.0429 9.82837 16.0025 9.34064C15.5953 9.14977 15.2479 8.88063 14.9339 8.57175C14.4532 8.09896 13.9384 7.9273 13.5594 8.28029C13.0844 8.7228 13.3885 9.59466 14.035 9.99178C14.7962 10.4594 16.1627 10.7979 17.361 10.7814C18.1379 10.7708 18.758 10.7806 19.2695 10.8179C20.2124 10.8868 21.4705 11.2087 21.8812 11.9333C20.6809 11.2881 19.3761 11.103 18.2846 11.4391C17.166 11.7835 16.1495 12.4591 14.9533 12.4709C14.1851 12.4785 13.3561 12.2689 12.42 11.7786C12.0399 11.5854 11.4249 11.2031 11.3796 11.6958C11.3136 12.4128 11.9943 12.9179 12.6012 13.2737C13.1489 13.5949 13.7953 13.845 14.366 14.0344C13.7865 13.9867 12.4869 13.6431 11.6056 13.2627C9.63868 12.4135 8.45019 11.0419 8.0135 9.16339C7.82789 8.36495 7.81938 7.72952 8.0135 6.69374C8.25297 5.41596 8.45322 3.89263 8.28228 2.87736C8.14043 2.03487 7.71639 1.44686 6.75854 1.26653Z" fill="black"/>
<path id="path935" d="M9.56542 0.650396C8.71569 0.651621 7.78173 0.854607 6.75854 1.26694C6.80369 1.26601 6.84878 1.26551 6.89373 1.26557C7.56804 1.26657 8.21993 1.38063 8.83383 1.63768C9.4276 1.88631 9.99444 2.14944 10.4093 3.02883C10.6079 3.44978 10.6466 4.2729 10.7084 5.01092C10.8064 6.18212 10.7928 7.40749 11.1365 8.45482C11.4708 9.47375 11.9629 10.4451 13.3528 11.1036C14.4272 11.6127 15.5236 11.6119 16.5696 11.2883C17.1155 11.1194 17.8591 10.8954 18.3711 10.7817C18.0661 10.7767 17.7325 10.7766 17.361 10.7817C16.1627 10.7981 14.796 10.4597 14.0348 9.99208C13.3884 9.59496 13.0842 8.72322 13.5593 8.28071C13.9382 7.92772 14.4534 8.09947 14.9341 8.57225C15.2481 8.88114 15.5954 9.15018 16.0026 9.34105C17.043 9.82878 18.1115 9.85772 19.1963 9.43289C15.9964 9.51709 15.1771 6.568 14.1137 3.87479C13.5097 2.34508 12.4553 1.32509 11.005 0.864445C10.5549 0.721465 10.0753 0.649661 9.56542 0.650396Z" fill="#3C3C3C"/>
<path id="path3416" d="M6.89373 1.26514C6.84878 1.26508 6.80369 1.26558 6.75854 1.26651C7.71639 1.44684 8.1403 2.03502 8.28215 2.87751C8.45309 3.89277 8.25296 5.41609 8.01348 6.69386C7.81936 7.72964 7.82787 8.36501 8.01348 9.16344C8.45017 11.042 9.6386 12.4136 11.6055 13.2628C12.4868 13.6433 13.7865 13.9867 14.366 14.0343C13.7953 13.845 13.1491 13.5949 12.6014 13.2737C11.9944 12.9179 11.3136 12.4129 11.3795 11.6958C11.4249 11.2032 12.04 11.5853 12.4201 11.7785C13.3562 12.2687 14.1849 12.4784 14.9532 12.4708C16.1493 12.459 17.1659 11.7835 18.2844 11.4391C19.3759 11.103 20.681 11.2882 21.8812 11.9334C21.4705 11.2088 20.2123 10.8866 19.2693 10.8178C19.0024 10.7983 18.704 10.7868 18.3711 10.7813C17.8591 10.895 17.1155 11.119 16.5696 11.2879C15.5236 11.6115 14.4272 11.6123 13.3528 11.1032C11.9629 10.4447 11.4708 9.47332 11.1365 8.45438C10.7928 7.40706 10.8064 6.18169 10.7084 5.01049C10.6466 4.27247 10.6079 3.44935 10.4093 3.0284C9.99444 2.14901 9.4276 1.88588 8.83383 1.63725C8.21993 1.3802 7.56804 1.26614 6.89373 1.26514ZM19.6762 12.4203C19.2311 12.4201 18.7813 12.4991 18.336 12.6596C16.8041 13.2115 15.5193 13.39 14.4902 13.0808C16.0061 14.0673 17.5713 14.2637 19.2161 13.8541C20.8865 13.438 22.1489 13.6287 23.0645 14.1835C22.1018 13.0262 20.9071 12.4208 19.6762 12.4203Z" fill="#010101"/>
<path id="path4479" fill-rule="evenodd" clip-rule="evenodd" d="M10.0504 2.22996C10.0504 2.27125 10.0422 2.31214 10.0264 2.35029C10.0106 2.38844 9.98748 2.4231 9.95828 2.4523C9.92909 2.4815 9.89442 2.50466 9.85627 2.52046C9.81812 2.53626 9.77724 2.5444 9.73594 2.5444C9.69465 2.5444 9.65376 2.53626 9.61561 2.52046C9.57747 2.50466 9.5428 2.4815 9.5136 2.4523C9.48441 2.4231 9.46125 2.38844 9.44544 2.35029C9.42964 2.31214 9.42151 2.27125 9.42151 2.22996C9.42151 2.18867 9.42964 2.14778 9.44544 2.10963C9.46125 2.07148 9.48441 2.03682 9.5136 2.00762C9.5428 1.97843 9.57747 1.95526 9.61561 1.93946C9.65376 1.92366 9.69465 1.91553 9.73594 1.91553C9.77724 1.91553 9.81812 1.92366 9.85627 1.93946C9.89442 1.95526 9.92909 1.97843 9.95828 2.00762C9.98748 2.03682 10.0106 2.07148 10.0264 2.10963C10.0422 2.14778 10.0504 2.18867 10.0504 2.22996Z" fill="white"/>
</g>
<g id="g1066">
<g id="g8460">
<path id="path7387" d="M11.9579 15.1514C5.43753 15.1514 0.151723 20.4372 0.151733 26.9575C0.151723 33.4779 5.43753 38.7637 11.9579 38.7637C15.3065 38.7615 18.4968 37.3374 20.7342 34.8459V37.2885C20.7342 39.3085 23.764 39.3085 23.764 37.2885V36.0933V26.9575C23.764 20.4372 18.4782 15.1514 11.9579 15.1514ZM11.9579 18.1272C13.1175 18.1272 14.2657 18.3556 15.3371 18.7994C16.4084 19.2431 17.3819 19.8936 18.2019 20.7135C19.0218 21.5335 19.6723 22.5069 20.116 23.5783C20.5598 24.6496 20.7882 25.7979 20.7882 26.9575C20.7881 29.2994 19.8577 31.5453 18.2017 33.2013C16.5457 34.8572 14.2998 35.7875 11.9579 35.7875C9.61599 35.7875 7.37001 34.8572 5.71402 33.2013C4.05802 31.5453 3.12766 29.2994 3.12759 26.9575C3.12758 25.7979 3.35598 24.6496 3.79974 23.5783C4.24349 22.507 4.89393 21.5335 5.7139 20.7135C6.53387 19.8936 7.50732 19.2431 8.57866 18.7994C9.65 18.3556 10.7983 18.1272 11.9579 18.1272ZM41.5523 18.3846C41.5025 18.384 41.4523 18.3857 41.4017 18.3898C40.69 18.4474 40.1027 18.9696 39.9621 19.6696V37.5979C40.306 39.3116 42.7559 39.3116 43.0998 37.5979V19.6696C42.95 18.9239 42.2993 18.394 41.5523 18.3846ZM31.7733 19.0374C30.8951 19.047 29.9206 19.2388 29.2228 19.5307C28.5226 19.8235 27.8827 20.2424 27.3182 20.7498C26.8137 21.2032 26.4049 21.7491 26.0899 22.3498C25.8244 22.8562 25.6585 23.4098 25.6416 23.9813C25.621 24.6835 26.1764 25.2902 26.8788 25.2902H26.9461C27.2944 25.2902 27.631 25.1545 27.8426 24.8778C28.0172 24.6493 28.1538 24.3904 28.2235 24.1114C28.4089 23.3698 28.8565 22.703 29.4471 22.2556C30.0583 21.7925 30.85 21.5465 31.6388 21.5564C32.1408 21.5628 32.6389 21.646 33.1043 21.8343C33.5327 22.0077 33.9165 22.2738 34.234 22.6096C34.5536 22.9477 34.8114 23.3407 34.9779 23.7751C35.1557 24.2392 35.2897 24.7352 35.2899 25.2318C35.2901 25.7726 35.1835 26.3425 34.9512 26.8186C34.6067 27.5247 33.9992 28.2132 33.5481 28.7054C33.1898 29.0956 32.746 29.5349 32.2034 30.0501L25.6328 36.2893C24.9491 36.9384 24.7793 37.5477 25.2429 38.1898C25.3681 38.3477 25.5186 38.4845 25.6911 38.5885C25.8449 38.6812 26.0158 38.7428 26.193 38.7722C26.3041 38.7906 26.4166 38.8036 26.5292 38.8036H36.511C36.859 38.8036 37.1947 38.6795 37.4478 38.4407C37.7067 38.1964 37.8485 37.8555 37.8465 37.4995C37.8424 36.7568 37.2445 36.1548 36.5018 36.1548H29.516L34.8389 31.1347C35.7247 30.2993 36.5557 29.4003 37.1341 28.3289C37.4841 27.6804 37.6988 26.9213 37.8018 26.2536C37.8507 25.9362 37.8541 25.6737 37.8554 25.3527C37.8587 24.5194 37.7222 23.6834 37.3805 22.9234C36.6491 21.2962 35.4553 20.1589 34.1534 19.5484C33.4101 19.1998 32.5943 19.0284 31.7733 19.0374Z" fill="#038442"/>
<path id="path7098" fill-rule="evenodd" clip-rule="evenodd" d="M41.5308 12.9155C41.009 12.9155 40.5086 13.1228 40.1396 13.4918C39.7706 13.8607 39.5634 14.3611 39.5634 14.8829C39.5634 15.4047 39.7706 15.9051 40.1396 16.2741C40.5086 16.6431 41.009 16.8503 41.5308 16.8503C42.0525 16.8503 42.553 16.6431 42.9219 16.2741C43.2909 15.9051 43.4982 15.4047 43.4982 14.8829C43.4982 14.3611 43.2909 13.8607 42.9219 13.4918C42.553 13.1228 42.0525 12.9155 41.5308 12.9155ZM11.9579 15.1513C8.10191 15.1513 4.67793 17 2.52334 19.8593C3.07248 20.7611 3.67884 21.6367 4.35795 22.4692C5.13809 21.1473 6.24933 20.0517 7.58205 19.2902C8.91478 18.5288 10.423 18.1279 11.9579 18.1271C13.1175 18.1271 14.2657 18.3555 15.3371 18.7993C16.4084 19.243 17.3819 19.8935 18.2019 20.7134C19.0218 21.5334 19.6723 22.5068 20.116 23.5782C20.5598 24.6495 20.7882 25.7978 20.7882 26.9574C20.785 27.8005 20.661 28.6388 20.4201 29.4468C21.4771 29.4681 22.5895 29.4436 23.764 29.3672V26.9574C23.764 20.4371 18.4782 15.1513 11.9579 15.1513ZM41.5523 18.3845C41.5025 18.3839 41.4523 18.3856 41.4017 18.3897C40.69 18.4473 40.1027 18.9695 39.9621 19.6695V26.799C39.9648 26.798 39.9682 26.7971 39.971 26.7959C41.6223 26.1397 42.2547 25.7571 43.0998 25.3037V19.6695C42.95 18.9238 42.2993 18.3939 41.5523 18.3845ZM31.7733 19.0373C30.8951 19.0469 29.9206 19.2387 29.2228 19.5306C28.5226 19.8234 27.8827 20.2423 27.3182 20.7496C26.8137 21.2031 26.4049 21.749 26.0899 22.3497C25.8244 22.8561 25.6585 23.4097 25.6416 23.9812C25.621 24.6834 26.1764 25.2901 26.8788 25.2901H26.9461C27.2944 25.2901 27.631 25.1544 27.8426 24.8777C28.0172 24.6492 28.1538 24.3903 28.2235 24.1113C28.4089 23.3697 28.8565 22.7029 29.4471 22.2555C30.0583 21.7924 30.85 21.5464 31.6388 21.5563C32.1408 21.5627 32.6389 21.6459 33.1043 21.8342C33.5327 22.0076 33.9165 22.2737 34.234 22.6095C34.5536 22.9476 34.8114 23.3406 34.9779 23.775C35.1557 24.2391 35.2897 24.7351 35.2899 25.2317C35.2901 25.7725 35.1835 26.3424 34.9512 26.8185C34.6067 27.5245 33.9995 28.2128 33.5485 28.705C33.5517 28.7044 33.5549 28.7041 33.558 28.7036C35.1161 28.2856 36.3879 27.9363 37.4567 27.6033C37.622 27.1514 37.7355 26.6835 37.8018 26.2534C37.8507 25.9361 37.8541 25.6735 37.8554 25.3525C37.8587 24.5193 37.7222 23.6832 37.3805 22.9232C36.6491 21.2961 35.4553 20.1588 34.1534 19.5483C33.4101 19.1997 32.5942 19.0283 31.7733 19.0373Z" fill="#00AF4C"/>
<path id="path7101" fill-rule="evenodd" clip-rule="evenodd" d="M19.0979 26.9574C19.0979 28.8511 18.3456 30.6672 17.0066 32.0062C15.6676 33.3453 13.8515 34.0975 11.9578 34.0975C10.0642 34.0975 8.24805 33.3453 6.90903 32.0062C5.57 30.6672 4.81775 28.8511 4.81775 26.9574C4.81775 25.0638 5.57 23.2477 6.90903 21.9087C8.24805 20.5696 10.0642 19.8174 11.9578 19.8174C13.8515 19.8174 15.6676 20.5696 17.0066 21.9087C18.3456 23.2477 19.0979 25.0638 19.0979 26.9574Z" fill="#AC2126"/>
<path id="path7460" d="M2.52334 19.8594C1.03458 21.8351 0.151729 24.2931 0.151733 26.9575C0.151723 33.4778 5.43754 38.7636 11.9579 38.7636C15.3065 38.7614 18.4968 37.3373 20.7342 34.8459V37.2885C20.7342 39.3084 23.764 39.3084 23.764 37.2885V36.0933V29.3673C22.5895 29.4437 21.4771 29.4682 20.4201 29.4469C19.8828 31.2754 18.7682 32.881 17.243 34.0238C15.7178 35.1667 13.8637 35.7853 11.9579 35.7874C9.61599 35.7874 7.37001 34.8572 5.71402 33.2012C4.05802 31.5453 3.12766 29.2994 3.12759 26.9575C3.129 25.3783 3.55388 23.8284 4.35795 22.4693C3.67884 21.6368 3.07249 20.7611 2.52334 19.8594ZM43.0998 25.3038C42.2547 25.7571 41.6223 26.1398 39.971 26.796C39.9683 26.797 39.9648 26.798 39.9621 26.7991V37.5978C40.306 39.3115 42.7558 39.3115 43.0998 37.5978L43.0998 25.3038ZM37.4567 27.6034C36.3879 27.9364 35.1161 28.2857 33.558 28.7037C33.5547 28.7042 33.5514 28.7045 33.5481 28.705C33.5481 28.7051 33.5482 28.705 33.5481 28.705C33.1898 29.0952 32.746 29.5349 32.2034 30.0501L25.6328 36.2893C24.9491 36.9384 24.7793 37.5477 25.2429 38.1898C25.3681 38.3476 25.5186 38.4845 25.6911 38.5885C25.8449 38.6812 26.0158 38.7428 26.193 38.7722C26.3041 38.7906 26.4166 38.8036 26.5292 38.8036H36.511C36.859 38.8036 37.1947 38.6795 37.4478 38.4407C37.7067 38.1963 37.8485 37.8555 37.8465 37.4995C37.8424 36.7568 37.2445 36.1548 36.5018 36.1548H29.516L34.8389 31.1347C35.7247 30.2993 36.5557 29.4003 37.1341 28.3288C37.2586 28.0981 37.3653 27.8531 37.4567 27.6034Z" fill="#038442"/>
<path id="path7639" fill-rule="evenodd" clip-rule="evenodd" d="M11.9578 19.8174C10.6243 19.8182 9.31773 20.1925 8.18601 20.8977C7.05429 21.603 6.14269 22.6111 5.55446 23.8078C8.4382 26.7399 12.504 28.9111 18.6746 29.3656C18.3044 30.3988 17.7011 31.3328 16.9113 32.095C17.6022 31.4294 18.152 30.6315 18.5276 29.7488C18.9033 28.8661 19.0973 27.9168 19.0979 26.9575C19.0979 26.0198 18.9132 25.0913 18.5544 24.2251C18.1956 23.3588 17.6697 22.5717 17.0066 21.9087C16.3436 21.2456 15.5565 20.7197 14.6902 20.3609C13.824 20.0021 12.8955 19.8174 11.9578 19.8174Z" fill="#E42B2C"/>
<path id="path7641" fill-rule="evenodd" clip-rule="evenodd" d="M5.55275 23.8062C5.06981 24.7865 4.81835 25.8646 4.81775 26.9575C4.81775 27.8951 5.00243 28.8236 5.36125 29.6899C5.72007 30.5562 6.24601 31.3433 6.90903 32.0063C7.57204 32.6693 8.35916 33.1952 9.22544 33.5541C10.0917 33.9129 11.0202 34.0976 11.9578 34.0976C13.4284 34.0965 14.8628 33.6415 16.065 32.7945C17.2673 31.9476 18.1786 30.75 18.6746 29.3656C12.5028 28.911 8.4366 26.7391 5.55275 23.8062Z" fill="#AC2126"/>
</g>
<path id="path8504" d="M15.7855 23.6943C15.7077 23.8244 15.6111 23.9422 15.4987 24.0439C15.3656 24.1527 15.2137 24.2362 15.0505 24.2904L15.2072 24.7386L15.6288 24.6219V28.3153H16.301V23.9138L15.8528 23.6943H15.7855ZM8.02103 23.6984C7.74675 23.6984 7.28296 23.9687 7.28296 24.5055V25.0165H7.95071V24.5413C7.95071 24.362 8.04952 24.2723 8.24225 24.2723H8.28698C8.47971 24.2723 8.57818 24.362 8.57818 24.5413V25.3975V25.5006C8.57818 25.5273 8.56909 25.5535 8.55599 25.5767C8.53864 25.6075 8.51652 25.6353 8.49318 25.6617C8.45463 25.7055 8.41188 25.7451 8.36755 25.7829L7.66395 26.3834C7.59635 26.4411 7.53295 26.5038 7.47585 26.5719C7.44019 26.6144 7.41392 26.6651 7.40381 26.7197C7.3982 26.75 7.39596 26.7808 7.39596 26.8115C7.39605 27.3129 7.39596 27.8306 7.39596 28.3379H7.40381H9.22374V27.7821H8.08966V27.1096V26.9887C8.08966 26.9575 8.09514 26.9251 8.11219 26.8989C8.15503 26.833 8.21448 26.7803 8.27367 26.7286L9.02199 26.0741C9.10111 26.0049 9.17973 25.932 9.22374 25.8365C9.25638 25.7658 9.26403 25.6861 9.26403 25.6081V24.501V24.3037C9.26403 24.0004 8.97926 23.6984 8.53449 23.6984H8.02103ZM10.6391 23.6991V23.7005C10.2932 23.7052 10.0007 23.9578 9.94543 24.2993C9.9414 24.3319 9.93941 24.3647 9.93961 24.3976H9.93862V27.6476H9.93961C9.93942 27.6804 9.94133 27.7133 9.94543 27.7459C10.0007 28.0874 10.2932 28.3399 10.6391 28.3447V28.3461H11.3403V28.3447C11.6862 28.3399 11.9788 28.0874 12.034 27.7459C12.0381 27.7133 12.04 27.6804 12.0398 27.6476H12.0409V24.3976H12.0398C12.04 24.3647 12.0381 24.3319 12.034 24.2993C11.9788 23.9578 11.6862 23.7052 11.3403 23.7005V23.6991H10.6391ZM13.773 23.7165L12.4597 26.733L12.6031 27.2529H13.7864V28.3378H14.45V27.2529H14.8399V26.733H14.4545V23.7165H13.773ZM10.9897 24.2672C11.0188 24.2672 11.0478 24.2677 11.0768 24.2685C11.2623 24.274 11.3574 24.3648 11.3574 24.541V27.5042C11.3574 27.6803 11.2623 27.7712 11.0768 27.7766C11.0188 27.7783 10.9607 27.7783 10.9027 27.7766C10.7171 27.7712 10.6221 27.6803 10.6221 27.5042V24.541C10.6221 24.3648 10.7171 24.274 10.9027 24.2685C10.9317 24.2677 10.9607 24.2672 10.9897 24.2672ZM13.827 24.9448H13.8628L13.8089 26.7374H13.1814L13.827 24.9448ZM12.4375 28.4857L12.3119 30.915L13.1859 30.4667L14.0554 32.1743L14.508 31.9907L13.6116 30.2783L14.4814 29.8304L12.4375 28.4857Z" fill="white"/>
</g>
</g>
</g>
</g>
<defs>
<clipPath id="clip0_1224_83524">
<rect width="43.65" height="45" fill="white" transform="translate(0 0.5)"/>
</clipPath>
</defs>
</svg>
