<svg xmlns="http://www.w3.org/2000/svg" width="18" height="18" viewBox="0 0 18 18" fill="none">
  <path d="M8.06241 1.8375C8.58741 1.395 9.43491 1.395 9.94491 1.8375L11.1299 2.85C11.3549 3.0375 11.7824 3.195 12.0824 3.195H13.3574C14.1524 3.195 14.8049 3.8475 14.8049 4.6425V5.9175C14.8049 6.2175 14.9624 6.6375 15.1499 6.8625L16.1624 8.0475C16.6049 8.5725 16.6049 9.42 16.1624 9.93L15.1499 11.115C14.9624 11.34 14.8049 11.76 14.8049 12.06V13.335C14.8049 14.13 14.1524 14.7825 13.3574 14.7825H12.0824C11.7824 14.7825 11.3624 14.94 11.1374 15.1275L9.95241 16.14C9.42741 16.5825 8.57991 16.5825 8.06991 16.14L6.88491 15.1275C6.65991 14.94 6.23241 14.7825 5.93991 14.7825H4.62741C3.83241 14.7825 3.17991 14.13 3.17991 13.335V12.0525C3.17991 11.76 3.02991 11.3325 2.84241 11.115L1.82991 9.9225C1.39491 9.405 1.39491 8.565 1.82991 8.0475L2.84241 6.855C3.02991 6.63 3.17991 6.21 3.17991 5.9175V4.65C3.17991 3.855 3.83241 3.2025 4.62741 3.2025H5.92491C6.22491 3.2025 6.64491 3.045 6.86991 2.8575L8.06241 1.8375Z" stroke="#69CB1C" stroke-linecap="round" stroke-linejoin="round"/>
  <path d="M6.375 11.955L9 6.045L11.625 11.955" stroke="#69CB1C" stroke-linejoin="bevel"/>
  <path d="M10.3125 9.9825H7.6875" stroke="#69CB1C" stroke-linecap="round" stroke-linejoin="round"/>
</svg>