<svg width="14" height="14" viewBox="0 0 14 14" fill="none" xmlns="http://www.w3.org/2000/svg">
<g id="ico">
<g id="copy-success">
<path id="Vector" d="M12.8333 6.47484V4.02484C12.8333 1.98317 12.0166 1.1665 9.97496 1.1665H7.52496C5.48329 1.1665 4.66663 1.98317 4.66663 4.02484V4.6665H6.47496C8.51663 4.6665 9.33329 5.48317 9.33329 7.52484V9.33317H9.97496C12.0166 9.33317 12.8333 8.5165 12.8333 6.47484Z" stroke="#555555" stroke-linecap="round" stroke-linejoin="round"/>
<path id="Vector_2" d="M9.33329 9.97484V7.52484C9.33329 5.48317 8.51663 4.6665 6.47496 4.6665H4.02496C1.98329 4.6665 1.16663 5.48317 1.16663 7.52484V9.97484C1.16663 12.0165 1.98329 12.8332 4.02496 12.8332H6.47496C8.51663 12.8332 9.33329 12.0165 9.33329 9.97484Z" stroke="#555555" stroke-linecap="round" stroke-linejoin="round"/>
<path id="Vector_3" d="M3.54663 8.7498L4.68413 9.8873L6.9533 7.6123" stroke="#555555" stroke-linecap="round" stroke-linejoin="round"/>
</g>
</g>
</svg>
