<svg width="14" height="14" viewBox="0 0 14 14" fill="none" xmlns="http://www.w3.org/2000/svg">
<g id="ico">
<g id="data">
<path id="Vector" d="M11.6667 8.16683C12.311 8.16683 12.8333 7.6445 12.8333 7.00016C12.8333 6.35583 12.311 5.8335 11.6667 5.8335C11.0223 5.8335 10.5 6.35583 10.5 7.00016C10.5 7.6445 11.0223 8.16683 11.6667 8.16683Z" stroke="#195153" stroke-linecap="round" stroke-linejoin="round"/>
<path id="Vector_2" d="M11.6667 3.49984C12.311 3.49984 12.8333 2.9775 12.8333 2.33317C12.8333 1.68884 12.311 1.1665 11.6667 1.1665C11.0223 1.1665 10.5 1.68884 10.5 2.33317C10.5 2.9775 11.0223 3.49984 11.6667 3.49984Z" stroke="#195153" stroke-linecap="round" stroke-linejoin="round"/>
<path id="Vector_3" d="M11.6667 12.8333C12.311 12.8333 12.8333 12.311 12.8333 11.6667C12.8333 11.0223 12.311 10.5 11.6667 10.5C11.0223 10.5 10.5 11.0223 10.5 11.6667C10.5 12.311 11.0223 12.8333 11.6667 12.8333Z" stroke="#195153" stroke-linecap="round" stroke-linejoin="round"/>
<path id="Vector_4" d="M2.33329 8.16683C2.97763 8.16683 3.49996 7.6445 3.49996 7.00016C3.49996 6.35583 2.97763 5.8335 2.33329 5.8335C1.68896 5.8335 1.16663 6.35583 1.16663 7.00016C1.16663 7.6445 1.68896 8.16683 2.33329 8.16683Z" stroke="#195153" stroke-linecap="round" stroke-linejoin="round"/>
<path id="Vector_5" d="M3.5 7H10.5" stroke="#195153" stroke-linecap="round" stroke-linejoin="round"/>
<path id="Vector_6" d="M10.5 2.3335H8.16663C6.99996 2.3335 6.41663 2.91683 6.41663 4.0835V9.91683C6.41663 11.0835 6.99996 11.6668 8.16663 11.6668H10.5" stroke="#195153" stroke-linecap="round" stroke-linejoin="round"/>
</g>
</g>
</svg>
