<svg width="48" height="48" viewBox="0 0 48 48" fill="none" xmlns="http://www.w3.org/2000/svg">
<g id="ico">
<g id="folder-cloud">
<path id="Vector" d="M18 44H14C6 44 4 42 4 34V14C4 6 6 4 14 4H17C20 4 20.66 4.88002 21.8 6.40002L24.8 10.4C25.56 11.4 26 12 28 12H34C42 12 44 14 44 22V26" stroke="#555555" stroke-width="2.5" stroke-miterlimit="10" stroke-linecap="round" stroke-linejoin="round"/>
<g id="Group">
<path id="Vector_2" d="M27.5201 36.6398C22.8201 36.9798 22.8201 43.7798 27.5201 44.1198H38.6401C39.9801 44.1198 41.3001 43.6198 42.2801 42.7198C45.5801 39.8398 43.8201 34.0798 39.4801 33.5398C37.9201 24.1598 24.3602 27.7198 27.5602 36.6598" stroke="#555555" stroke-width="2.5" stroke-miterlimit="10" stroke-linecap="round" stroke-linejoin="round"/>
</g>
</g>
</g>
</svg>
