<svg xmlns="http://www.w3.org/2000/svg" width="17" height="16" viewBox="0 0 17 16" fill="none">
  <path d="M11.0532 7.99995C11.0532 9.31995 9.98657 10.3866 8.66657 10.3866C7.34657 10.3866 6.27991 9.31995 6.27991 7.99995C6.27991 6.67995 7.34657 5.61328 8.66657 5.61328C9.98657 5.61328 11.0532 6.67995 11.0532 7.99995Z" stroke="#222222" stroke-width="1.5" stroke-linecap="round" stroke-linejoin="round"/>
  <path d="M8.66664 13.5133C11.02 13.5133 13.2133 12.1266 14.74 9.72665C15.34 8.78665 15.34 7.20665 14.74 6.26665C13.2133 3.86665 11.02 2.47998 8.66664 2.47998C6.31331 2.47998 4.11998 3.86665 2.59331 6.26665C1.99331 7.20665 1.99331 8.78665 2.59331 9.72665C4.11998 12.1266 6.31331 13.5133 8.66664 13.5133Z" stroke="#195153" stroke-width="1.5" stroke-linecap="round" stroke-linejoin="round"/>
</svg>