<svg width="46" height="46" viewBox="0 0 46 46" fill="none" xmlns="http://www.w3.org/2000/svg">
<g id="NCTB_logo" clip-path="url(#clip0_1224_83550)">
<path id="Vector" d="M43.9382 22.7668C43.9382 34.6349 34.3163 44.2619 22.4437 44.2619C10.571 44.2619 0.949219 34.6349 0.949219 22.7668C0.949219 10.8927 10.571 1.26562 22.4437 1.26562C34.3163 1.26562 43.9382 10.8927 43.9382 22.7668Z" fill="white"/>
<path id="Vector_2" d="M22.7344 32.2955V27.5987L22.7282 27.5802C23.6867 27.4512 24.4288 26.6346 24.4288 25.64C24.4288 24.6331 23.6805 23.8103 22.7097 23.6877V19.7644C22.7097 19.7644 24.4659 19.5128 25.1956 18.9785L28.0277 27.0522C28.0277 27.0522 23.9588 28.7713 22.7344 32.2955Z" fill="#FFD400"/>
<path id="Vector_3" d="M22.1778 32.2955V27.5987L22.184 27.5802C21.2193 27.4512 20.4834 26.6346 20.4834 25.64C20.4834 24.6331 21.2316 23.8103 22.1963 23.6877V19.7644C22.1963 19.7644 20.4463 19.5128 19.7167 18.9785L16.8846 27.0522C16.8846 27.0522 20.9473 28.7713 22.1778 32.2955Z" fill="#FFD400"/>
<path id="Vector_4" d="M12.4695 14.9844V29.2128C12.598 29.2864 13.1229 29.588 13.8609 30.0178C16.3158 31.4414 21.1576 34.2459 21.923 34.6649C21.9237 34.6443 21.9243 34.6198 21.9243 34.5919C21.9182 33.7323 21.6275 29.7108 16.0622 27.4698L16.0128 27.4513L16.0313 27.4022L18.9135 18.7076C18.7411 18.5896 17.9763 18.0684 16.8969 17.4006C15.6878 16.6529 14.0848 15.7272 12.4695 14.9844Z" fill="#231F20"/>
<path id="Vector_5" d="M21.9739 34.7577C21.4667 34.4999 12.4077 29.2443 12.4077 29.2443V14.8897C15.6974 16.3878 18.981 18.6902 18.981 18.6902L16.087 27.4148C22.3633 29.9442 21.9739 34.7577 21.9739 34.7577ZM12.3521 14.8037V29.275L12.383 29.2935C12.383 29.2935 21.4298 34.5491 21.9492 34.8069L22.0296 34.8499L22.0358 34.7639C22.0358 34.7639 22.0358 34.7025 22.0358 34.5919C22.042 33.7166 21.7225 29.6446 16.1579 27.3866L19.0367 18.7084L19.0491 18.6654L19.0181 18.6409C19.0119 18.6409 15.7284 16.3386 12.4325 14.8404L12.3521 14.8037Z" fill="#231F20"/>
<path id="Vector_6" d="M12.4695 29.2128V14.9844C14.0848 15.7274 15.6878 16.653 16.897 17.4008C17.9765 18.0686 18.7411 18.5898 18.9137 18.7078L16.0314 27.4024L16.0129 27.4515L16.0624 27.47C21.6278 29.711 21.9183 33.7325 21.9245 34.5921C21.9245 34.6202 21.9237 34.6447 21.9231 34.6651C21.1578 34.2461 16.316 31.4417 13.861 30.018C13.1229 29.5881 12.598 29.2865 12.4695 29.2128ZM12.4077 14.8896V29.2442C12.4077 29.2442 21.4668 34.4998 21.9739 34.7577C21.9739 34.7577 22.3635 29.9442 16.087 27.4146L18.981 18.69C18.981 18.69 15.6975 16.3877 12.4077 14.8896Z" fill="#231F20"/>
<path id="Vector_7" d="M32.4429 14.9814C30.8309 15.7244 29.2259 16.6515 28.0092 17.4004C26.9187 18.0751 26.1541 18.5997 25.994 18.711L28.8811 27.402L28.8934 27.4512L28.8439 27.4697C23.2847 29.7107 22.988 33.7322 22.988 34.5918C22.988 34.6198 22.9888 34.6436 22.9894 34.6647C23.4881 34.3905 25.713 33.1059 27.8793 31.8533C29.0418 31.1841 30.192 30.5149 31.0515 30.0176C31.7928 29.5858 32.3143 29.2837 32.4429 29.2113V14.9814Z" fill="#231F20"/>
<path id="Vector_8" d="M22.9322 34.7577C22.9322 34.7577 22.5426 29.9442 28.8252 27.4146L25.9251 18.6901C25.9251 18.6901 29.2148 16.3878 32.4984 14.8896V29.2441C32.4984 29.2443 23.4455 34.4999 22.9322 34.7577ZM32.5603 14.8037L32.4737 14.8405C29.184 16.3386 25.8942 18.6411 25.8942 18.6411L25.8571 18.6656L25.8756 18.7086L28.7537 27.3847C23.1904 29.6421 22.8702 33.7106 22.8702 34.592C22.8702 34.7025 22.8764 34.764 22.8764 34.764L22.8826 34.85L22.9568 34.807C23.4763 34.5492 32.5292 29.2936 32.5292 29.2936L32.5601 29.2751V14.8037" fill="#231F20"/>
<path id="Vector_9" d="M25.9939 18.7112C26.154 18.5999 26.9187 18.0754 28.0091 17.4006C29.2259 16.6515 30.8309 15.7244 32.4428 14.9817V29.2114C32.3143 29.2837 31.7929 29.5859 31.0514 30.0177C30.1918 30.515 29.0417 31.1843 27.8792 31.8534C25.7129 33.106 23.4881 34.3905 22.9893 34.6648C22.9886 34.6436 22.988 34.6197 22.988 34.5919C22.988 33.7323 23.2848 29.7107 28.8439 27.4697L28.8934 27.4512L28.881 27.4021L25.9939 18.7112ZM32.4984 14.8896C29.2149 16.3877 25.9251 18.6902 25.9251 18.6902L28.8253 27.4147C22.5426 29.9442 22.9322 34.7578 22.9322 34.7578C23.4455 34.5 32.4984 29.2444 32.4984 29.2444V14.8896Z" fill="#231F20"/>
<path id="Vector_10" d="M16.1391 16.7362C16.1391 16.7362 16.8612 17.2451 18.9898 17.9757C21.0111 18.6674 22.3187 19.1565 22.4479 19.2051L22.4499 19.2105L22.4561 19.2077L22.4595 19.2105L22.4622 19.2051C22.5908 19.1566 23.899 18.6676 25.9203 17.9757C28.0509 17.2451 28.7717 16.7362 28.7717 16.7362C31.406 15.1529 31.0892 13.1125 31.0892 13.1125C29.5838 13.0122 28.4975 13.9803 28.4975 13.9803C28.9358 12.9842 28.8994 11.1941 28.8994 11.1941C27.3287 11.6055 26.4073 12.9113 26.4073 12.9113C26.5708 11.377 26.1056 10.319 26.1056 10.319C24.6381 10.9868 23.7936 12.9051 23.7339 13.0491C23.7044 12.8472 23.6721 12.6535 23.6281 12.4733C23.2626 10.9404 22.4593 10.2637 22.4593 10.2637H22.4496C22.4496 10.2637 21.6464 10.9404 21.2816 12.4733C21.2383 12.6533 21.2047 12.8472 21.1771 13.0491C21.1153 12.9051 20.2722 10.9868 18.8039 10.319C18.8039 10.319 18.3387 11.3771 18.5022 12.9113C18.5022 12.9113 17.5821 11.6056 16.0116 11.1941C16.0116 11.1941 15.9759 12.9842 16.4122 13.9803C16.4122 13.9803 15.3274 13.0122 13.8192 13.1125C13.8196 13.1125 13.5043 15.1529 16.1391 16.7362ZM28.9813 14.0983C29.4733 13.7326 29.9672 13.4222 30.6605 13.44C30.6605 13.44 30.8818 15.3276 27.7768 16.8182C25.4587 17.9328 25.0918 17.896 25.0918 17.896C25.0918 17.896 26.6075 16.8373 27.32 15.9797C28.0317 15.1209 28.4887 14.4625 28.9813 14.0983ZM27.2766 12.5469C27.5693 12.2734 27.9224 11.9719 28.4446 11.7187C28.4446 11.7187 28.604 13.6657 27.1447 15.5281C26.0755 16.8911 24.661 17.8039 23.7719 18.2187C23.7719 18.2187 25.4333 16.0145 26.0358 14.5185C26.5998 13.122 27.0087 12.7965 27.2766 12.5469ZM25.8777 10.866C26.0845 11.6198 26.0598 13.3738 25.5486 14.5901C25.0381 15.8078 23.4064 18.0719 23.4064 18.0719C23.3336 17.9267 23.3582 17.4389 23.5047 16.8801C23.651 16.3193 23.7719 15.833 23.8695 14.1895C23.9794 12.3306 25.8777 10.866 25.8777 10.866ZM22.4499 10.8838H22.4609C22.5201 10.9765 22.5805 11.081 22.6416 11.1969C22.8257 11.5428 23.0064 11.9909 23.1349 12.5497C23.5032 14.1508 23.3582 16.6128 22.4574 18.6068H22.4526C21.5511 16.6128 21.4069 14.1508 21.7745 12.5497C21.9457 11.8053 22.2129 11.2575 22.4499 10.8838ZM19.0331 10.866C19.0331 10.866 20.9301 12.3306 21.0408 14.1897C21.1384 15.833 21.2593 16.3194 21.407 16.8803C21.5513 17.4389 21.5761 17.9268 21.5046 18.0721C21.5046 18.0721 19.8722 15.8079 19.363 14.5903C18.8497 13.3738 18.8249 11.6198 19.0331 10.866ZM16.4649 11.7187C16.9884 11.9719 17.3409 12.2734 17.6329 12.5469C17.9009 12.7967 18.3125 13.122 18.8752 14.5185C19.4792 16.0145 21.1385 18.2187 21.1385 18.2187C20.2502 17.8039 18.8347 16.8911 17.767 15.5281C16.3068 13.6657 16.4649 11.7187 16.4649 11.7187ZM14.2497 13.4398C14.9429 13.4221 15.437 13.7324 15.9296 14.0981C16.4229 14.4625 16.8778 15.1207 17.5902 15.9796C18.3028 16.8371 19.8177 17.8959 19.8177 17.8959C19.8177 17.8959 19.4522 17.9327 17.1347 16.8181C14.0292 15.3275 14.2497 13.4398 14.2497 13.4398Z" fill="#72BF44"/>
<path id="Vector_11" d="M22.4561 0.768066C10.2989 0.768066 0.442139 10.6223 0.442139 22.7789C0.442139 34.9355 10.2989 44.7898 22.4561 44.7898C34.6132 44.7898 44.4638 34.9355 44.4638 22.7789C44.4638 10.6223 34.6132 0.768066 22.4561 0.768066ZM22.4561 43.6232C10.9482 43.6232 1.61708 34.2909 1.61708 22.7789C1.61708 11.2669 10.9484 1.93464 22.4561 1.93464C33.9638 1.93464 43.2951 11.2669 43.2951 22.7789C43.2951 34.2909 33.9639 43.6232 22.4561 43.6232Z" fill="#00AEEF"/>
<path id="Vector_12" d="M11.8573 34.6226C11.8821 34.7945 11.9067 34.9112 11.9254 34.9725L12.08 35.1015L12.2965 35.2735C12.2284 35.3595 12.1172 35.4945 11.9688 35.6603C11.8141 35.8323 11.7091 35.9611 11.6348 36.0533C11.2452 36.5382 11.1896 36.8944 11.4678 37.1155C11.6369 37.2608 11.8492 37.3223 12.0862 37.3223C12.17 37.3223 12.2566 37.314 12.3459 37.2998C12.6613 37.2445 12.8839 37.1157 13.0137 36.913C13.0818 36.8209 13.1065 36.7042 13.0941 36.5875C13.0818 36.4525 13.0199 36.3481 12.9087 36.2744C12.8441 36.2301 12.7754 36.2095 12.7025 36.2095C12.6853 36.2095 12.6668 36.2103 12.6489 36.2129C12.5562 36.2252 12.4881 36.2621 12.4387 36.3234C12.4015 36.3847 12.3954 36.4524 12.4263 36.5261C12.4573 36.5997 12.5129 36.6672 12.5933 36.7164L12.6489 36.7532C12.5624 36.876 12.414 36.9559 12.2037 36.9988C12.1356 37.0132 12.0718 37.02 12.0114 37.02C11.8623 37.02 11.7358 36.9777 11.6348 36.8945C11.5298 36.8147 11.505 36.7349 11.5606 36.6674L12.5004 35.4395C12.8268 35.724 13.1999 35.9457 13.564 36.183C13.5633 36.1168 13.5517 36.0166 13.5399 35.8938C12.9505 35.5115 12.4062 35.0619 11.8573 34.6226Z" fill="#231F20"/>
<path id="Vector_13" d="M14.5045 36.4847C14.5375 36.5038 14.5706 36.5223 14.6034 36.5406L14.6027 36.5378L14.5045 36.4847ZM13.5393 35.8872C13.5393 35.8893 13.54 35.8913 13.54 35.8934C13.6012 35.933 13.6622 35.9719 13.7249 36.01L13.8363 36.3662C13.7469 36.3034 13.6556 36.2428 13.5642 36.1826C13.5642 36.1846 13.5642 36.1867 13.5642 36.188C13.7044 36.2808 13.773 36.3299 13.7799 36.3299C13.7807 36.3299 13.7807 36.3292 13.7807 36.3292C13.8549 36.4642 13.8857 36.587 13.8734 36.7037C13.8611 36.7958 13.8178 36.9063 13.7374 37.0413L12.9644 38.3307L13.1127 38.7052L14.3061 36.6483L14.6957 36.8572L14.695 36.8544C14.6524 36.8312 14.6097 36.8073 14.5659 36.7833C14.5411 36.728 14.4978 36.6121 14.4367 36.4478L14.3989 36.4274L14.4483 36.1879L14.3679 35.9976C14.1948 36.4397 14.0959 36.6852 14.0772 36.7282C14.0401 36.4212 13.9658 36.1817 13.8113 36.0651L13.5393 35.8872Z" fill="#231F20"/>
<path id="Vector_14" d="M13.5399 35.8936C13.5517 36.0164 13.5632 36.1166 13.564 36.1828C13.6554 36.2428 13.7467 36.3035 13.836 36.3663L13.7247 36.0102C13.6623 35.9719 13.6011 35.933 13.5399 35.8936Z" fill="#231F20"/>
<path id="Vector_15" d="M15.4561 38.9821C15.3511 38.583 15.116 38.2453 14.7883 37.9015C15.0563 37.8974 15.3098 37.8837 15.5427 37.8837C15.6754 37.8837 15.8011 37.8879 15.92 37.9015L15.4561 38.9821ZM14.6034 36.5412L14.6949 36.8551C14.8783 36.9568 15.0466 37.0503 15.2026 37.1402C15.4933 37.2937 15.8024 37.4042 16.0991 37.5393L16.0559 37.6375C15.7631 37.6061 15.467 37.5925 15.166 37.5925C14.8816 37.5925 14.5937 37.6041 14.2997 37.6252L14.4543 38.0733C14.7387 38.2943 14.9615 38.5155 15.116 38.7794C15.2707 39.0496 15.3386 39.3321 15.3263 39.6329L15.4438 39.8049L16.1859 37.9998C16.3467 38.0735 16.4702 38.2086 16.5878 38.356C16.6992 38.5094 16.73 38.6629 16.6805 38.8041L16.6496 38.8594C16.6124 38.7981 16.5445 38.7489 16.4579 38.7243C16.4092 38.7072 16.3603 38.6998 16.3116 38.6998C16.2738 38.6998 16.2361 38.7039 16.1982 38.7121C16.1116 38.7366 16.056 38.7796 16.025 38.8532C16.0002 38.9207 16.0127 39.0006 16.0622 39.0866C16.1178 39.1726 16.192 39.2277 16.2848 39.2585C16.3439 39.2789 16.4003 39.2886 16.4538 39.2886C16.5294 39.2886 16.5995 39.2695 16.6682 39.234C16.7733 39.1787 16.8413 39.0989 16.8785 38.9884C16.9527 38.7796 16.9218 38.5463 16.8104 38.2823C16.6867 38.0121 16.5197 37.8157 16.2971 37.7175L16.3281 37.6377C16.3281 37.6369 16.3294 37.6363 16.3308 37.6363C16.3549 37.6363 16.5288 37.7305 16.8785 37.8465C16.9609 37.873 17.0345 37.897 17.0983 37.9181C17.0791 37.856 17.0433 37.7618 17.002 37.65L17.2377 37.725C17.2377 37.7242 17.237 37.7242 17.237 37.7237C16.3212 37.4184 15.4431 37.0105 14.6034 36.5412ZM14.4359 36.4463C14.4359 36.447 14.4366 36.4476 14.4366 36.4483L14.5047 36.4852C14.4819 36.4723 14.4585 36.4593 14.4359 36.4463Z" fill="#231F20"/>
<path id="Vector_16" d="M14.4366 36.4482C14.4978 36.6126 14.5411 36.7287 14.5658 36.7838C14.6098 36.8078 14.6524 36.8315 14.6949 36.8547L14.6035 36.5408C14.5705 36.5223 14.5375 36.504 14.5046 36.4849L14.4366 36.4482Z" fill="#231F20"/>
<path id="Vector_17" d="M17.8368 37.5327C17.7687 38.0117 17.7379 38.2757 17.7255 38.3247C17.6204 38.0177 17.4905 37.8274 17.3112 37.7475L17.2377 37.7244C17.3668 37.9139 17.4287 38.0177 17.4287 38.0362C17.4287 38.0313 17.3174 37.9898 17.0983 37.9175C17.099 37.9203 17.1003 37.9229 17.1011 37.9257C17.2681 37.987 17.3485 38.0117 17.3423 38.0117C17.4474 38.116 17.5093 38.2327 17.5278 38.3432C17.534 38.4353 17.5216 38.552 17.4783 38.6993L17.027 40.1422L17.2557 40.486L17.9236 38.202L18.3564 38.3186L18.1894 38.0362L17.9668 37.9687L17.9607 37.717L17.8368 37.5327Z" fill="#231F20"/>
<path id="Vector_18" d="M17.0021 37.6494C17.0433 37.7612 17.079 37.8554 17.0983 37.9175C17.3176 37.9898 17.4288 38.0314 17.4288 38.0362C17.4288 38.0177 17.367 37.9141 17.2377 37.7244L17.0021 37.6494Z" fill="#231F20"/>
<path id="Vector_19" d="M21.238 40.5658C20.9659 40.2096 20.6073 39.872 20.1621 39.6142C20.595 39.4545 20.9784 39.3747 21.3309 39.2642L21.238 40.5658ZM19.3025 38.2939C19.4076 38.4413 19.488 38.5396 19.5313 38.5886C19.7477 38.6254 20.0074 38.6623 20.3104 38.7053C20.6629 38.7421 21.0092 38.8219 21.3678 38.8219L21.3555 38.9324C20.7556 39.0921 20.1806 39.2149 19.5932 39.4604L19.8406 39.8902C20.5146 40.0621 21.034 40.5471 21.4854 41.2901L21.6276 38.8342L21.8687 38.8451C21.8343 38.843 21.7539 38.8382 21.6276 38.8342C21.5966 38.7735 21.5356 38.6937 21.462 38.5907C20.7357 38.5525 20.0143 38.4237 19.3025 38.2939Z" fill="#231F20"/>
<path id="Vector_20" d="M22.2335 38.2573C22.3016 38.7363 22.3385 39.0003 22.3447 39.0433C22.1592 38.7793 21.9799 38.632 21.7881 38.6011L21.4604 38.5888C21.4612 38.5895 21.4612 38.5901 21.4618 38.5909C21.5621 38.5963 21.6631 38.5997 21.7635 38.6011L22.0355 38.8528L21.8685 38.8453C21.8829 38.846 21.8891 38.8466 21.887 38.8466C22.0169 38.9203 22.1096 39.0124 22.1529 39.1168C22.19 39.2028 22.2085 39.3194 22.2085 39.4729L22.1714 40.9833L22.4867 41.2534L22.5052 38.8713L22.9504 38.8651L22.7092 38.638H22.4743L22.4062 38.3985L22.2335 38.2573Z" fill="#231F20"/>
<path id="Vector_21" d="M21.4619 38.5908C21.5354 38.6938 21.5966 38.7737 21.6274 38.8344C21.7539 38.8385 21.8342 38.8432 21.8685 38.8453L22.0355 38.8527L21.7635 38.6011C21.6632 38.5996 21.5623 38.5962 21.4619 38.5908Z" fill="#231F20"/>
<path id="Vector_22" d="M23.2847 39.9148L23.192 40.3261C23.7238 40.5409 24.2865 40.8664 24.8739 41.1672L24.8491 40.9339C24.3731 40.6209 23.8475 40.2588 23.2847 39.9148ZM23.3405 39.5772C23.2354 39.5772 23.1858 39.5218 23.1797 39.3992C23.1735 39.301 23.2168 39.2027 23.2972 39.1045C23.3776 39.0064 23.4765 38.9572 23.5879 38.951C23.693 38.951 23.7487 39.0124 23.7549 39.1414C23.761 39.2457 23.7239 39.344 23.6435 39.436C23.5631 39.522 23.4579 39.571 23.3405 39.5772ZM23.4786 38.7231C23.4696 38.7231 23.4607 38.7231 23.4517 38.7239C23.2909 38.73 23.1549 38.7975 23.0375 38.9204C22.9138 39.0493 22.8582 39.1782 22.8582 39.3257C22.8582 39.4668 22.9199 39.5835 23.0436 39.688C23.1653 39.7855 23.3034 39.8299 23.4627 39.8299C23.4737 39.8299 23.484 39.8299 23.495 39.8291C23.662 39.823 23.8103 39.7555 23.9279 39.6326C24.0329 39.516 24.0762 39.387 24.0639 39.2458C24.0516 39.0985 23.9897 38.9757 23.8723 38.8714C23.7609 38.7722 23.6282 38.7231 23.4786 38.7231Z" fill="#231F20"/>
<path id="Vector_23" d="M26.0577 38.2705C25.3287 38.4363 24.5818 38.5175 23.8351 38.5891C23.9773 38.6934 24.0825 38.7732 24.1381 38.8039C24.3607 38.7794 24.6266 38.7426 24.9358 38.6996C25.2944 38.6566 25.653 38.6136 26.0055 38.5216L26.1044 39.0005C25.9704 38.8512 25.8454 38.7809 25.7299 38.7809C25.712 38.7809 25.6949 38.7822 25.6777 38.7857C25.5045 38.8225 25.3995 38.9024 25.3562 39.0559C25.2448 38.9822 25.1645 38.9392 25.1151 38.9147C25.0449 38.882 24.975 38.867 24.9042 38.867C24.8822 38.867 24.8596 38.8691 24.8369 38.8718C24.6637 38.8963 24.5215 38.9762 24.4163 39.1175C24.3049 39.2525 24.2617 39.4 24.2741 39.5534C24.2926 39.7499 24.3607 39.9034 24.4906 40.0139C24.6074 40.1244 24.7531 40.1818 24.9309 40.1818C24.9701 40.1818 25.0113 40.179 25.0532 40.1736C25.1582 40.1551 25.2573 40.1182 25.35 40.0631C25.4489 39.9956 25.4922 39.9219 25.4799 39.8359C25.4414 39.6114 25.3287 39.4996 25.1433 39.4996C25.1205 39.4996 25.0966 39.5009 25.0718 39.5044C24.9852 39.5168 24.911 39.5536 24.8554 39.6088C24.7936 39.6701 24.7688 39.7316 24.7749 39.8052L24.8059 39.8912C24.6328 39.8482 24.54 39.7501 24.5215 39.5843C24.5154 39.4921 24.5463 39.4063 24.6266 39.3386C24.7069 39.271 24.8059 39.2281 24.9173 39.2158C24.9386 39.213 24.9598 39.211 24.9818 39.211C25.0897 39.211 25.1983 39.2506 25.3069 39.3325C25.4491 39.4553 25.5604 39.5534 25.6284 39.6209C25.5851 39.2833 25.6222 39.1113 25.7334 39.0868C25.7499 39.0827 25.7665 39.0807 25.7836 39.0807C25.8441 39.0807 25.9086 39.1052 25.9808 39.1482C26.0736 39.2095 26.123 39.271 26.1355 39.3323L26.3952 40.5971L26.7787 40.7874L26.2592 38.4604L26.3135 38.4481C26.3038 38.4501 26.2943 38.4522 26.284 38.4542C26.2296 38.4124 26.1581 38.3475 26.0577 38.2705Z" fill="#231F20"/>
<path id="Vector_24" d="M26.7043 37.7417C26.896 38.1838 27.0073 38.4232 27.0258 38.4723C26.7991 38.2854 26.6067 38.1919 26.4274 38.1919C26.4061 38.1919 26.3849 38.1932 26.3642 38.196L26.0488 38.2635C26.0516 38.2656 26.0543 38.2683 26.0578 38.2703C26.1436 38.2504 26.2296 38.23 26.3147 38.2082L26.661 38.3678L26.3134 38.4477C26.4659 38.4149 26.5367 38.3985 26.5312 38.3985C26.6795 38.4415 26.7909 38.5028 26.8651 38.5888C26.9207 38.6625 26.9765 38.773 27.0135 38.9203L27.3969 40.3815L27.7742 40.5412L27.131 38.251L27.4986 38.1331C27.4525 38.1467 27.41 38.1596 27.3721 38.1712C27.3103 38.1527 27.1928 38.1037 27.032 38.0362C27.0333 38.0355 27.0354 38.0349 27.0368 38.0341L26.9021 37.8274L26.7043 37.7417Z" fill="#231F20"/>
<path id="Vector_25" d="M26.3147 38.208C26.2294 38.2299 26.1436 38.2503 26.0577 38.2701C26.1581 38.3471 26.2296 38.412 26.2837 38.4536C26.294 38.4516 26.3037 38.4495 26.3132 38.4475L26.6608 38.3677L26.3147 38.208Z" fill="#231F20"/>
<path id="Vector_26" d="M28.5917 37.5091C28.086 37.7239 27.5507 37.8495 27.0369 38.0344L27.0382 38.0365L27.2546 37.9628L27.5515 38.1163L27.4985 38.1333C27.5728 38.1109 27.6573 38.0856 27.7493 38.0548C27.8976 38.0057 28.0646 37.9505 28.2564 37.889C27.9596 38.2881 27.8791 38.7486 28.0461 39.2766C28.1265 39.5222 28.2811 39.7187 28.5223 39.8537C28.6817 39.9458 28.8535 40.0004 29.0315 40.0004C29.1511 40.0004 29.2726 39.9759 29.3942 39.9213C29.5179 39.8722 29.6168 39.7924 29.6786 39.688C29.7404 39.5837 29.7529 39.4792 29.7157 39.3872C29.6848 39.3074 29.623 39.2582 29.5364 39.2276C29.5028 39.218 29.4691 39.2132 29.4334 39.2132C29.3778 39.2132 29.3194 39.2255 29.2582 39.2521C29.1716 39.2889 29.1035 39.3442 29.0604 39.424C29.0109 39.5039 28.9986 39.5714 29.0233 39.6389C29.0418 39.688 29.085 39.731 29.147 39.7617L29.0481 39.7985C29.0186 39.8081 28.9883 39.8129 28.9574 39.8129C28.8467 39.8129 28.7299 39.7529 28.609 39.6329C28.4853 39.51 28.3987 39.3812 28.3555 39.2522C28.2689 39.0006 28.3122 38.7058 28.4482 38.3804C28.5904 38.055 28.7635 37.7665 29.0048 37.5885C29.0048 37.5878 29.004 37.5878 29.0035 37.5872L28.9368 37.6131C28.8749 37.6005 28.7581 37.5637 28.5917 37.5091ZM28.677 37.4717C28.655 37.482 28.6329 37.4908 28.6103 37.5003C28.6344 37.4915 28.6577 37.4818 28.6811 37.473C28.6798 37.4723 28.6783 37.4723 28.677 37.4717Z" fill="#231F20"/>
<path id="Vector_27" d="M27.2547 37.9624L27.0383 38.0361L27.0369 38.034C27.0356 38.0347 27.0336 38.0353 27.0321 38.0361C27.1929 38.1036 27.3103 38.1527 27.3722 38.1712C27.4101 38.1596 27.4527 38.1467 27.4987 38.1331L27.5517 38.116L27.2547 37.9624Z" fill="#231F20"/>
<path id="Vector_28" d="M28.6103 37.5C28.6034 37.5028 28.5972 37.5054 28.5903 37.5082C28.5911 37.5082 28.5911 37.5082 28.5917 37.509C28.598 37.5062 28.6041 37.5028 28.6103 37.5ZM30.7443 36.4849C30.0745 36.8498 29.3936 37.1923 28.681 37.4727C28.8823 37.5355 28.9915 37.577 29.0033 37.5866L29.0788 37.5572L29.2643 37.4774L29.8022 38.6992L30.2351 38.822C30.2661 38.3062 30.4454 37.8274 30.8225 37.4589C30.9029 37.6922 30.9647 37.8519 31.008 37.9317C31.1379 38.1834 31.3605 38.4843 31.6883 38.822L31.9727 38.7606C31.7439 38.5826 31.5769 38.3923 31.4655 38.1897C31.379 38.0362 31.3233 37.852 31.2862 37.6494C31.2429 37.3669 31.2058 37.1766 31.1873 37.0784L30.6679 37.0231C30.5318 37.1951 30.402 37.3914 30.2721 37.6247C30.1979 37.7597 30.0928 37.987 29.932 38.251L29.5239 37.3669C30.0612 37.1207 30.5874 36.8457 31.0972 36.5436C31.0617 36.5374 30.9423 36.5306 30.7443 36.4849Z" fill="#231F20"/>
<path id="Vector_29" d="M28.681 37.4727C28.6577 37.4815 28.6343 37.4911 28.6103 37.5C28.6041 37.5027 28.598 37.5061 28.5918 37.5088C28.7581 37.5633 28.8749 37.6002 28.9368 37.6125L29.0034 37.5865C28.9917 37.577 28.8823 37.5355 28.681 37.4727Z" fill="#231F20"/>
<path id="Vector_30" d="M31.1661 36.5005L31.14 36.5182C31.1497 36.5121 31.1592 36.5067 31.1689 36.5012L31.1661 36.5005Z" fill="#231F20"/>
<path id="Vector_31" d="M31.1401 36.5183C31.1257 36.5265 31.1111 36.5353 31.0975 36.5435C31.0982 36.5435 31.0996 36.5442 31.1009 36.5442L31.1401 36.5183ZM32.6839 34.9355L32.3747 34.9479L32.888 35.6171C32.7231 35.5598 32.5809 35.5306 32.46 35.5306C32.3355 35.5306 32.2333 35.5612 32.1521 35.6233C32.084 35.6846 32.0223 35.7768 31.9666 35.9119L31.8924 36.2374C31.7364 36.1583 31.5963 36.118 31.4733 36.118C31.3757 36.118 31.2884 36.1432 31.2123 36.1944L30.8783 36.4092L30.7361 36.4829C30.7389 36.4836 30.7415 36.4842 30.7443 36.485C30.7643 36.4741 30.7842 36.4631 30.804 36.4522L31.1662 36.5007L31.2123 36.4706C31.3112 36.4092 31.4039 36.3784 31.4966 36.3724C31.5043 36.3717 31.5131 36.3711 31.522 36.3711C31.5838 36.3711 31.6732 36.3896 31.781 36.4216C31.7192 36.5197 31.6759 36.6364 31.6511 36.7715C31.6202 36.9189 31.6263 37.0294 31.6696 37.1092C31.7129 37.1767 31.781 37.2135 31.8676 37.2197C31.9603 37.2197 32.0469 37.1952 32.1273 37.146C32.2695 37.0539 32.3561 36.925 32.3809 36.7531C32.4413 36.768 32.4997 36.7755 32.5548 36.7755C32.6572 36.7755 32.7479 36.7495 32.8199 36.6977C33.0054 36.5566 33.024 36.3908 32.8755 36.1943C32.8384 36.1451 32.7518 36.1144 32.6158 36.1083L32.3066 36.1206C32.3066 35.9733 32.3438 35.8566 32.4427 35.783C32.4675 35.7645 32.5059 35.7549 32.5595 35.7549C32.6124 35.7549 32.6804 35.7645 32.7642 35.783C32.9312 35.8136 33.0362 35.8566 33.0672 35.8996L34.0009 37.1154C34.0401 37.1112 34.0813 37.1092 34.1238 37.1092C34.2173 37.1092 34.3196 37.1187 34.4338 37.1399L32.9435 35.2672L33.3021 34.9847L32.9248 34.9785L32.795 35.0767L32.6839 34.9355Z" fill="#231F20"/>
<path id="Vector_32" d="M30.8042 36.4521C30.7843 36.463 30.7643 36.474 30.7445 36.4849C30.9423 36.5305 31.0619 36.5374 31.0977 36.5436C31.1115 36.5353 31.1259 36.5265 31.1403 36.5183L31.1664 36.5006L30.8042 36.4521Z" fill="#231F20"/>
<path id="Vector_33" d="M4.71517 24.6455L4.42448 25.1121C4.54818 25.2963 4.61612 25.4866 4.65325 25.6831C4.68421 25.8428 4.69037 25.9962 4.66557 26.1621C4.63461 26.3585 4.5542 26.469 4.43681 26.4997L4.29462 26.4567C4.25133 26.2234 4.17708 25.9409 4.12146 25.6094L4.0252 24.9C3.96401 24.9559 3.87817 25.0467 3.76269 25.1735L3.72703 24.8644L3.72571 24.8665C3.86174 26.2172 4.22653 27.5311 4.64092 28.8144C4.7275 28.5995 4.78311 28.4521 4.80791 28.3784C4.77078 28.2372 4.72133 28.0714 4.65955 27.8749C4.60394 27.6785 4.52969 27.4575 4.4616 27.2057C4.6553 27.368 4.86763 27.4444 5.08891 27.4444C5.18576 27.4444 5.28334 27.43 5.38298 27.4021C5.5438 27.353 5.66736 27.261 5.75393 27.1075C5.84051 26.9663 5.86531 26.8128 5.82818 26.6409C5.81586 26.561 5.7601 26.4567 5.66736 26.3216C5.58078 26.1866 5.53133 26.0944 5.519 26.0514L5.56846 25.9103L5.70448 25.8181C5.72033 25.8147 5.73603 25.8133 5.75188 25.8133C5.85357 25.8133 5.95599 25.8802 6.06311 26.0023C6.16818 26.1251 6.2301 26.2479 6.26106 26.3891C6.32284 26.7205 6.19929 27.0153 5.85915 27.3223C5.61174 27.5371 5.30257 27.7215 4.92545 27.8811L4.90696 28.1389L5.29655 28.0099C5.67998 27.8933 6.00765 27.6661 6.28601 27.3592C6.62615 26.9908 6.73122 26.6409 6.65697 26.2662C6.60751 26.0268 6.49614 25.8364 6.31682 25.6953C6.17596 25.584 6.01938 25.5302 5.84418 25.5302C5.79678 25.5302 5.74865 25.5336 5.69847 25.5418C5.58093 25.5663 5.45106 25.64 5.30271 25.7689C5.13572 25.9101 5.06162 26.0391 5.08627 26.1557C5.30887 26.4136 5.4449 26.6347 5.48203 26.825C5.51299 26.9662 5.48203 27.046 5.38312 27.0767C5.3529 27.0849 5.31724 27.089 5.27601 27.089C5.19016 27.089 5.08158 27.0712 4.95655 27.0337C4.74628 26.9784 4.62258 26.9109 4.5856 26.831L4.60409 26.8004C4.93807 26.3891 5.03697 25.9408 4.95039 25.419L4.9319 25.2778C5.07893 25.3337 5.25135 25.3623 5.44446 25.3623C5.56816 25.3623 5.70081 25.3507 5.84095 25.3268C6.22438 25.2655 6.57068 25.1365 6.88602 24.9585L6.92315 24.6699C6.64493 24.8479 6.3852 24.9585 6.14397 24.9953C6.04228 25.0103 5.94191 25.0178 5.843 25.0178C5.45239 25.0179 5.07996 24.9 4.71517 24.6455Z" fill="#231F20"/>
<path id="Vector_34" d="M3.89264 23.2397L3.88853 23.2446C3.89191 23.3278 3.89543 23.4076 3.8988 23.4854C3.84935 23.5529 3.76278 23.6819 3.62059 23.8722C3.62059 23.8681 3.61985 23.864 3.61985 23.8599L3.33606 23.9827L3.1814 24.2283C3.76263 24.0687 4.09044 23.995 4.14606 23.9827C3.83688 24.2405 3.70702 24.4985 3.71318 24.7501L3.72697 24.8647L3.96674 24.4677L4.02515 24.9001C4.02647 24.8994 4.0272 24.898 4.02852 24.8973C4.00519 24.6872 3.98729 24.5774 3.99066 24.5774C3.99066 24.5774 3.9914 24.5774 3.9914 24.5782C4.05317 24.4002 4.14606 24.2712 4.26961 24.1975C4.36235 24.1484 4.5107 24.1115 4.70249 24.0932L6.5762 23.9274L6.87922 23.6019L3.91729 23.8045L3.89264 23.2397Z" fill="#231F20"/>
<path id="Vector_35" d="M3.96694 24.4673L3.72717 24.8644L3.76283 25.1734C3.87831 25.0465 3.96416 24.9558 4.02535 24.8999L3.96694 24.4673Z" fill="#231F20"/>
<path id="Vector_36" d="M5.28677 20.2242C5.05316 20.2242 4.83393 20.2911 4.62234 20.4275C4.31932 20.6178 4.18946 20.8879 4.17097 21.2317C4.15864 21.4774 4.20809 21.686 4.31932 21.8457C4.43069 22.0298 4.59754 22.122 4.80165 22.1282C4.93768 22.1282 5.06138 22.0728 5.16644 21.9623C5.27782 21.8519 5.33343 21.729 5.3396 21.5879C5.34576 21.4529 5.30863 21.3362 5.22206 21.2256C5.13548 21.1212 5.03658 21.0598 4.91288 21.0476C4.90393 21.0468 4.89439 21.0468 4.88544 21.0468C4.78448 21.0468 4.68969 21.0782 4.60986 21.1457L4.59137 21.0229C4.6037 20.8449 4.67795 20.7036 4.86343 20.6055C4.9974 20.5284 5.13137 20.4901 5.26535 20.4901C5.2922 20.4901 5.31891 20.4922 5.34576 20.495C5.54987 20.5195 5.69206 20.6361 5.80329 20.8388C5.90836 21.0229 5.95795 21.2194 5.94548 21.4404C5.92699 21.8334 5.68575 22.1587 5.20958 22.4718C5.0426 22.5885 4.85712 22.699 4.653 22.8095L4.0593 23.1103L3.99752 23.3989C4.59739 23.2086 5.09821 22.9691 5.50013 22.6867C6.05671 22.2937 6.38438 21.87 6.40301 21.3604C6.4215 21.0903 6.31027 20.8446 6.13712 20.6236C5.95781 20.4027 5.7352 20.2737 5.46931 20.2368C5.40768 20.2283 5.34664 20.2242 5.28677 20.2242ZM4.06928 19.8271L3.73266 20.1197C3.73266 20.1205 3.73266 20.1205 3.73266 20.1211C3.75672 20.1218 3.78137 20.1231 3.80617 20.1265L3.75056 20.4948L3.69421 20.4443C3.57051 21.5782 3.54997 22.7235 3.61996 23.8594H3.6207L3.60837 23.5586L3.88864 23.2441C3.87015 22.8409 3.85152 22.3744 3.89275 21.8395C3.91535 21.167 3.95864 20.495 4.06928 19.8271Z" fill="#231F20"/>
<path id="Vector_37" d="M3.88855 23.2446L3.60828 23.5591L3.6206 23.8599H3.61987C3.61987 23.864 3.6206 23.8681 3.6206 23.8722C3.76279 23.6819 3.84937 23.5529 3.89882 23.4854C3.89544 23.4077 3.89192 23.3278 3.88855 23.2446Z" fill="#231F20"/>
<path id="Vector_38" d="M4.31733 18.4502C4.26172 18.4502 4.12422 18.5614 3.93596 18.8009C3.95181 18.7334 3.96692 18.6658 3.98262 18.5983C3.97983 18.6003 3.97573 18.6024 3.97294 18.6044C3.94198 18.6904 3.92349 18.8071 3.91116 18.9606C3.44115 18.9974 3.05156 19.1815 2.73622 19.5193C2.42088 19.8631 2.17964 20.3421 2.16731 20.9437C2.14882 21.2384 2.17964 21.5209 2.24156 21.7787C2.3343 22.1225 2.47649 22.2945 2.67444 22.2945C2.67723 22.2945 2.68061 22.2945 2.68339 22.2945C3.0118 22.2945 3.20696 21.9568 3.27431 21.2937C3.30527 21.0236 3.32376 20.8394 3.33609 20.7349C3.36016 20.4532 3.46111 20.3236 3.55253 20.3236C3.55458 20.3236 3.55664 20.3236 3.55869 20.3236L3.69399 20.4451C3.70573 20.3373 3.71879 20.2296 3.73243 20.1217C3.72216 20.121 3.71248 20.1204 3.70294 20.1204C3.30997 20.1204 3.0228 20.4199 2.97115 21.042L2.9217 21.613C2.88457 21.9016 2.81663 22.0428 2.72389 22.0428C2.62499 22.0366 2.55074 21.8832 2.50745 21.57C2.47649 21.3429 2.47033 21.1279 2.47649 20.9254C2.48882 20.4526 2.6743 20.0596 2.92786 19.7527C3.18143 19.4457 3.49677 19.2922 3.8554 19.286C3.81827 19.4825 3.77499 19.7588 3.7317 20.121L3.73243 20.1202C3.73786 20.0739 3.74417 20.0268 3.75033 19.9797L4.1028 19.6358C4.09106 19.7 4.08006 19.7634 4.0692 19.8275L4.07815 19.82L4.14624 19.3595L6.70624 19.8323L7.1268 19.5745L4.20185 19.0219C4.22386 18.8295 4.26568 18.6379 4.31865 18.4502C4.31792 18.4502 4.31792 18.4502 4.31733 18.4502Z" fill="#231F20"/>
<path id="Vector_39" d="M3.73266 20.1214C3.71887 20.2293 3.70581 20.337 3.69421 20.4449L3.75056 20.4953L3.80618 20.127C3.78138 20.1235 3.75672 20.122 3.73266 20.1214ZM4.10303 19.6357L3.75056 19.9795C3.7444 20.0267 3.73824 20.0738 3.73266 20.1201L4.06928 19.8275C4.08028 19.7633 4.09129 19.6999 4.10303 19.6357Z" fill="#231F20"/>
<path id="Vector_40" d="M6.89177 17.8059C6.83879 17.8059 6.7867 17.8224 6.7371 17.8551C6.66285 17.9104 6.6134 17.9779 6.58875 18.0639C6.57026 18.1437 6.58259 18.2236 6.62587 18.2972C6.67533 18.3709 6.73094 18.42 6.81135 18.4384C6.83821 18.4466 6.86491 18.4507 6.89177 18.4507C6.94533 18.4507 6.99889 18.4343 7.05259 18.4016C7.12684 18.3524 7.17629 18.2849 7.19478 18.1989C7.21958 18.1252 7.20711 18.0454 7.15766 17.9656C7.10821 17.8919 7.05259 17.8428 6.97218 17.8183C6.94533 17.81 6.91862 17.8059 6.89177 17.8059ZM4.5482 17.542C4.54203 17.5296 4.56669 17.4315 4.61628 17.2411C4.65341 17.0385 4.76464 16.75 4.9193 16.3632L7.04027 17.1061C6.55793 17.2105 6.12505 17.4684 5.8282 17.9043C5.62409 17.5113 5.46957 17.1981 5.40765 16.9895C5.25929 17.0325 5.09847 17.1061 4.94381 17.2228C4.86354 17.278 4.73368 17.3823 4.5482 17.542ZM5.22217 15.5649L4.81409 15.7983C4.44445 16.6981 4.20468 17.647 3.98267 18.5979C4.04723 18.559 4.16682 18.4826 4.33792 18.3831C4.33102 18.4049 4.32486 18.4274 4.3187 18.45C4.32149 18.45 4.32354 18.45 4.32559 18.4507L4.35039 18.4752C4.72766 17.8736 4.97491 17.5175 5.10478 17.3885C5.35218 17.9901 5.51286 18.3524 5.58095 18.5244L6.06944 18.3156C6.26108 17.8551 6.47136 17.5604 6.78054 17.4621L7.62766 17.1797L7.68328 17.1735L7.64615 17.2103L7.83779 17.0998L5.01806 16.0561C5.03669 16.0439 5.10463 15.8842 5.22217 15.5649Z" fill="#231F20"/>
<path id="Vector_41" d="M4.33795 18.3833C4.16686 18.4829 4.04726 18.5592 3.9827 18.5981C3.96685 18.6656 3.95174 18.7331 3.93604 18.8008C4.1243 18.5613 4.26165 18.4501 4.31741 18.4501C4.31814 18.4501 4.31814 18.4501 4.31873 18.4501C4.32489 18.4276 4.33106 18.4052 4.33795 18.3833Z" fill="#231F20"/>
<path id="Vector_42" d="M7.20712 10.647C6.74959 10.776 6.39712 10.911 6.16821 11.0338C5.78478 11.2179 5.51889 11.5066 5.31492 11.8381C5.15409 12.0959 5.06752 12.409 5.06135 12.759C5.04903 13.1396 5.17889 13.3974 5.37053 13.5019C5.41588 13.5244 5.47354 13.5354 5.54369 13.5354C5.62747 13.5354 5.72916 13.5197 5.8467 13.4897C5.75396 13.6677 5.63026 13.9257 5.47575 14.2634L5.8963 14.073L6.13123 13.5881L8.45014 14.8528L8.86439 14.7423L6.31671 13.2809L6.5578 12.8839C6.50761 12.8988 6.36132 12.9534 6.11876 13.0415L6.17921 12.9392C6.12976 13.0061 6.06857 13.1043 5.99505 13.2379C5.85286 13.2318 5.75396 13.2196 5.6982 13.1888C5.54985 13.1028 5.48176 12.9125 5.50656 12.6055C5.52505 12.323 5.5993 12.0837 5.71684 11.8872C5.98889 11.4022 6.60725 11.0461 7.4174 10.8128L7.20712 10.647Z" fill="#231F20"/>
<path id="Vector_43" d="M8.57997 10.1436L8.5766 10.1443L8.46874 10.2602C8.38906 10.2725 8.23645 10.3025 8.00563 10.3387L7.96778 10.383L7.78846 10.2295L7.40503 10.3585L8.22134 11.0216C8.15267 11.0149 8.08737 11.0114 8.02559 11.0114C7.70262 11.0114 7.47312 11.1041 7.34325 11.2795C7.27517 11.3716 7.23819 11.5128 7.23188 11.6969C7.23188 11.8504 7.25037 11.9916 7.28749 12.1144C7.23731 12.1096 7.18991 12.1077 7.14457 12.1077C6.82923 12.1077 6.61969 12.2181 6.48982 12.4275L6.22393 12.8635L6.17932 12.9392C6.18005 12.9385 6.18005 12.9379 6.18064 12.9372C6.26105 12.9065 6.40324 12.8573 6.60736 12.8022L6.55791 12.8841C6.55996 12.8833 6.56202 12.8827 6.56407 12.882L6.65065 12.7347C6.7249 12.6119 6.81147 12.5198 6.91037 12.4707C6.98462 12.4277 7.09585 12.397 7.25052 12.3785C7.23819 12.5259 7.25052 12.6732 7.29997 12.8328C7.34942 13.0108 7.42367 13.1275 7.51641 13.189C7.56718 13.221 7.61736 13.2367 7.67166 13.2367C7.7101 13.2367 7.7506 13.2284 7.79462 13.2135C7.89353 13.1828 7.97394 13.1153 8.02955 13.0232C8.11613 12.8635 8.14093 12.6917 8.09133 12.4952C8.30777 12.4829 8.45612 12.4092 8.55517 12.2864C8.70352 12.0837 8.66024 11.8934 8.41298 11.7031C8.37454 11.6765 8.31672 11.6614 8.23983 11.6614C8.19317 11.6614 8.13946 11.6669 8.079 11.6784L7.72037 11.8013C7.64612 11.6354 7.6586 11.4881 7.75134 11.3591C7.80079 11.2978 7.93065 11.2608 8.14093 11.2548C8.17659 11.2528 8.2096 11.2514 8.24056 11.2514C8.38833 11.2514 8.48444 11.2746 8.53052 11.3101L10.0208 12.5074C10.1033 12.4876 10.1926 12.476 10.2956 12.476C10.3561 12.476 10.4207 12.4801 10.4908 12.4889L8.19654 10.5734L8.57997 10.1436Z" fill="#231F20"/>
<path id="Vector_44" d="M6.60739 12.8022C6.40328 12.8576 6.26109 12.9066 6.18067 12.9374C6.17994 12.9381 6.17994 12.9387 6.17935 12.9394L6.1189 13.0417C6.36146 12.9537 6.50775 12.8991 6.55794 12.8841L6.60739 12.8022Z" fill="#231F20"/>
<path id="Vector_45" d="M10.1823 9.22418C10.2022 9.22418 10.2228 9.22418 10.2434 9.22286C10.4784 9.20437 10.6887 9.11853 10.8741 8.95887L11.5419 9.73864C11.4108 9.69433 11.2774 9.66968 11.1434 9.66968C11.0561 9.66968 10.9682 9.67995 10.8803 9.70167C10.7071 9.51751 10.4845 9.41919 10.2063 9.41303C10.1925 9.41303 10.1789 9.4123 10.1644 9.4123C9.92253 9.4123 9.66001 9.4641 9.41481 9.60335L9.39001 9.62169C9.26631 9.59719 9.17357 9.57254 9.11179 9.56036L9.32207 9.32704L9.63741 9.03841C9.79472 9.1668 9.97814 9.22418 10.1823 9.22418ZM10.1966 8.94508C10.0832 8.94508 9.99399 8.90619 9.92179 8.82974L9.91563 8.79291L10.1134 8.60875L10.3732 8.37544L10.6762 8.73157L10.6391 8.76224C10.534 8.86041 10.4103 8.91573 10.2681 8.94024C10.2433 8.94376 10.22 8.94508 10.1966 8.94508ZM11.4307 7.16602C10.1384 8.05628 9.03138 9.1737 7.99878 10.3403C8.00083 10.3395 8.00289 10.3395 8.00568 10.339L8.10399 10.2236L8.57664 10.1445L8.61714 10.1008L8.81494 9.88597C8.92426 9.8757 9.00864 9.871 9.07188 9.871C9.12339 9.871 9.16125 9.87438 9.1859 9.87981C9.04987 10.0946 9.05603 10.2666 9.20439 10.4016C9.2848 10.4753 9.3837 10.5121 9.50124 10.5183C9.50887 10.519 9.51562 10.519 9.52325 10.519C9.63037 10.519 9.71636 10.476 9.79193 10.3956C9.86002 10.3219 9.89699 10.2359 9.89699 10.1316C9.89699 10.0334 9.85987 9.94745 9.79809 9.87995L9.73632 9.82463L9.7548 9.79396L9.77329 9.77562C9.86603 9.68963 9.98357 9.64062 10.1196 9.63446C10.2495 9.63446 10.3607 9.67129 10.4411 9.76344L10.5029 9.83711C10.3915 9.91693 10.3236 10.0151 10.2926 10.1441C10.2616 10.2669 10.2926 10.3774 10.3792 10.4634C10.4473 10.5255 10.5255 10.5561 10.6238 10.5561C10.6327 10.5561 10.6417 10.5561 10.6512 10.5554C10.7563 10.5554 10.8553 10.5247 10.9295 10.4511C11.0841 10.3099 11.1274 10.1502 11.0655 9.97211C11.1116 9.96726 11.1554 9.96536 11.1981 9.96536C11.3877 9.96536 11.5499 10.0091 11.6963 10.0888L12.2158 10.3957L12.3395 10.4081L12.4878 10.4142L11.0841 8.71969L11.214 8.59071C11.3377 8.49239 11.4737 8.43105 11.6036 8.40655C11.6407 8.3998 11.675 8.39628 11.7073 8.39628C11.8159 8.39628 11.899 8.43516 11.956 8.51088L11.9745 8.54155L11.9807 8.56004C11.9532 8.55123 11.9251 8.54712 11.8969 8.54712C11.8234 8.54712 11.7471 8.57574 11.6715 8.6337C11.5973 8.68902 11.5478 8.76268 11.5293 8.85469C11.5108 8.94684 11.5293 9.0205 11.5788 9.088C11.6405 9.16783 11.7334 9.20466 11.8447 9.21082C11.8543 9.21156 11.8639 9.21156 11.8736 9.21156C11.9786 9.21156 12.0687 9.18089 12.1477 9.12498C12.2714 9.02681 12.3393 8.91016 12.3332 8.76268C12.3393 8.6337 12.2899 8.50486 12.1971 8.37588C12.0872 8.22107 11.9292 8.14124 11.7279 8.14124C11.7135 8.14124 11.6989 8.14198 11.6838 8.14256C11.4736 8.14256 11.2696 8.22239 11.084 8.36355L10.9047 8.52937L10.6016 8.16707L11.6083 7.40505C11.5279 7.37497 11.4049 7.3443 11.2448 7.30747L11.431 7.16631H11.4307" fill="#231F20"/>
<path id="Vector_46" d="M8.57645 10.144L8.10381 10.2231L8.00549 10.3385C8.23631 10.3024 8.38892 10.2723 8.4686 10.26L8.57645 10.144Z" fill="#231F20"/>
<path id="Vector_47" d="M11.7955 6.34326C12.2161 6.77922 12.4387 7.02472 12.4695 7.07388C12.273 6.99405 12.0978 6.95516 11.9452 6.95516C11.8058 6.95516 11.6855 6.98789 11.5851 7.04937L11.4312 7.16603L11.8756 7.20286L11.6084 7.40477C11.6091 7.40551 11.6091 7.4055 11.6097 7.4055C11.789 7.27051 11.8756 7.20902 11.8695 7.20902C11.9217 7.20022 11.9719 7.19611 12.0193 7.19611C12.1395 7.19611 12.2447 7.2234 12.3333 7.27667C12.4322 7.33801 12.5313 7.44865 12.6363 7.61431L13.6814 9.17987L14.1143 9.29653L12.5189 6.78524L13.0013 6.49059L12.9972 6.48985C12.9264 6.53211 12.8535 6.57511 12.7787 6.61942C12.6982 6.61326 12.5499 6.58876 12.3211 6.55809C12.3224 6.55735 12.3232 6.55677 12.3245 6.55603L12.086 6.35544L11.7955 6.34326Z" fill="#231F20"/>
<path id="Vector_48" d="M11.4312 7.16602L11.245 7.30718C11.4051 7.34401 11.5281 7.37468 11.6085 7.40476L11.8757 7.20285L11.4312 7.16602Z" fill="#231F20"/>
<path id="Vector_49" d="M14.0648 7.11682C14.306 6.69934 14.5842 6.3617 14.8625 6.07922L15.4808 7.41763C15.1552 7.21572 14.7703 7.10038 14.3443 7.10038C14.2531 7.10038 14.1597 7.10581 14.0648 7.11682ZM15.7661 4.82666C14.5561 5.27011 13.4087 5.87041 12.3245 6.55598L12.3273 6.55803L12.5808 6.39838L12.9971 6.4898C13.2039 6.36698 13.3957 6.25179 13.5701 6.14672L14.677 5.60643L14.7326 5.72309C14.207 6.19588 13.7803 6.74835 13.5144 7.44228L14.04 7.58961C14.1939 7.51873 14.3712 7.4866 14.5622 7.4866C14.701 7.4866 14.8473 7.50362 14.9985 7.53429C15.3262 7.60179 15.6045 7.71844 15.8456 7.89042C15.7529 7.86856 15.6601 7.85697 15.57 7.85697C15.5096 7.85697 15.4512 7.8624 15.3941 7.87193C15.3014 7.89042 15.1529 7.93943 14.9489 8.01926C14.6507 8.12711 14.4576 8.21031 14.3395 8.21031C14.3031 8.21031 14.2734 8.2021 14.2501 8.18508C14.1387 8.11141 14.0585 8.03159 14.0089 7.95176L13.9161 7.79211C13.91 7.79211 13.8234 7.78595 13.6564 7.7676L13.6687 7.87193L13.7492 8.00693C13.8048 8.08676 13.8357 8.12975 13.8419 8.13592C13.9923 8.38831 14.1826 8.50702 14.419 8.50702C14.5908 8.50702 14.7873 8.44495 15.0105 8.32624C15.2641 8.20342 15.4496 8.12975 15.5671 8.09292C15.6742 8.05888 15.7636 8.04244 15.8371 8.04244C15.9505 8.04244 16.024 8.08206 16.0618 8.16042L16.1483 8.13592L15.1652 5.91341C15.2723 5.8622 15.3871 5.83769 15.5066 5.83769C15.6022 5.83769 15.7011 5.85266 15.802 5.88274C16.0308 5.95024 16.1793 6.07306 16.2472 6.24504L16.2596 6.32486C16.2211 6.31048 16.1812 6.30241 16.1394 6.30241C16.094 6.30241 16.0453 6.31195 15.9937 6.33103C15.8948 6.36786 15.8205 6.42934 15.7772 6.52135C15.7278 6.6135 15.7278 6.70551 15.7649 6.79149C15.802 6.88365 15.87 6.93882 15.9813 6.97565C16.0336 6.99399 16.0851 7.00295 16.1353 7.00295C16.1855 7.00295 16.2349 6.99414 16.2844 6.97565C16.4266 6.92033 16.5193 6.82833 16.5626 6.68702C16.6059 6.55803 16.6059 6.42303 16.5503 6.28187C16.4575 6.03021 16.2596 5.81524 15.9442 5.64341C15.7422 5.53761 15.5464 5.47965 15.3636 5.47965C15.2393 5.47965 15.1203 5.50621 15.0104 5.56358L14.9671 5.47143C14.9671 5.46527 15.1774 5.33027 15.6472 5.17062C15.8754 5.088 16.0464 5.02667 16.1611 4.98778L15.7661 4.82666Z" fill="#231F20"/>
<path id="Vector_50" d="M12.5808 6.39844L12.3272 6.55809L12.3244 6.55604C12.3231 6.55677 12.3224 6.55736 12.321 6.55809C12.5498 6.58876 12.6983 6.61341 12.7786 6.61943C12.8534 6.57511 12.9263 6.53212 12.9971 6.48986L12.5808 6.39844Z" fill="#231F20"/>
<path id="Vector_51" d="M18.8696 6.30632C18.7027 6.14051 18.4862 5.98702 18.2265 5.83969C18.1337 5.48355 17.7442 5.09675 16.9774 4.70378L18.4306 4.32931L18.8696 6.30632ZM18.882 3.93018C17.8246 4.15733 16.7733 4.42131 15.7654 4.8266H15.7661C15.8115 4.81017 15.8561 4.79388 15.9014 4.77745C16.1921 4.85727 16.3281 4.91245 16.3405 4.9371C16.3397 4.93637 16.3384 4.93578 16.3363 4.93578C16.3205 4.93578 16.2621 4.95353 16.1619 4.98758L16.2044 5.0046L16.2167 4.99844C16.3343 5.04759 16.4765 5.08442 16.6558 5.10277L17.1072 5.15192C17.4968 5.23791 17.7132 5.37908 17.7626 5.57556L17.775 5.64306L17.608 5.66155C17.4533 5.69838 17.3236 5.77204 17.2246 5.91937C17.1195 6.07286 17.0885 6.21402 17.1318 6.34917C17.1751 6.46583 17.2555 6.55798 17.3854 6.61931C17.4651 6.65483 17.5441 6.67258 17.6259 6.67258C17.6705 6.67258 17.7158 6.66715 17.7626 6.65615C17.8492 6.6378 17.9481 6.57632 18.0409 6.48417C18.1398 6.39202 18.1955 6.30001 18.1955 6.21402C18.2024 6.21329 18.2099 6.21329 18.2175 6.21329C18.3502 6.21329 18.5219 6.31762 18.715 6.53318C18.8387 6.67434 18.9685 6.84016 19.0922 7.04897L19.3458 7.14713L18.7584 4.24919L19.2655 4.16936L18.882 3.93018Z" fill="#231F20"/>
<path id="Vector_52" d="M15.9014 4.77734C15.8561 4.79378 15.8115 4.81007 15.7661 4.8265L16.1619 4.98747C16.2622 4.95343 16.3206 4.93568 16.3363 4.93568C16.3384 4.93568 16.3397 4.93641 16.3404 4.937C16.3281 4.91249 16.1921 4.85717 15.9014 4.77734Z" fill="#231F20"/>
<path id="Vector_53" d="M23.1048 3.74951C22.8149 3.74951 22.5628 3.78502 22.3512 3.90579C22.042 4.06544 21.8998 4.28027 21.9121 4.55658C21.9121 4.6794 21.9616 4.77757 22.0482 4.85739C22.134 4.93179 22.2309 4.96862 22.3532 4.96862C22.3629 4.96862 22.3725 4.96862 22.3821 4.96789C22.6109 4.95556 22.7223 4.87573 22.7284 4.67323C22.7284 4.52591 22.6542 4.42759 22.5058 4.37858C22.6948 4.16845 22.9785 4.06339 23.353 4.06339C23.3832 4.06339 23.4142 4.06412 23.4457 4.06544C23.7672 4.08378 23.9157 4.2066 23.8971 4.43992C23.8848 4.56274 23.8043 4.66707 23.6497 4.75922C23.5383 4.68556 23.4332 4.65489 23.3282 4.64873C23.32 4.64799 23.3117 4.64799 23.3034 4.64799C23.2134 4.64799 23.1289 4.67866 23.0436 4.73457C22.9509 4.79591 22.9076 4.87573 22.9076 4.96172C22.9015 5.05989 22.9386 5.15204 23.0127 5.22571C23.0869 5.29937 23.1797 5.3362 23.2909 5.34236C23.3006 5.3431 23.3109 5.3431 23.3204 5.3431C23.407 5.3431 23.4846 5.31859 23.5568 5.2687C23.6682 5.36085 23.7115 5.46518 23.7051 5.588C23.699 5.71083 23.6371 5.81516 23.532 5.89498C23.4344 5.97481 23.3204 6.01237 23.2008 6.01237C23.1919 6.01237 23.1823 6.01237 23.1734 6.01164C22.5921 5.96248 22.1716 5.66783 21.8747 5.06004C21.7139 4.7039 21.5965 4.46442 21.5346 4.33559C21.4109 4.08995 21.2564 3.92428 21.0646 3.85062C21.2501 4.49524 21.4788 5.0417 21.7447 5.47766C22.1405 6.11612 22.561 6.41708 23.068 6.46007C23.0859 6.46081 23.1031 6.46139 23.1202 6.46139C23.3285 6.46139 23.5147 6.39389 23.6802 6.26359C23.8595 6.11626 23.9584 5.92594 23.9832 5.70481C24.0017 5.496 23.9399 5.31184 23.8039 5.14603C23.9832 5.01704 24.0946 4.78989 24.1192 4.46457C24.144 4.24975 24.0636 4.07777 23.8843 3.94277C23.7296 3.83227 23.5195 3.76477 23.2536 3.75245C23.203 3.75025 23.1536 3.74951 23.1048 3.74951Z" fill="#231F20"/>
<path id="Vector_54" d="M29.1613 5.11855L29.2617 5.15612C29.261 5.1548 29.2596 5.15406 29.2589 5.15274C29.2555 5.15201 29.2225 5.141 29.1613 5.11855ZM27.2361 5.37916C27.2609 5.25018 27.2361 5.12134 27.1743 4.99852C27.1063 4.8757 27.0012 4.78369 26.8652 4.72837C26.9971 4.6104 27.1538 4.5517 27.3268 4.5517C27.3969 4.5517 27.4705 4.56124 27.5453 4.58105C27.7927 4.64855 27.9782 4.77137 28.0648 4.99236C27.7865 5.10285 27.5082 5.25018 27.2361 5.37916ZM28.8686 4.21875L28.5161 5.22567C28.4728 5.02303 28.3863 4.83271 28.2441 4.64855C28.0957 4.43974 27.9101 4.33541 27.7 4.28023C27.5955 4.25162 27.4807 4.23724 27.3585 4.23724C27.1915 4.23724 27.0109 4.2638 26.8219 4.31707C26.4571 4.4214 26.2591 4.57489 26.222 4.77137C26.1972 4.88803 26.2653 4.99236 26.4261 5.07218L26.7601 5.02303C26.9271 5.10285 26.9889 5.23785 26.9394 5.42216C26.9271 5.48349 26.8713 5.54498 26.7849 5.60015L26.5623 5.71064C26.7293 5.81498 26.8591 5.90097 26.9396 5.98079C27.3538 5.7598 27.7928 5.53265 28.2319 5.36684L28.337 5.67998L27.7433 7.39902L27.9535 7.75516L28.9553 5.04137C28.9368 4.96154 28.8935 4.83872 28.8316 4.68523L29.1999 4.82023L29.1966 4.81407L29.0049 4.74657L29.0482 4.53776L28.8686 4.21875Z" fill="#231F20"/>
<path id="Vector_55" d="M28.9551 5.04173C29.0424 5.07446 29.1111 5.10043 29.1613 5.11877L28.9551 5.04173ZM29.9446 4.59961C29.8147 5.1829 29.7343 5.50822 29.7158 5.5697C29.6292 5.17673 29.4623 4.93726 29.2335 4.83292L29.1999 4.8206L29.4314 5.21973L29.2618 5.15634C29.3896 5.29618 29.4562 5.43602 29.4624 5.57586C29.4686 5.68636 29.4376 5.83368 29.3573 6.01183L28.6339 7.74936L28.7823 8.16683L29.9819 5.44688L30.256 5.57997L30.056 5.16455C30.159 5.21166 30.2552 5.25671 30.3446 5.29823L30.3405 5.28738L30.0623 5.15839L30.0932 4.84525L29.9446 4.59961Z" fill="#231F20"/>
<path id="Vector_56" d="M28.8315 4.68555C28.8933 4.83904 28.9366 4.96186 28.9552 5.04168L29.1614 5.11872C29.2226 5.14117 29.2555 5.15218 29.259 5.15276C29.2597 5.15408 29.261 5.15482 29.2618 5.15614L29.4314 5.21953L29.1999 4.8204L28.8315 4.68555Z" fill="#231F20"/>
<path id="Vector_57" d="M30.4922 8.25889C30.3699 8.25889 30.2552 8.22749 30.1425 8.1729C30.0188 8.11157 29.9384 8.02558 29.8951 7.91508C29.8456 7.79842 29.858 7.68177 29.9136 7.56511C29.9321 7.52828 30.0063 7.49761 30.13 7.47912C30.5134 7.41778 30.7917 7.36246 30.9339 7.31331C31.1688 7.22732 31.3791 7.06165 31.546 6.80368C31.6017 7.14749 31.5337 7.47296 31.3482 7.76761C31.2307 7.96409 31.0514 8.10526 30.8103 8.19125C30.6969 8.23776 30.5918 8.25889 30.4922 8.25889ZM31.8629 4.17529C31.5908 4.24631 31.4204 4.36899 31.3298 4.54434C31.2555 4.69783 31.2247 4.89431 31.2308 5.13379C31.2308 5.20129 31.2556 5.4101 31.2926 5.74775C31.2803 5.74775 31.1751 5.69243 30.9773 5.60042C30.8241 5.52676 30.6145 5.42507 30.3445 5.29829L30.4888 5.69257L30.2559 5.58003L30.26 5.58824L31.373 6.12854C31.3546 6.29435 31.3174 6.43551 31.2493 6.55217C31.1318 6.76098 30.9402 6.90214 30.6556 7.00031C30.4743 7.06312 30.2955 7.09452 30.1162 7.09452C30.0324 7.09452 29.9485 7.08777 29.8641 7.07412C29.7527 7.16627 29.6725 7.26444 29.6167 7.36877C29.524 7.57142 29.5301 7.77392 29.6229 7.98889C29.7095 8.18538 29.8516 8.32654 30.0558 8.42485C30.2323 8.52581 30.4069 8.57908 30.5855 8.57908C30.701 8.57908 30.8184 8.55663 30.94 8.51084C31.2182 8.41267 31.4533 8.22221 31.6326 7.93372C31.7625 7.73107 31.8367 7.48558 31.8552 7.18462C31.8737 6.89598 31.8429 6.62583 31.7625 6.36185L32.7704 6.97581C32.6962 6.76098 32.6467 6.61351 32.6158 6.53368C32.3004 6.3372 32.0592 6.18371 31.8985 6.08554C31.7563 6.00571 31.6759 5.95656 31.6511 5.93821C31.5399 5.35493 31.4966 4.99879 31.5893 4.82696C31.6636 4.67963 31.8676 4.58132 32.22 4.54449L32.0002 4.24573C31.9549 4.22166 31.9082 4.19848 31.8629 4.17529Z" fill="#231F20"/>
<path id="Vector_58" d="M31.9357 4.15723C31.9103 4.16266 31.8862 4.16882 31.8629 4.17498C31.9083 4.19817 31.9549 4.22135 32.0003 4.24527L31.9357 4.15723Z" fill="#000524"/>
<path id="Vector_59" d="M30.0558 5.16406L30.2556 5.57948L30.4885 5.69203L30.3443 5.29774C30.2551 5.25621 30.1589 5.21117 30.0558 5.16406Z" fill="#231F20"/>
<path id="Vector_60" d="M34.1667 7.99931C34.1791 8.04099 34.1936 8.06065 34.2113 8.06065C34.221 8.06065 34.2313 8.05449 34.2423 8.04363C34.2416 8.04363 34.2416 8.04436 34.241 8.04436C34.2341 8.04422 34.2093 8.02866 34.1667 7.99931ZM32.8263 6.6499C32.8201 6.66223 32.8263 6.74205 32.8511 6.88938C32.8634 6.98755 32.882 7.04287 32.9005 7.0552L32.9129 7.06136L33.2592 7.31918C33.4694 7.47267 33.5807 7.55866 33.5993 7.57084C33.5876 7.56952 33.576 7.56878 33.5629 7.56878C33.4625 7.56878 33.3321 7.6131 33.1726 7.70584C33.0118 7.79183 32.9005 7.88383 32.8324 7.97598C32.7459 8.0988 32.6408 8.30145 32.5171 8.58378C32.3934 8.86625 32.2883 9.06273 32.1956 9.18541C32.0844 9.33889 31.9359 9.42488 31.7442 9.43706C31.7229 9.43985 31.7017 9.44044 31.6804 9.44044C31.5403 9.44044 31.3973 9.39128 31.2311 9.33273L31.2992 9.57221C31.5315 9.62885 31.7251 9.65482 31.8763 9.65482C31.9065 9.65482 31.9347 9.65409 31.9608 9.65203C32.1957 9.62753 32.3875 9.52305 32.5359 9.32657C32.6348 9.19157 32.7646 8.9766 32.9068 8.67578C33.049 8.37497 33.1666 8.15398 33.2655 8.01883C33.352 7.90834 33.5375 7.81618 33.8282 7.74868L34.0323 7.90217C34.0894 7.94311 34.1333 7.9751 34.167 7.99902C34.1609 7.97584 34.1547 7.94575 34.1499 7.90834C34.1314 7.76717 34.1375 7.67502 34.1747 7.62586C34.1499 7.60136 33.9273 7.43554 33.5069 7.12857C33.1601 6.85255 32.9252 6.70508 32.8263 6.6499Z" fill="#231F20"/>
<path id="Vector_61" d="M36.2869 10.0063L36.289 10.0091C36.289 10.0083 36.289 10.0083 36.289 10.0083L36.2869 10.0063ZM35.3058 9.34521L34.3906 9.31454C34.471 9.20405 34.5082 9.08123 34.5082 8.94006C34.5082 8.7989 34.4525 8.66992 34.3598 8.55942C34.4216 8.5424 34.482 8.53345 34.5412 8.53345C34.7136 8.53345 34.8757 8.60506 35.0276 8.73742C35.2131 8.91541 35.312 9.11806 35.3058 9.34521ZM34.2361 8.1377C34.0087 8.1377 33.8445 8.20725 33.7538 8.3198C33.6734 8.41797 33.6982 8.52861 33.8094 8.66361C33.9392 8.68811 34.0381 8.73111 34.1309 8.76794C34.2423 8.92143 34.236 9.06875 34.1124 9.21608C34.0691 9.25908 33.9949 9.28974 33.896 9.30207L33.6486 9.29591C33.7475 9.46788 33.8217 9.60905 33.8588 9.71338L35.2935 9.73788L35.2502 10.0694L34.0898 11.1943C34.0844 11.3552 34.0396 11.4883 33.9613 11.596L33.9702 11.7516L36.0789 9.78073L36.2362 9.95124L36.2334 9.9464C36.2272 9.86657 36.2149 9.70692 36.2024 9.47977C36.2436 9.52276 36.2849 9.56576 36.3261 9.60875L36.258 9.53509L36.3879 9.36311L36.3756 8.9948L35.6087 9.73774C35.6643 9.54125 35.6768 9.32026 35.621 9.11146C35.5654 8.87198 35.454 8.68166 35.2995 8.54049C35.1079 8.3625 34.8357 8.23352 34.508 8.16602C34.4093 8.14665 34.3184 8.1377 34.2361 8.1377Z" fill="#231F20"/>
<path id="Vector_62" d="M33.4054 11.5787C33.3731 11.5787 33.3332 11.5712 33.2838 11.5555C33.1849 11.5248 33.1168 11.4942 33.0796 11.4572C32.9992 11.3835 32.9869 11.3222 33.0487 11.2607L33.1909 11.2239L33.3392 11.3037C33.4196 11.3774 33.4691 11.4572 33.4814 11.5494L33.4753 11.5555C33.4597 11.5712 33.437 11.5787 33.4054 11.5787ZM33.1244 10.9102C33.0193 10.9102 32.9265 10.9545 32.8509 11.0397C32.7643 11.1257 32.7333 11.2424 32.7458 11.3774C32.752 11.5124 32.8076 11.6169 32.8942 11.7028C33.0481 11.8277 33.1951 11.8973 33.3586 11.8973C33.4122 11.8973 33.4672 11.8898 33.5249 11.8748C33.5681 12.3844 33.5497 12.7896 33.4816 13.1212L33.7723 12.7712C33.8094 12.4151 33.8155 12.0713 33.7846 11.752L33.8958 11.6722C33.9199 11.6483 33.9412 11.623 33.9611 11.5965L33.9453 11.3345L34.0895 11.1947C34.0908 11.1565 34.0902 11.1176 34.0875 11.0767L34.0009 11.1504L33.9205 11.2179L33.8587 11.3284L33.7969 11.4389L33.7536 11.4634C33.7288 11.2975 33.6486 11.1747 33.5495 11.0827C33.4381 10.9846 33.3207 10.9292 33.197 10.9169C33.1724 10.9122 33.1477 10.9102 33.1244 10.9102Z" fill="#231F20"/>
<path id="Vector_63" d="M34.0897 11.1948L33.9454 11.3347L33.9613 11.5966C34.0395 11.4887 34.0842 11.3558 34.0897 11.1948Z" fill="#231F20"/>
<path id="Vector_64" d="M36.2362 9.95186L36.252 9.97784L36.2871 10.0065L36.2362 9.95186ZM36.3261 9.60938L36.3942 9.68304L36.419 10.1497L36.2891 10.0091C36.252 10.1558 36.2706 10.2908 36.3447 10.4137C36.4065 10.512 36.4869 10.6285 36.5858 10.7513C36.7034 10.9048 36.728 11.0459 36.7034 11.1626C36.6786 11.2669 36.5983 11.3714 36.4623 11.4819C36.408 11.5215 36.3022 11.5406 36.1449 11.5406C36.1057 11.5406 36.0631 11.5399 36.0171 11.5372C35.7945 11.5249 35.6398 11.4942 35.5842 11.4329C35.5409 11.3899 35.5471 11.3162 35.5965 11.2181L35.7264 11.0216L35.3987 10.9724C35.3183 11.0891 35.2627 11.2364 35.2379 11.4084C35.2008 11.611 35.2256 11.7584 35.3121 11.8505C35.4159 11.97 35.6213 12.032 35.9538 12.032C35.9971 12.032 36.0432 12.0307 36.0912 12.0287C36.3199 12.0163 36.4621 12.0163 36.5179 12.0163C36.6601 12.0347 36.7528 12.0777 36.8023 12.1453C36.8167 12.1644 36.8291 12.1835 36.84 12.2027C36.9122 12.0793 36.9911 11.9544 37.0777 11.8288C37.0206 11.7503 36.8915 11.6841 36.6909 11.6174C36.8269 11.513 36.9073 11.384 36.9258 11.2367C36.963 11.0526 36.9814 10.9112 36.9939 10.8131C37.3587 11.3165 37.7545 11.7955 38.0884 12.3173L38.0892 12.3132C37.8438 11.9298 37.5972 11.6112 37.3897 11.3349C37.3897 11.2496 37.3958 11.0982 37.402 10.869C37.0613 10.4342 36.706 10.0106 36.3261 9.60938Z" fill="#231F20"/>
<path id="Vector_65" d="M36.2024 9.48047C36.2147 9.70762 36.2272 9.86727 36.2334 9.9471L36.2361 9.95194L36.2869 10.0065L36.289 10.0086C36.289 10.0086 36.289 10.0086 36.289 10.0093L36.4188 10.1499L36.394 9.68326L36.3259 9.6096C36.2849 9.56631 36.2436 9.52346 36.2024 9.48047Z" fill="#231F20"/>
<path id="Vector_66" d="M37.1424 12.3111C37.0915 12.4066 37.0476 12.498 37.0056 12.5874H37.0063C37.073 12.5261 37.1183 12.4352 37.1424 12.3111ZM37.6906 11.2441C37.8466 11.455 37.999 11.6685 38.1475 11.8854L38.1503 11.8629C37.9985 11.6556 37.8458 11.4488 37.6906 11.2441Z" fill="#231F20"/>
<path id="Vector_67" d="M36.8401 12.2023C36.7054 12.4335 36.5962 12.6607 36.5117 12.8817C36.2643 13.5201 36.2273 14.0544 36.4994 14.4841C36.6477 14.7174 36.8518 14.8709 37.1239 14.9507C37.2373 14.9868 37.3486 15.004 37.4579 15.004C37.6103 15.004 37.7588 14.9699 37.9031 14.9017C38.1751 14.7667 38.3731 14.5579 38.4905 14.2692C38.6327 13.9499 38.6142 13.6368 38.4287 13.3483C38.2988 13.1395 38.1442 12.9922 37.9587 12.9185C37.8749 12.8824 37.7938 12.8647 37.7141 12.8647C37.6055 12.8647 37.4997 12.8974 37.3959 12.9615C37.2846 13.0352 37.2166 13.1457 37.1918 13.2992C37.1609 13.4526 37.1857 13.5876 37.2599 13.7105C37.328 13.821 37.4269 13.8946 37.5568 13.9376C37.6124 13.9561 37.6654 13.9656 37.7161 13.9656C37.7842 13.9656 37.8488 13.9486 37.9092 13.9131C38.0143 13.8578 38.0762 13.7781 38.1134 13.6675L38.1938 13.7535C38.2927 13.9069 38.2865 14.0789 38.1938 14.2631C38.1134 14.4289 38.0021 14.5456 37.8536 14.6192C37.7732 14.6602 37.6907 14.6806 37.6062 14.6806C37.5017 14.6806 37.3939 14.6499 37.2847 14.5884C37.1116 14.4901 36.9446 14.3551 36.8334 14.1648C36.6292 13.8333 36.6479 13.4218 36.8643 12.9062C36.911 12.7991 36.9571 12.694 37.0059 12.5869L36.9014 12.6605C36.8218 12.7043 36.777 12.726 36.7736 12.726C36.7723 12.726 36.7777 12.7226 36.7901 12.7157C36.9108 12.5304 36.9287 12.3591 36.8401 12.2023ZM38.1475 11.885L38.0891 12.3128C38.1654 12.4328 38.2423 12.5584 38.3172 12.6914C38.7191 13.3115 39.0654 13.9623 39.3684 14.6377L39.3697 14.6302C39.3546 14.5982 39.3402 14.5661 39.3251 14.5334C39.3436 14.4604 39.3802 14.315 39.435 14.092C39.0661 13.3245 38.6286 12.5891 38.1475 11.885ZM37.3527 11.4573C37.2538 11.5814 37.1623 11.7056 37.0778 11.8284C37.0786 11.8297 37.0799 11.8304 37.0806 11.8318C37.1549 11.9299 37.1795 12.0651 37.1549 12.2309C37.1515 12.2589 37.1472 12.2855 37.1425 12.3107L37.464 11.7336L37.3527 11.4573ZM37.4021 10.8618C37.4021 10.8639 37.4021 10.8667 37.4021 10.8687C37.499 10.9929 37.5958 11.1185 37.6907 11.2439C37.5958 11.1155 37.4997 10.988 37.4021 10.8618Z" fill="#231F20"/>
<path id="Vector_68" d="M37.0779 11.8285C36.9913 11.9539 36.9124 12.0788 36.8402 12.2024C36.9288 12.3592 36.9109 12.5305 36.79 12.7161C36.7777 12.7228 36.7721 12.7264 36.7735 12.7264C36.7769 12.7264 36.8217 12.7045 36.9014 12.6609L37.0058 12.5873C37.0478 12.4979 37.0917 12.4065 37.1426 12.3109C37.1474 12.2857 37.1515 12.2592 37.1549 12.2311C37.1797 12.0653 37.1549 11.9303 37.0807 11.832C37.0799 11.8305 37.0785 11.8299 37.0779 11.8285ZM37.4022 10.8687C37.396 11.0979 37.3898 11.2493 37.3898 11.3345C37.5973 11.6109 37.844 11.9294 38.0894 12.3129L38.1478 11.8851C37.9994 11.6682 37.8468 11.4546 37.6908 11.2439C37.5959 11.1184 37.499 10.9928 37.4022 10.8687Z" fill="#231F20"/>
<path id="Vector_69" d="M38.2493 17.1492C38.54 16.7747 38.6883 16.3143 38.6945 15.7616C39.0779 16.0563 39.3933 16.3694 39.6468 16.6764L38.2493 17.1492ZM39.4366 14.0854C39.4358 14.0875 39.4352 14.0896 39.4352 14.0923C39.4455 14.1148 39.4565 14.1367 39.4675 14.1593L39.3699 14.6307C39.497 14.9037 39.62 15.1445 39.7086 15.375L40.1353 16.5354L40.0116 16.5784C39.5788 16.0136 39.1026 15.5162 38.4348 15.1847L38.2307 15.6943C38.342 16.0626 38.2988 16.4249 38.175 16.7442C38.0452 17.0697 37.8287 17.3275 37.5257 17.5301L37.4576 17.7266L39.7827 16.9837C39.8508 17.1863 39.8137 17.4073 39.7271 17.6283C39.6405 17.8493 39.5045 17.9783 39.3252 18.0274L39.2448 18.0336C39.2881 17.9599 39.2942 17.8678 39.2633 17.7696C39.2385 17.6715 39.1829 17.5916 39.0963 17.5301C39.042 17.4926 38.9849 17.4748 38.9252 17.4748C38.8963 17.4748 38.8668 17.4789 38.8365 17.4872C38.7438 17.5178 38.6696 17.5853 38.6263 17.6836C38.5768 17.788 38.5707 17.8863 38.5953 17.9906C38.6324 18.1318 38.719 18.2363 38.855 18.2976C38.9313 18.3316 39.0118 18.3494 39.0961 18.3494C39.1484 18.3494 39.2019 18.3426 39.257 18.3283C39.5167 18.2608 39.7516 18.0888 39.9557 17.788C40.1598 17.4748 40.2464 17.1555 40.1412 16.8732L40.2401 16.8425H40.2408C40.2608 16.8425 40.3405 17.0758 40.4565 17.5486C40.5802 18.0214 40.6359 18.2547 40.6235 18.2609C40.6483 18.2547 40.7163 18.1197 40.8213 17.8434C40.5249 16.5414 40.0303 15.2827 39.4366 14.0854Z" fill="#231F20"/>
<path id="Vector_70" d="M39.4352 14.0923C39.3802 14.3153 39.3438 14.4607 39.3253 14.5337C39.3404 14.5664 39.3548 14.5985 39.3699 14.6305L39.4675 14.1592C39.4565 14.1366 39.4455 14.1147 39.4352 14.0923Z" fill="#231F20"/>
<path id="Vector_71" d="M41.359 21.2007C41.359 21.2014 41.359 21.2014 41.3597 21.202V21.2012C41.3597 21.2012 41.3597 21.2007 41.359 21.2007ZM39.7058 20.0601C39.6008 20.0601 39.4922 20.0683 39.3808 20.084C39.0531 20.1331 38.7748 20.2681 38.546 20.4708C38.2924 20.7041 38.1874 20.9681 38.1874 21.2812C38.1935 21.4102 38.243 21.5145 38.342 21.6067C38.4189 21.6886 38.52 21.7316 38.6285 21.7316C38.6423 21.7316 38.6559 21.7308 38.6697 21.7295C38.7811 21.7295 38.8738 21.6927 38.9356 21.619C39.0037 21.5454 39.0345 21.447 39.0283 21.3365C39.0283 21.2384 38.9851 21.1585 38.917 21.0849C38.8586 21.0269 38.7912 20.9963 38.7149 20.9963C38.7026 20.9963 38.6888 20.997 38.6757 20.999C38.6076 21.0052 38.5459 21.0297 38.4841 21.085L38.4779 20.9869C38.4779 20.8519 38.5707 20.729 38.7994 20.6062C38.9849 20.5019 39.1581 20.4404 39.325 20.4221C39.3732 20.4153 39.4226 20.4125 39.4728 20.4125C39.7551 20.4125 40.0609 20.5163 40.3763 20.7352C40.7349 20.993 40.97 21.3123 41.0874 21.6746C41.0887 21.6746 41.0902 21.6739 41.0915 21.6733C41.0902 21.6167 41.0887 21.5615 41.0874 21.509C41.1286 21.4448 41.2145 21.3302 41.334 21.1562C41.0984 20.7264 40.8228 20.429 40.5246 20.2687C40.2816 20.127 40.0075 20.0601 39.7058 20.0601Z" fill="#231F20"/>
<path id="Vector_72" d="M40.5188 23.7982L38.8925 23.6877C39.3439 23.4176 39.7088 23.0185 39.9684 22.4782C40.2219 22.9325 40.3951 23.3808 40.5188 23.7982ZM41.3598 21.2018C41.2127 21.5047 41.122 21.6582 41.0918 21.6726C41.0994 21.9134 41.111 22.1897 41.131 22.5028L41.0692 23.8412L40.927 23.8289C40.7415 23.086 40.4757 22.4045 40.0366 21.8151L39.5604 22.1774C39.4987 22.9265 38.9111 23.5281 37.9897 23.8964L41.0569 24.1666L41.0143 24.49C41.0177 24.4743 41.0349 24.3699 41.0569 24.1727C41.1242 24.1297 41.2293 24.0628 41.3578 23.9592C41.4195 23.0437 41.4339 22.1207 41.3598 21.2018ZM41.3536 21.1274C41.3474 21.137 41.3405 21.1459 41.3344 21.1555C41.3426 21.1704 41.3508 21.1848 41.3592 21.2005C41.3577 21.1759 41.3556 21.1519 41.3536 21.1274Z" fill="#231F20"/>
<path id="Vector_73" d="M41.3343 21.1558C41.2147 21.3298 41.1289 21.4444 41.0876 21.5085C41.089 21.5611 41.0904 21.6164 41.0918 21.6729C41.122 21.6585 41.2127 21.505 41.3597 21.2021C41.359 21.2014 41.359 21.2014 41.359 21.2008C41.3507 21.185 41.3425 21.1707 41.3343 21.1558Z" fill="#231F20"/>
<path id="Vector_74" d="M41.3597 23.958C41.359 23.9587 41.3584 23.9587 41.3577 23.9593C41.3487 24.0904 41.3392 24.2207 41.3288 24.351L40.9886 24.6825L41.014 24.4901C41.0133 24.4914 41.0133 24.4921 41.0133 24.4921C40.9021 24.6518 40.7784 24.7561 40.6485 24.7991C40.5873 24.8195 40.5145 24.8285 40.43 24.8285C40.3606 24.8285 40.283 24.8223 40.1971 24.8114L38.3234 24.572L37.9709 24.8236L40.9082 25.2657L40.834 25.8238C40.8504 25.7331 40.8614 25.6484 40.8711 25.5727C40.9267 25.5174 41.0442 25.4131 41.2112 25.2596C41.1974 25.3626 41.1817 25.4656 41.1659 25.5679L41.1679 25.5666L41.2112 25.2657L41.5142 25.2104L41.7059 25.0078C41.106 25.0323 40.7784 25.0384 40.7164 25.0384C41.0689 24.8481 41.273 24.6271 41.3286 24.3815L41.3597 23.958Z" fill="#231F20"/>
<path id="Vector_75" d="M41.3577 23.9595C41.2291 24.0632 41.1241 24.13 41.0567 24.173C41.0347 24.3702 41.0175 24.4745 41.0142 24.4902L40.9888 24.6826L41.3289 24.3511C41.339 24.2208 41.3487 24.0905 41.3577 23.9595Z" fill="#231F20"/>
<path id="Vector_76" d="M41.1659 25.5679L40.834 25.8244V25.8236C40.8189 25.9102 40.7989 26.0024 40.7722 26.1007C40.7289 26.2972 40.6795 26.5305 40.6177 26.7883L40.123 26.641C39.8654 26.583 39.6524 26.5537 39.4834 26.5537C39.2072 26.5537 39.0505 26.6322 39.0162 26.7883C38.9852 26.9173 39.0162 27.0891 39.0718 27.2979C39.1274 27.4944 39.2017 27.6479 39.2882 27.7646C39.2009 27.8294 39.1171 27.8608 39.0341 27.8608C38.999 27.8608 38.9647 27.8554 38.9296 27.8444C38.7255 27.7769 38.5771 27.6356 38.4844 27.4207C38.3855 27.2059 38.3855 26.9971 38.4288 26.7761C38.5092 26.4261 38.8184 26.199 39.3625 26.07C39.662 25.9971 39.9747 25.9575 40.2962 25.9575C40.4068 25.9575 40.5181 25.9623 40.6302 25.9718L40.7724 25.7202C40.6479 25.7168 40.5277 25.7148 40.4117 25.7148C38.9667 25.7148 38.1512 26.0006 38.0082 26.6658C37.9217 27.0096 37.9278 27.2982 38.0763 27.5499C38.2185 27.7894 38.4536 27.9673 38.7936 28.0902C38.8829 28.1208 38.9742 28.1358 39.0664 28.1358C39.1584 28.1358 39.2513 28.1208 39.344 28.0902C39.5295 28.0288 39.6903 27.9122 39.8263 27.7402C39.7398 27.648 39.6532 27.5192 39.5543 27.3411C39.4492 27.1323 39.3811 26.9788 39.3935 26.8929L39.4739 26.8438L40.5436 27.1139C40.4014 27.7585 40.1602 28.3725 39.9685 29.0049L40.3581 28.7593C40.7138 27.7216 40.997 26.6533 41.1659 25.5679Z" fill="#231F20"/>
<path id="Vector_77" d="M41.2112 25.2598C41.0443 25.4133 40.9269 25.5176 40.8711 25.5729C40.8616 25.6486 40.8506 25.7331 40.834 25.824V25.8247L41.1659 25.5682C41.1818 25.4658 41.1976 25.3628 41.2112 25.2598Z" fill="#231F20"/>
<path id="Vector_78" d="M41.1 26.7578L40.9207 27.5437C41.1617 28.1822 41.3782 28.8515 41.5823 29.5514L41.7864 29.0971C41.6008 28.2805 41.3905 27.5069 41.1 26.7578Z" fill="#231F20"/>
</g>
<defs>
<clipPath id="clip0_1224_83550">
<rect width="45.0977" height="45" fill="white" transform="translate(0 0.5)"/>
</clipPath>
</defs>
</svg>
