<svg width="25" height="24" viewBox="0 0 25 24" fill="none" xmlns="http://www.w3.org/2000/svg">
<g id="notification">
<path id="Vector" d="M12.461 2.91003C9.15101 2.91003 6.46101 5.60003 6.46101 8.91003V11.8C6.46101 12.41 6.20101 13.34 5.89101 13.86L4.74101 15.77C4.03101 16.95 4.52101 18.26 5.82101 18.7C10.131 20.14 14.781 20.14 19.091 18.7C20.301 18.3 20.831 16.87 20.171 15.77L19.021 13.86C18.721 13.34 18.461 12.41 18.461 11.8V8.91003C18.461 5.61003 15.761 2.91003 12.461 2.91003Z" stroke="#555555" stroke-width="1.5" stroke-miterlimit="10" stroke-linecap="round"/>
<path id="Vector_2" d="M14.3108 3.19994C14.0008 3.10994 13.6808 3.03994 13.3508 2.99994C12.3908 2.87994 11.4708 2.94994 10.6108 3.19994C10.9008 2.45994 11.6208 1.93994 12.4608 1.93994C13.3008 1.93994 14.0208 2.45994 14.3108 3.19994Z" stroke="#555555" stroke-width="1.5" stroke-miterlimit="10" stroke-linecap="round" stroke-linejoin="round"/>
<path id="Vector_3" d="M15.4609 19.0601C15.4609 20.7101 14.1109 22.0601 12.4609 22.0601C11.6409 22.0601 10.8809 21.7201 10.3409 21.1801C9.80094 20.6401 9.46094 19.8801 9.46094 19.0601" stroke="#555555" stroke-width="1.5" stroke-miterlimit="10"/>
</g>
</svg>
