<svg width="23" height="22" viewBox="0 0 23 22" fill="none" xmlns="http://www.w3.org/2000/svg">
<g id="ico">
<path id="Vector" d="M13.1708 2.50989L14.9308 6.02989C15.1708 6.51989 15.8108 6.98989 16.3508 7.07989L19.5408 7.60989C21.5808 7.94989 22.0608 9.42989 20.5908 10.8899L18.1108 13.3699C17.6908 13.7899 17.4608 14.5999 17.5908 15.1799L18.3008 18.2499C18.8608 20.6799 17.5708 21.6199 15.4208 20.3499L12.4308 18.5799C11.8908 18.2599 11.0008 18.2599 10.4508 18.5799L7.46083 20.3499C5.32083 21.6199 4.02083 20.6699 4.58083 18.2499L5.29083 15.1799C5.42083 14.5999 5.19083 13.7899 4.77083 13.3699L2.29083 10.8899C0.830827 9.42989 1.30083 7.94989 3.34083 7.60989L6.53083 7.07989C7.06083 6.98989 7.70083 6.51989 7.94083 6.02989L9.70083 2.50989C10.6608 0.599893 12.2208 0.599893 13.1708 2.50989Z" stroke="#555555" stroke-width="1.5" stroke-linecap="round" stroke-linejoin="round"/>
</g>
</svg>
