<svg width="14" height="14" viewBox="0 0 14 14" fill="none" xmlns="http://www.w3.org/2000/svg">
<g id="ico">
<g id="user-tag">
<path id="Vector" d="M10.5 11.0015H10.0567C9.58999 11.0015 9.14666 11.1823 8.82 11.509L7.82248 12.4948C7.36748 12.944 6.62668 12.944 6.17168 12.4948L5.17416 11.509C4.8475 11.1823 4.39833 11.0015 3.9375 11.0015H3.5C2.53167 11.0015 1.75 10.2257 1.75 9.26903V2.90485C1.75 1.94818 2.53167 1.17236 3.5 1.17236H10.5C11.4683 1.17236 12.25 1.94818 12.25 2.90485V9.26903C12.25 10.2199 11.4683 11.0015 10.5 11.0015Z" stroke="#555555" stroke-miterlimit="10" stroke-linecap="round" stroke-linejoin="round"/>
<g id="Group">
<path id="Vector_2" d="M6.99992 5.83355C7.75057 5.83355 8.3591 5.22502 8.3591 4.47438C8.3591 3.72373 7.75057 3.11523 6.99992 3.11523C6.24928 3.11523 5.64075 3.72373 5.64075 4.47438C5.64075 5.22502 6.24928 5.83355 6.99992 5.83355Z" stroke="#555555" stroke-linecap="round" stroke-linejoin="round"/>
<path id="Vector_3" d="M9.33329 9.13504C9.33329 8.08504 8.28913 7.2334 6.99996 7.2334C5.71079 7.2334 4.66663 8.08504 4.66663 9.13504" stroke="#555555" stroke-linecap="round" stroke-linejoin="round"/>
</g>
</g>
</g>
</svg>
