<svg width="27" height="29" viewBox="0 0 27 29" fill="none" xmlns="http://www.w3.org/2000/svg">
<g id="Group">
<g id="Capa 1">
<path id="Vector" d="M16.9775 22.6423H10.0168V24.8793H16.9775V22.6423Z" fill="#717EBA"/>
<path id="Vector_2" d="M16.2947 20.0181H10.6406C10.6406 20.0181 10.7833 23.1325 10.0913 24.0371H16.9185C16.2233 23.1325 16.2947 20.0181 16.2947 20.0181Z" fill="#F4B88E"/>
<g id="Vector_3" style="mix-blend-mode:multiply">
<path d="M10.5693 22.3715C11.4756 22.8237 12.5014 23.0617 13.5454 23.0621C14.542 23.053 15.5253 22.861 16.4314 22.4988C16.327 21.6752 16.2814 20.8467 16.2949 20.0181H10.6407C10.6703 20.8031 10.6465 21.589 10.5693 22.3715Z" fill="#F5DCD6"/>
</g>
<path id="Vector_4" d="M24.4315 26.1983L16.2234 23.6309H10.7772L2.56908 26.1983C2.56908 26.1983 -0.304541 27.0107 0.0306105 31.0243H26.9638C27.3579 26.7751 24.4315 26.1983 24.4315 26.1983Z" fill="#F4B88E"/>
<path id="Vector_5" d="M24.4315 26.1983L17.7191 24.1103L13.5018 26.6777L9.3838 24.0778L2.55662 26.2091C2.55662 26.2091 -0.316993 27.0216 0.0181594 31.0352H26.9513C27.3579 26.7752 24.4315 26.1983 24.4315 26.1983Z" fill="#42A7D9"/>
<path id="Vector_6" d="M19.6958 13.8948C19.5003 14.9456 19.8386 15.8799 20.4499 15.9801C21.0612 16.0803 21.7129 15.3112 21.9053 14.2604C22.0977 13.2096 21.7626 12.2726 21.1512 12.1724C20.5399 12.0721 19.8882 12.8413 19.6958 13.8948Z" fill="#F4B88E"/>
<path id="Vector_7" d="M20.4284 13.6104C20.4284 13.6104 20.4284 13.5508 20.4625 13.456C20.4963 13.3253 20.5463 13.1982 20.6115 13.0769C20.6859 12.9361 20.8101 12.7736 20.9652 12.7654C21.0054 12.7642 21.0454 12.7697 21.0831 12.7817C21.1034 12.7886 21.1231 12.7968 21.1421 12.8061C21.1421 12.8196 21.17 12.8223 21.1856 12.8386C21.2551 12.9041 21.3062 12.9829 21.3345 13.0688C21.3699 13.1657 21.3938 13.2655 21.4059 13.3667C21.4167 13.4667 21.4167 13.5673 21.4059 13.6673C21.3873 13.7729 21.3811 13.8812 21.3593 13.9733L21.3004 14.2441C21.2756 14.3281 21.2569 14.4039 21.2414 14.4716C21.2259 14.5393 21.2011 14.5962 21.1856 14.645C21.1545 14.7425 21.139 14.7966 21.139 14.7966C21.139 14.7966 21.17 14.7506 21.2197 14.6612C21.2445 14.6179 21.2787 14.5664 21.3097 14.5014C21.3407 14.4364 21.3749 14.3633 21.409 14.2821C21.4431 14.2008 21.4742 14.106 21.5052 14.0112C21.5362 13.9164 21.5548 13.8135 21.5797 13.7052C21.6032 13.5863 21.6084 13.4651 21.5952 13.345C21.5844 13.2237 21.5584 13.1038 21.5176 12.9875C21.4772 12.8713 21.4035 12.766 21.3035 12.6815C21.2778 12.659 21.2486 12.6398 21.2166 12.6246L21.1328 12.5948C21.0724 12.584 21.0101 12.584 20.9497 12.5948C20.8862 12.6052 20.8259 12.6269 20.7725 12.6586C20.7191 12.6903 20.6738 12.7313 20.6394 12.779C20.5753 12.8623 20.5261 12.9536 20.4935 13.0498C20.4454 13.1869 20.4183 13.329 20.4128 13.4723C20.4155 13.5185 20.4207 13.5646 20.4284 13.6104Z" fill="#F2A57F"/>
<path id="Vector_8" d="M20.4282 13.6104C20.4282 13.6104 20.3724 13.4967 20.7758 13.4723C20.7758 13.4723 21.2258 13.5427 20.962 14.0681C20.9004 14.1802 20.8545 14.2984 20.8255 14.4202C20.7851 14.5962 20.8565 14.8345 20.751 14.9889C20.6113 15.192 20.2576 15.0756 20.2358 14.8454C20.2731 14.6267 20.3711 14.4194 20.5213 14.2414C20.5997 14.1453 20.6336 14.027 20.6163 13.91C20.5991 13.793 20.5319 13.6861 20.4282 13.6104Z" fill="#F2A57F"/>
<path id="Vector_9" d="M20.2358 14.8237C20.2236 14.831 20.2131 14.8402 20.2048 14.8508C20.1794 14.8814 20.1596 14.9152 20.1458 14.951C20.135 14.9745 20.1277 14.999 20.1241 15.0241C20.1178 15.0528 20.1178 15.0822 20.1241 15.1108C20.1241 15.1406 20.1241 15.1731 20.1241 15.2056C20.1241 15.2381 20.1458 15.2625 20.1551 15.2923C20.1681 15.3204 20.1837 15.3475 20.2017 15.3735C20.2203 15.3952 20.242 15.4141 20.2606 15.4331C20.2917 15.4693 20.3352 15.4959 20.3848 15.5089C20.4271 15.5278 20.4738 15.538 20.5213 15.5387C20.505 15.4947 20.4843 15.4521 20.4593 15.4114C20.449 15.3946 20.4376 15.3783 20.4251 15.3627C20.4177 15.3431 20.4084 15.324 20.3972 15.3058C20.3877 15.286 20.3763 15.267 20.3631 15.2489C20.3534 15.2304 20.3451 15.2114 20.3382 15.1921C20.3171 15.1548 20.3005 15.1158 20.2886 15.0756C20.2809 15.057 20.2747 15.038 20.27 15.0187C20.27 14.9971 20.27 14.9781 20.27 14.9619C20.2451 14.9023 20.2358 14.8237 20.2358 14.8237Z" fill="#F2A57F"/>
<path id="Vector_10" d="M7.40084 13.8948C7.59634 14.9456 7.25809 15.8799 6.64675 15.9801C6.03541 16.0803 5.38372 15.3112 5.18822 14.2604C4.99271 13.2096 5.33096 12.2726 5.94541 12.1724C6.55985 12.0721 7.20533 12.8413 7.40084 13.8948Z" fill="#F4B88E"/>
<path id="Vector_11" d="M6.66538 13.6104C6.66538 13.6104 6.66539 13.5508 6.63125 13.456C6.59872 13.3253 6.54981 13.1982 6.4854 13.0768C6.40782 12.936 6.28368 12.7735 6.12852 12.7654C6.08941 12.7644 6.05045 12.77 6.0137 12.7816C5.99215 12.788 5.97137 12.7961 5.95164 12.806C5.95164 12.8196 5.92681 12.8223 5.90819 12.8385C5.83962 12.9042 5.78967 12.9831 5.76233 13.0687C5.72548 13.1653 5.70152 13.2652 5.69096 13.3666C5.67867 13.4665 5.67867 13.5673 5.69096 13.6672C5.70958 13.7729 5.71579 13.8812 5.73751 13.9733L5.79647 14.2441C5.8213 14.328 5.83991 14.4039 5.85853 14.4716C5.87715 14.5393 5.89888 14.5961 5.91129 14.6449C5.94543 14.7424 5.96095 14.7966 5.96095 14.7966C5.93018 14.7528 5.90221 14.7076 5.87715 14.6611C5.85543 14.6178 5.81819 14.5664 5.79026 14.5014C5.76233 14.4364 5.72199 14.3632 5.68786 14.282C5.65372 14.2007 5.62579 14.106 5.59166 14.0112C5.55752 13.9164 5.542 13.8135 5.51717 13.7051C5.50013 13.5855 5.50013 13.4646 5.51717 13.3449C5.52647 13.2235 5.55252 13.1035 5.59476 12.9875C5.63526 12.8719 5.70774 12.7668 5.80578 12.6814C5.83203 12.6595 5.8612 12.6404 5.89267 12.6246L5.97646 12.5948C6.03791 12.584 6.10121 12.584 6.16266 12.5948C6.22626 12.6048 6.28674 12.6264 6.34019 12.6581C6.39364 12.6899 6.43888 12.731 6.47298 12.7789C6.53829 12.8616 6.58757 12.9531 6.61884 13.0498C6.66609 13.1871 6.69422 13.329 6.70262 13.4722C6.69376 13.519 6.68132 13.5651 6.66538 13.6104Z" fill="#F2A57F"/>
<path id="Vector_12" d="M6.66532 13.6104C6.66532 13.6104 6.72118 13.4967 6.32086 13.4723C6.32086 13.4723 5.87089 13.5427 6.13467 14.0681C6.1939 14.1808 6.23865 14.2989 6.2681 14.4202C6.30845 14.5962 6.23707 14.8345 6.34569 14.9889C6.48533 15.192 6.8391 15.0756 6.86083 14.8454C6.82364 14.6262 6.72445 14.4187 6.57223 14.2414C6.49389 14.1453 6.45996 14.027 6.47722 13.91C6.49448 13.793 6.56165 13.6861 6.66532 13.6104Z" fill="#F2A57F"/>
<path id="Vector_13" d="M6.8608 14.8237L6.89183 14.8508C6.91718 14.8814 6.93706 14.9152 6.9508 14.951C6.9606 14.9746 6.96686 14.9992 6.96941 15.0241C6.97417 15.0529 6.97417 15.0821 6.96941 15.1108C6.96941 15.1406 6.96941 15.1731 6.96941 15.2056C6.96941 15.2381 6.94769 15.2625 6.93527 15.2923C6.92354 15.3209 6.90792 15.3481 6.88873 15.3735C6.87076 15.3946 6.85105 15.4145 6.82976 15.4331C6.79987 15.4691 6.75741 15.4957 6.70874 15.5089C6.66532 15.5278 6.6176 15.538 6.56909 15.5387C6.5873 15.495 6.60907 15.4524 6.63426 15.4114C6.64333 15.394 6.6548 15.3777 6.6684 15.3627C6.67582 15.3431 6.68516 15.324 6.69633 15.3058C6.70479 15.2861 6.71517 15.2671 6.72736 15.2489C6.73913 15.231 6.7485 15.2119 6.75529 15.1921C6.7754 15.1548 6.791 15.1157 6.80184 15.0756C6.80947 15.057 6.81569 15.038 6.82046 15.0187C6.82046 14.9971 6.82045 14.9781 6.83597 14.9619C6.85148 14.9023 6.8608 14.8237 6.8608 14.8237Z" fill="#F2A57F"/>
<path id="Vector_14" d="M13.6227 2.54468H13.4303C8.57063 2.58259 5.83977 3.79046 6.58765 11.5198L7.42243 17.6756C7.50754 18.0581 7.69154 18.4187 7.96042 18.7299C8.2293 19.041 8.57598 19.2945 8.97406 19.4711L11.6118 21.18C11.6118 21.18 12.8531 21.6648 13.5172 21.6161C14.1658 21.6648 15.4195 21.1773 15.4195 21.1773L18.0604 19.4711C18.4585 19.2945 18.8052 19.041 19.074 18.7299C19.3429 18.4187 19.5269 18.0581 19.612 17.6756L20.5089 11.6525C21.2568 3.93129 18.4793 2.58259 13.6227 2.54468Z" fill="#F4B88E"/>
<path id="Vector_15" d="M19.3328 13.895C19.1621 14.5504 19.0411 15.5985 18.5539 16.1591C18.3873 16.3512 18.1734 16.5082 17.9279 16.6183C17.6824 16.7285 17.4116 16.7891 17.1357 16.7955C16.747 16.8101 16.3577 16.7864 15.9751 16.7251C15.685 16.6449 15.3883 16.5842 15.0876 16.5437C14.7768 16.5464 14.4737 16.6283 14.2155 16.7793C14.049 16.8561 13.8652 16.9003 13.6771 16.9087C13.4889 16.9171 13.301 16.8896 13.1263 16.828C12.5867 16.634 12.012 16.5249 11.4288 16.5058C10.7616 16.5247 9.99199 16.6818 9.33721 16.5058C8.63277 16.3162 8.26969 15.7854 7.9935 15.222C7.84454 14.9214 7.73903 14.2065 7.63352 13.895C7.50318 13.505 7.29837 13.7731 6.89185 13.7677L7.4225 18.1144C7.50761 18.497 7.69161 18.8576 7.96049 19.1687C8.22937 19.4799 8.57605 19.7334 8.97413 19.91L11.6119 21.6162C11.6119 21.6162 12.8532 22.1037 13.5173 22.0549C14.1659 22.1037 15.4196 21.6162 15.4196 21.6162L18.0605 19.91C18.4584 19.7332 18.805 19.4797 19.0738 19.1686C19.3427 18.8574 19.5268 18.4969 19.6121 18.1144L20.1955 13.6919C19.7549 13.6838 19.4663 13.4373 19.3328 13.895Z" fill="#1B1B1B"/>
<path id="Vector_16" d="M9.94558 12.0262C9.94558 12.427 10.2063 12.752 10.5228 12.7493C10.8393 12.7466 11.0938 12.4216 11.0907 12.018C11.0876 11.6145 10.83 11.2922 10.5135 11.2949C10.1969 11.2976 9.94248 11.6226 9.94558 12.0262Z" fill="#2F1807"/>
<path id="Vector_17" d="M10.29 11.7932C10.2905 11.8215 10.2844 11.8496 10.2723 11.8759C10.2602 11.9022 10.2422 11.9261 10.2194 11.9462C10.1965 11.9664 10.1694 11.9824 10.1394 11.9933C10.1095 12.0042 10.0774 12.0099 10.0449 12.0099C9.97905 12.0099 9.9159 11.987 9.86934 11.9464C9.82279 11.9058 9.79663 11.8507 9.79663 11.7932C9.79663 11.7357 9.82279 11.6806 9.86934 11.64C9.9159 11.5994 9.97905 11.5765 10.0449 11.5765C10.0774 11.5765 10.1095 11.5822 10.1394 11.5931C10.1694 11.604 10.1965 11.62 10.2194 11.6402C10.2422 11.6603 10.2602 11.6842 10.2723 11.7105C10.2844 11.7368 10.2905 11.7649 10.29 11.7932Z" fill="white"/>
<path id="Vector_18" d="M17.1481 12.0262C17.1481 12.427 16.8875 12.752 16.5709 12.7493C16.2544 12.7466 16.003 12.4216 16.0061 12.018C16.0092 11.6145 16.2668 11.2922 16.5833 11.2949C16.8999 11.2976 17.1512 11.6226 17.1481 12.0262Z" fill="#2F1807"/>
<path id="Vector_19" d="M16.8037 11.7932C16.8037 11.836 16.8183 11.8779 16.8455 11.9136C16.8728 11.9492 16.9116 11.977 16.957 11.9934C17.0023 12.0098 17.0522 12.0141 17.1004 12.0057C17.1486 11.9973 17.1928 11.9767 17.2275 11.9464C17.2622 11.9161 17.2859 11.8775 17.2955 11.8355C17.305 11.7934 17.3001 11.7499 17.2813 11.7103C17.2625 11.6707 17.2307 11.6369 17.1899 11.6131C17.1491 11.5892 17.1011 11.5765 17.052 11.5765C17.0194 11.5765 16.9871 11.5821 16.957 11.593C16.9268 11.6039 16.8995 11.6199 16.8764 11.64C16.8534 11.6601 16.8351 11.684 16.8226 11.7103C16.8101 11.7366 16.8037 11.7647 16.8037 11.7932Z" fill="white"/>
<path id="Vector_20" d="M14.3893 15.9367C14.2549 16.0491 14.0996 16.1407 13.93 16.2075C13.7563 16.2769 13.5707 16.3208 13.3807 16.3375C13.283 16.3489 13.1844 16.3534 13.0859 16.3511C12.9814 16.3459 12.8776 16.3332 12.7756 16.3132C12.6763 16.2965 12.5795 16.2701 12.487 16.2346C12.393 16.2022 12.3018 16.1642 12.2139 16.1209L12.099 16.0694L12.0742 15.9042C12.0626 15.8342 12.0554 15.7637 12.0525 15.693C12.0525 15.6253 12.0525 15.5576 12.0525 15.4899C12.0605 15.3548 12.0823 15.2207 12.1177 15.089C12.1515 14.9554 12.2025 14.8255 12.2697 14.7018C12.3382 14.5696 12.4292 14.4472 12.5397 14.3389C12.6002 14.4706 12.6439 14.6077 12.67 14.7478C12.6974 14.8767 12.7161 15.007 12.7259 15.1378C12.7259 15.2651 12.7259 15.3897 12.7259 15.5169V15.7038C12.7259 15.7661 12.7259 15.8311 12.7042 15.8853L12.5645 15.6686C12.6266 15.7011 12.6825 15.7471 12.7476 15.7742C12.8105 15.8077 12.8758 15.8376 12.9431 15.8636C13.0117 15.8902 13.0822 15.9128 13.1542 15.9313C13.2286 15.9448 13.3031 15.9692 13.3807 15.9773C13.4598 15.9887 13.5396 15.9959 13.6196 15.999C13.7023 16.0031 13.7852 16.0031 13.8679 15.999C14.0433 15.9899 14.2176 15.9691 14.3893 15.9367Z" fill="#EBA17D"/>
<path id="Vector_21" d="M11.708 10.5421C11.6856 10.6288 11.6265 10.7049 11.5425 10.7551C11.4584 10.8054 11.3557 10.826 11.255 10.8129C10.481 10.6876 9.68266 10.7456 8.94303 10.9808C8.8473 11.0055 8.74456 10.9991 8.65384 10.9627C8.56311 10.9264 8.49056 10.8626 8.44962 10.7831C8.42519 10.7427 8.41095 10.6983 8.40786 10.6527C8.40478 10.6071 8.41293 10.5615 8.43175 10.5189C8.45057 10.4763 8.47962 10.4377 8.51696 10.4057C8.5543 10.3738 8.59907 10.3491 8.64823 10.3335C9.51879 10.053 10.4593 9.98008 11.3729 10.1223C11.427 10.1298 11.4788 10.1467 11.5252 10.172C11.5716 10.1974 11.6116 10.2307 11.6429 10.2699C11.6742 10.3091 11.6961 10.3534 11.7073 10.4002C11.7185 10.447 11.7187 10.4952 11.708 10.5421Z" fill="#472009"/>
<path id="Vector_22" d="M15.1588 10.5421C15.1812 10.6288 15.2404 10.7049 15.3244 10.7552C15.4085 10.8054 15.5112 10.826 15.6119 10.8129C16.3859 10.6877 17.1842 10.7457 17.9239 10.9808C18.0196 11.0055 18.1223 10.9991 18.2131 10.9627C18.3038 10.9264 18.3763 10.8626 18.4173 10.7831C18.4416 10.7426 18.4557 10.6979 18.4586 10.6522C18.4615 10.6065 18.4531 10.5608 18.434 10.5182C18.4148 10.4755 18.3854 10.437 18.3478 10.4052C18.3101 10.3733 18.265 10.3489 18.2156 10.3336C17.3461 10.053 16.4066 9.98007 15.494 10.1223C15.4396 10.1298 15.3875 10.1468 15.3409 10.1723C15.2942 10.1978 15.254 10.2314 15.2227 10.2709C15.1913 10.3104 15.1695 10.355 15.1585 10.4021C15.1476 10.4492 15.1477 10.4978 15.1588 10.5448V10.5421Z" fill="#472009"/>
<path id="Vector_23" d="M13.7872 18.6504C13.5625 18.6946 13.3292 18.6946 13.1045 18.6504" stroke="#E89780" stroke-linecap="round" stroke-linejoin="round"/>
<path id="Vector_24" d="M11.9036 17.4155L12.3008 18.0953C12.3008 18.0953 14.0758 18.9673 15.3296 17.4507C14.1877 17.4941 13.0439 17.4823 11.9036 17.4155Z" fill="white"/>
<path id="Vector_25" d="M10.0914 4.3212C10.0914 4.3212 11.9037 6.23863 16.0062 6.74236C16.0062 6.74236 20.1708 7.99898 20.115 10.0491L19.3795 13.7675L20.2143 13.6917C20.2143 13.6917 20.236 12.194 21.1452 12.1724C21.1452 12.1724 21.9676 9.16352 21.9552 8.65166C21.9428 8.13981 20.7946 3.0375 20.7946 3.0375L16.3259 0.256144C16.3259 0.256144 12.0217 -0.423621 8.2574 0.486345C8.63102 0.581147 9.02261 0.60962 9.40904 0.570081C9.79548 0.530542 10.1689 0.423791 10.5073 0.256144C10.5073 0.256144 7.45366 0.873621 7.36366 1.09028C7.05334 1.82963 7.84157 1.74025 7.84157 1.74025L5.50171 4.8818L5.95789 12.1642C5.95789 12.1642 6.68405 12.2265 6.90438 13.7594H7.5871L7.46917 9.08498C7.46917 9.08498 8.41567 6.20071 10.0914 4.3212Z" fill="#131212"/>
<path id="Vector_26" d="M9.90523 4.15317C9.07269 3.46137 8.36815 2.66105 7.81674 1.78076L5.50171 4.88169V4.89794C6.26821 5.98123 7.05333 7.04827 7.84467 8.09907C8.26981 7.0889 9.04253 5.49917 10.1007 4.30754C10.3219 4.52405 10.566 4.72173 10.83 4.89794C10.5042 4.66774 10.2 4.41316 9.90523 4.15317Z" fill="#1D1D1D"/>
<path id="Vector_27" d="M13.4988 26.6559L12.9464 24.1887L10.0169 22.6423L9.5918 24.1969L13.4988 26.6559Z" fill="#717EBA"/>
<path id="Vector_28" d="M13.4988 26.6559L14.0512 24.1887L16.9775 22.6423L17.4058 24.1969L13.4988 26.6559Z" fill="#717EBA"/>
<path id="Vector_29" d="M14.9014 24.522H12.1085C11.9362 24.6118 11.8057 24.7516 11.7399 24.9171C11.674 25.0825 11.6771 25.2629 11.7485 25.4265L12.6392 26.6561H14.3708L15.2614 25.4265C15.3328 25.2629 15.3359 25.0825 15.2701 24.9171C15.2042 24.7516 15.0737 24.6118 14.9014 24.522Z" fill="#6A54A1"/>
<g id="Vector_30" style="mix-blend-mode:multiply">
<path d="M15.0907 24.6518C15.1483 24.8937 15.1289 25.1447 15.0348 25.3776C14.9528 25.6278 14.7937 25.8535 14.5748 26.0302C14.3559 26.2069 14.0857 26.3278 13.7935 26.3797C13.5297 26.4356 13.2513 26.4026 13.0142 26.2871C12.7772 26.1716 12.5988 25.9821 12.515 25.7568C12.366 25.3234 12.2853 24.8333 12.6019 24.511H12.1053C11.933 24.6008 11.8025 24.7407 11.7367 24.9061C11.6709 25.0715 11.6739 25.2519 11.7454 25.4155L12.6391 26.6559H14.3707L15.2614 25.4264C15.3274 25.2976 15.3464 25.1542 15.3158 25.0156C15.2853 24.8771 15.2067 24.7501 15.0907 24.6518Z" fill="#6A54A1"/>
</g>
<path id="Vector_31" d="M12.6328 26.6559L11.677 31.0243H15.3264L14.3644 26.6559H12.6328Z" fill="#6A54A1"/>
<path id="Vector_32" d="M12.9465 24.1887L11.5624 26.4014L8.17676 24.3946L10.017 22.6423L12.9465 24.1887Z" fill="#86B4DB"/>
<path id="Vector_33" d="M14.051 24.1887L15.4351 26.4014L18.8207 24.3946L16.9774 22.6423L14.051 24.1887Z" fill="#86B4DB"/>
</g>
</g>
</svg>
