<svg width="14" height="14" viewBox="0 0 14 14" fill="none" xmlns="http://www.w3.org/2000/svg">
<g id="ico">
<g id="user-octagon">
<path id="Vector" d="M12.2967 5.00486V8.99484C12.2967 9.64817 11.9467 10.2549 11.3808 10.5874L7.91584 12.5882C7.35001 12.9149 6.65001 12.9149 6.07834 12.5882L2.61334 10.5874C2.04751 10.2607 1.69751 9.654 1.69751 8.99484V5.00486C1.69751 4.35152 2.04751 3.74483 2.61334 3.41233L6.07834 1.4115C6.64418 1.08484 7.34418 1.08484 7.91584 1.4115L11.3808 3.41233C11.9467 3.74483 12.2967 4.34569 12.2967 5.00486Z" stroke="#555555" stroke-linecap="round" stroke-linejoin="round"/>
<g id="Group">
<path id="Vector_2" d="M6.99991 6.41656C7.75056 6.41656 8.35908 5.80803 8.35908 5.05738C8.35908 4.30674 7.75056 3.69824 6.99991 3.69824C6.24927 3.69824 5.64075 4.30674 5.64075 5.05738C5.64075 5.80803 6.24927 6.41656 6.99991 6.41656Z" stroke="#555555" stroke-linecap="round" stroke-linejoin="round"/>
<path id="Vector_3" d="M9.33329 9.71804C9.33329 8.66804 8.28913 7.81641 6.99996 7.81641C5.71079 7.81641 4.66663 8.66804 4.66663 9.71804" stroke="#555555" stroke-linecap="round" stroke-linejoin="round"/>
</g>
</g>
</g>
</svg>
