<svg width="88" height="36" viewBox="0 0 88 36" fill="none" xmlns="http://www.w3.org/2000/svg">
<g id="unicef logo" clip-path="url(#clip0_1327_43797)">
<g id="Group">
<path id="Vector" d="M79.3209 15.3055C79.3209 15.3055 79.5659 15.2085 79.9385 14.8768C80.311 14.5502 80.3723 14.1164 80.704 13.6928C81.0765 13.2283 81.8625 12.4985 81.8625 12.4985C81.8625 12.4985 81.6226 13.5039 81.393 13.9735C81.0612 14.6573 80.6938 14.8666 80.6938 14.8666C80.6938 14.8666 80.8775 14.9942 81.1225 14.8819C81.3674 14.7747 81.6328 14.6369 82.0003 14.6777C82.3728 14.7186 82.8373 14.7339 83.3017 14.4583C83.7661 14.1827 84.1846 13.9122 84.1846 13.9122C84.1846 13.9122 83.8937 14.8104 82.725 15.3055C81.9748 15.627 81.0918 15.6168 80.8214 15.4688C80.5458 15.3157 80.2191 15.2442 79.9844 15.3157C79.7496 15.3871 79.3209 15.3055 79.3209 15.3055Z" fill="#00AEEF"/>
<path id="Vector_2" d="M83.0873 10.5283C83.0873 10.5283 83.0975 11.3959 83.1486 11.697C83.2047 11.9981 83.1384 12.3707 83.0159 12.6616C82.8934 12.9525 82.6842 13.3659 82.8322 13.4475C82.9853 13.5292 83.0363 13.2026 83.368 12.9627C83.6998 12.7279 84.2969 12.4217 84.6286 12.2227C85.1543 11.9063 85.5574 11.3143 85.5574 11.3143C85.5574 11.3143 85.3278 12.6616 84.1897 13.4475C83.4395 13.963 81.9543 14.0957 81.9543 14.0957C81.9543 14.0957 82.1126 13.9579 82.1942 13.5955C82.2759 13.2383 82.3167 12.483 82.4647 12.0032C82.6127 11.5235 83.0873 10.5334 83.0873 10.5334" fill="#00AEEF"/>
<path id="Vector_3" d="M83.6946 8.56885C83.6946 8.56885 84.1233 9.64569 84.1795 9.9468C84.2305 10.2479 84.1488 11.1512 84.1488 11.1512C84.1488 11.1512 84.501 10.8348 84.848 10.2887C85.1185 9.86004 85.5064 9.71204 85.7258 9.365C85.9453 9.02306 86.0321 8.88527 86.0321 8.88527C86.0321 8.88527 85.8177 9.83963 85.5727 10.401C85.1747 11.335 83.5773 12.3148 83.5773 12.3148C83.5773 12.3148 83.664 12.0392 83.7048 11.5085C83.7457 10.9726 83.6079 10.35 83.5721 9.9519C83.5364 9.56914 83.6946 8.57395 83.6946 8.57395" fill="#00AEEF"/>
<path id="Vector_4" d="M83.6692 6.35868C83.6692 6.35868 83.7917 6.51178 84.0571 6.92007C84.3173 7.33345 84.6593 7.77236 84.6746 8.01733C84.6899 8.26229 84.8124 8.56851 84.894 8.5532C84.9757 8.53789 84.9757 8.25719 85.0982 7.82849C85.2207 7.4049 85.5881 6.98131 85.6494 6.66999C85.7004 6.41482 85.7974 6.04736 85.7974 6.04736C85.7974 6.04736 85.9913 7.13442 85.7565 8.01222C85.5218 8.89003 85.0012 9.31873 84.9196 9.431C84.8328 9.53818 84.6848 9.69128 84.6848 9.69128C84.6848 9.69128 84.7664 9.77294 84.5215 9.22176C84.2765 8.67058 84.103 8.33374 83.8835 7.92546C83.7151 7.61415 83.6692 6.34847 83.6692 6.34847" fill="#00AEEF"/>
<path id="Vector_5" d="M83.123 4.54202C83.123 4.54202 83.7202 4.88906 83.9957 5.18507C84.302 5.5219 84.649 6.13943 84.7613 6.11391C84.8736 6.08839 84.7562 5.56273 84.7817 5.35859C84.8123 5.15445 84.8889 4.2256 84.848 3.97553C84.8072 3.73056 84.7307 3.37842 84.7307 3.37842C84.7307 3.37842 85.4145 4.37871 85.3992 5.0932C85.3839 5.8077 85.4196 5.96591 85.0981 6.52219C84.9297 6.8182 84.8225 7.22137 84.8225 7.22137C84.8225 7.22137 84.7204 7.01213 84.4908 6.72123C84.256 6.43033 83.7508 5.93529 83.5722 5.49638C83.3935 5.05748 83.123 4.53692 83.123 4.53692" fill="#00AEEF"/>
<path id="Vector_6" d="M82.2146 2.79669C82.2146 2.79669 82.383 2.9549 82.6586 3.14373C82.9342 3.33767 83.2812 3.46525 83.4752 3.65919C83.664 3.85312 83.909 4.07768 84.0059 4.02154C84.1029 3.9654 83.9804 3.79698 83.8273 3.3836C83.6742 2.97021 83.6742 2.56193 83.5517 2.38331C83.4292 2.20468 83.317 1.85254 83.317 1.85254C83.317 1.85254 84.0723 2.43944 84.2101 2.92428C84.3479 3.40401 84.3326 4.91976 84.3326 4.91976C84.3326 4.91976 84.1948 4.73093 83.9345 4.53699C83.6742 4.34306 83.0158 3.86843 82.7913 3.69491C82.383 3.3836 82.2146 2.8069 82.2146 2.8069" fill="#00AEEF"/>
<g id="Group_2">
<path id="Vector_7" d="M81.6022 1.17871C81.6022 1.17871 82.2095 1.34202 82.5923 1.67375C82.975 2.00548 83.2914 2.91391 83.2914 2.91391C83.2914 2.91391 82.6586 2.59749 82.3983 2.34742C82.138 2.10245 81.6022 1.17871 81.6022 1.17871Z" fill="#00AEEF"/>
<path id="Vector_8" d="M69.9049 15.8001C69.9049 15.8001 70.6041 16.1574 71.14 16.1166C71.6758 16.0757 72.176 15.8971 73.064 15.6675C73.952 15.4378 74.6308 15.3868 75.0289 15.4582C75.4269 15.5246 76.1261 15.6164 76.1261 15.6164C76.1261 15.6164 77.0345 15.4735 77.7388 15.4378C78.0961 15.4174 78.5758 15.5195 79.1015 15.6879C79.6169 15.8512 80.5458 16.1472 81.0663 16.1574C81.8319 16.1676 82.4137 15.8665 82.4137 15.8665C82.4137 15.8665 82.3371 16.4279 80.4998 16.6014C79.4077 16.7035 78.9586 16.6218 78.4788 16.3105C77.9991 15.9992 77.4683 15.744 77.2336 15.7338C76.9937 15.7236 76.6314 15.7542 76.6314 15.7542C76.6314 15.7542 77.2897 15.9941 77.6214 16.2544C77.9481 16.5146 78.7953 17.2087 78.7953 17.2087L78.586 17.4486C78.586 17.4486 78.2594 16.9689 77.7184 16.581C77.1774 16.1931 76.4272 15.8053 76.1465 15.8053C75.8658 15.8053 74.9523 16.2237 74.3654 16.7698C73.804 17.2955 73.7377 17.4282 73.7377 17.4282L73.5182 17.2087C73.5182 17.2087 73.952 16.78 74.5236 16.4024C75.1003 16.0196 75.7076 15.7236 75.7076 15.7236C75.7076 15.7236 75.6872 15.6624 75.3402 15.693C74.9931 15.7236 74.7124 15.7644 74.1153 16.1319C73.5131 16.4993 73.2834 16.5912 72.768 16.6473C72.2627 16.7086 71.2522 16.6065 70.6449 16.3513C70.0376 16.091 69.91 15.795 69.91 15.795" fill="#00AEEF"/>
</g>
<path id="Vector_9" d="M68.0625 13.8255C68.0625 13.8255 68.6188 14.2644 68.8791 14.4124C69.4609 14.739 69.9661 14.591 70.3336 14.642C70.7061 14.6931 71.0328 14.7798 71.1399 14.8308C71.2522 14.8819 71.5788 14.9125 71.6095 14.8513C71.6452 14.7798 71.3135 14.642 71.0634 14.2031C70.701 13.5601 70.4867 12.4985 70.4867 12.4985C70.4867 12.4985 71.0328 12.8864 71.5329 13.5448C72.033 14.2031 71.9616 14.5246 72.3086 14.8206C72.6761 15.1269 73.018 15.2953 73.018 15.2953C73.018 15.2953 72.5638 15.2493 72.2321 15.2749C71.9055 15.3055 71.3492 15.53 70.849 15.5198C70.3642 15.5096 69.4354 15.4688 68.6545 14.6063C68.134 14.0296 68.0676 13.8203 68.0676 13.8203" fill="#00AEEF"/>
<path id="Vector_10" d="M66.6642 11.355C66.6642 11.355 66.9908 11.7939 67.4756 12.1818C67.9554 12.5696 68.6801 12.7993 68.9301 13.08C69.1802 13.3607 69.2874 13.5903 69.4252 13.5189C69.5681 13.4474 69.3384 13.2076 69.2466 12.8401C69.1547 12.4727 69.0781 11.4877 69.1547 11.1049C69.1955 10.9059 69.1751 10.6099 69.1751 10.6099C69.1751 10.6099 69.3946 10.9824 69.6548 11.5642C69.8896 12.1001 69.8743 13.0289 69.9815 13.4372C70.0886 13.8659 70.3183 14.1517 70.3183 14.1517C70.3183 14.1517 69.5783 14.1109 69.2108 13.9731C68.8434 13.8302 67.8074 13.4525 67.4195 12.8146C67.0316 12.1766 66.6591 11.3499 66.6591 11.3499" fill="#00AEEF"/>
<path id="Vector_11" d="M66.2151 8.89545C66.2151 8.89545 66.3631 9.27822 66.603 9.50277C66.8428 9.73243 66.9908 9.83961 67.2715 10.1713C67.4654 10.401 67.9299 11.2941 68.0779 11.2686C68.1953 11.2482 68.0166 10.7889 68.0677 10.3398C68.1493 9.57422 68.6291 8.6709 68.6291 8.6709C68.6291 8.6709 68.7413 9.61505 68.7107 10.1713C68.6852 10.7327 68.4913 11.3554 68.5627 11.6769C68.6291 11.9984 68.6699 12.3914 68.6699 12.3914C68.6699 12.3914 67.9452 11.9065 67.4246 11.437C66.9092 10.9675 66.4396 9.94168 66.3529 9.62526C66.2661 9.30884 66.2253 8.89545 66.2253 8.89545" fill="#00AEEF"/>
<path id="Vector_12" d="M66.4089 6.10889C66.4089 6.10889 66.3171 7.49194 66.4906 8.11968C66.7662 9.13528 67.547 9.78343 67.547 9.78343C67.547 9.78343 67.6134 9.43639 67.7869 9.07404C67.9553 8.71679 68.2258 8.35954 68.333 8.06864C68.5422 7.49705 68.5933 6.48655 68.5933 6.48655C68.5933 6.48655 68.4044 6.77235 68.236 7.002C68.0676 7.23166 67.8583 7.50725 67.7001 7.89002C67.5419 8.26768 67.5215 8.61982 67.3429 8.64024C67.0928 8.66065 67.3021 8.3034 67.0928 7.81347C66.8836 7.32353 66.5876 6.82848 66.5569 6.58862C66.5263 6.34875 66.4191 6.10889 66.4191 6.10889" fill="#00AEEF"/>
<path id="Vector_13" d="M67.5012 3.43457C67.5012 3.43457 66.9551 4.18479 66.8735 4.86866C66.7969 5.55764 66.848 6.10882 67.1133 6.56303C67.292 6.86925 67.3532 7.32856 67.3532 7.32856C67.3532 7.32856 67.4451 7.0938 67.6747 6.83862C67.9044 6.58855 68.3025 6.2313 68.5781 5.75668C68.8587 5.27694 69.1088 4.64921 69.1088 4.64921C69.1088 4.64921 68.6597 4.89928 68.4096 5.12894C67.7819 5.70054 67.4706 6.24151 67.4706 6.24151C67.4706 6.24151 67.292 6.0833 67.3532 5.85364C67.4144 5.62398 67.4451 5.27184 67.4247 5.01666C67.4042 4.76149 67.3226 4.61349 67.3685 4.29196C67.4247 3.97044 67.5012 3.43457 67.5012 3.43457Z" fill="#00AEEF"/>
<path id="Vector_14" d="M68.9914 1.88818C68.9914 1.88818 68.2565 2.33729 68.0575 2.89358C67.9095 3.32228 67.9656 3.76628 67.8993 4.2205C67.8329 4.66961 67.9197 4.97582 67.9197 4.97582C67.9197 4.97582 67.9809 4.86354 68.2412 4.58795C68.5015 4.30726 68.9098 4.13884 69.1955 3.9347C69.8131 3.506 70.0938 2.81192 70.0938 2.81192C70.0938 2.81192 69.7365 3.13855 69.5528 3.24062C69.3742 3.33759 69.0373 3.5009 68.7924 3.67952C68.6086 3.80711 68.4657 4.18477 68.4657 4.18477C68.4657 4.18477 68.2361 3.97042 68.3126 3.73056C68.3943 3.49069 68.5117 3.31207 68.5627 3.0722C68.6138 2.83234 68.6852 2.4853 68.7822 2.30667C68.8791 2.14336 69.0016 1.88818 69.0016 1.88818" fill="#00AEEF"/>
<path id="Vector_15" d="M69.5273 1.85248C69.8284 1.56669 70.6603 1.25537 70.6603 1.25537C70.6603 1.25537 70.303 1.85248 69.9151 2.25056C69.466 2.71498 68.8995 2.98547 68.8995 2.98547C68.8995 2.98547 69.0118 2.34753 69.5273 1.84738" fill="#00AEEF"/>
<path id="Vector_16" d="M73.4314 2.83736C74.202 2.83736 75.7484 3.66923 75.7484 4.7818C75.7484 5.47588 75.2074 5.9454 75.2074 5.9454C75.2074 5.9454 75.2278 6.33327 75.1768 6.45065C75.0747 6.67521 74.9727 6.60886 74.84 6.8079C74.7073 7.00694 74.6511 7.32336 74.0898 7.32336C73.5284 7.32336 73.5386 7.14473 73.2681 7.14473C72.9976 7.14473 72.819 7.39991 72.819 7.39991V9.4107C72.819 9.4107 72.8751 9.66588 73.3804 9.93636C73.8856 10.2069 74.2786 10.3753 74.4368 10.3753C74.595 10.3753 74.5899 10.1966 74.7838 10.1966C74.9778 10.1966 75.7484 10.1966 75.7484 10.5539C75.7484 10.9111 75.3656 11.1561 73.9775 11.1561C72.5893 11.1561 72.1606 11.0438 72.0024 11.0438C71.8442 11.0438 71.8238 11.0796 71.8238 11.2888C71.8238 11.498 71.8136 11.8043 71.8136 11.8043C71.8136 11.8043 72.0483 12.1768 72.329 12.3197C72.6097 12.4677 72.7679 12.5443 73.0793 12.5443C73.3906 12.5443 73.8652 12.4422 74.248 12.2738C74.6307 12.1054 74.9982 12.0084 75.4371 12.0084C75.876 12.0084 76.6466 11.9063 76.6466 11.4572C76.6466 11.0081 76.4782 10.8499 76.4782 10.5029C76.4782 10.1558 76.5343 9.8496 76.3659 9.68119C76.1975 9.51277 75.4575 8.9769 75.4575 8.67579C75.4575 8.37468 75.728 8.23689 75.7586 8.06847C75.7892 7.90006 75.7688 7.79799 75.8811 7.76736C75.9934 7.73164 76.0852 7.69081 76.0852 7.69081L76.1414 7.41012C76.1414 7.41012 76.2894 7.34377 76.3659 7.27232C76.4425 7.20598 76.5088 7.16004 76.5088 7.16004C76.5088 7.16004 76.4425 6.9457 76.565 6.813C76.6875 6.68031 76.8559 6.71093 76.9784 6.71093C77.1008 6.71093 77.4836 6.665 77.4836 6.665C77.4836 6.665 77.6061 6.44555 77.7439 6.34348C77.9684 6.17506 78.5809 6.0832 78.7391 5.96071C78.8973 5.83823 79.0657 5.53202 79.4791 5.53202C81.1837 5.53202 82.3268 7.06818 82.3268 7.90006C82.3268 9.33415 81.398 11.0745 80.0966 11.0745C79.0759 11.0745 79.1423 11.3756 79.1423 11.7124C79.1423 12.4983 79.9078 12.6412 79.9078 12.6412C79.9078 12.6412 78.3002 13.8508 76.4425 13.8508C74.5848 13.8508 72.9108 13.1975 71.6452 11.8043C70.7725 10.8448 70.109 9.57401 70.109 7.8235C70.109 7.13453 70.109 7.02225 70.109 7.02225C70.109 7.02225 70.5734 6.6599 70.8541 6.517C71.1348 6.3741 71.7625 6.01175 71.7625 5.71064C71.7625 5.40953 71.6452 5.29726 71.6452 4.66442C71.6452 4.37352 71.7166 3.83765 71.982 3.4804C72.2933 3.06191 72.8394 2.82715 73.4263 2.82715" fill="#00AEEF"/>
<path id="Vector_17" d="M76.1873 0.995117C72.4464 0.995117 69.4149 4.02661 69.4149 7.7675C69.4149 11.5084 72.4464 14.545 76.1873 14.545C79.9282 14.545 82.9597 11.5135 82.9597 7.7675C82.9597 4.02151 79.9282 0.995117 76.1873 0.995117ZM81.2449 3.5673C81.597 3.98578 81.7552 4.28179 81.7552 4.28179C81.7552 4.28179 81.5205 4.52166 81.25 4.64924C80.9795 4.77683 80.4692 4.97077 80.4692 4.97077C80.4692 4.97077 80.2854 4.39407 80.1323 4.08786C79.9843 3.78164 79.8261 3.41929 79.8261 3.41929C79.8261 3.41929 79.9741 3.31722 80.1987 3.15901C80.4181 3.00591 80.5661 2.86811 80.5661 2.86811C80.5661 2.86811 80.9438 3.22026 81.2398 3.5673H81.2449ZM79.0095 1.82699C79.0095 1.82699 79.4689 2.02603 79.7751 2.25569C80.0813 2.48535 80.4385 2.76094 80.4385 2.76094C80.4385 2.76094 80.3824 2.85791 80.214 2.98549C80.0405 3.11308 79.7904 3.23046 79.7904 3.23046C79.7904 3.23046 79.5658 2.90894 79.3719 2.66907C79.1831 2.42411 78.8207 2.01072 78.8207 2.01072C78.8207 2.01072 78.9024 1.93417 78.9432 1.88313C78.984 1.8321 79.0095 1.82699 79.0095 1.82699ZM78.1215 3.24067C78.0501 2.92425 77.8766 2.63335 77.8766 2.63335C77.8766 2.63335 78.1573 2.49555 78.341 2.37817C78.5247 2.25569 78.6778 2.1332 78.6778 2.1332C78.6778 2.1332 78.9993 2.45473 79.2341 2.74563C79.4689 3.03653 79.6322 3.31722 79.6322 3.31722C79.6322 3.31722 79.3311 3.44991 78.9891 3.60812C78.6472 3.76633 78.2185 3.82758 78.2185 3.82758C78.2185 3.82758 78.193 3.55199 78.1215 3.23557V3.24067ZM78.2951 5.55257C78.2951 5.55257 78.1368 5.5934 77.6112 5.61891C77.0855 5.63933 76.616 5.60871 76.616 5.60871V4.10827C76.616 4.10827 77.0243 4.13379 77.3254 4.13379C77.6265 4.13379 78.1317 4.04192 78.1317 4.04192C78.1317 4.04192 78.1624 4.27669 78.2236 4.65435C78.29 5.03201 78.2951 5.54746 78.2951 5.54746V5.55257ZM78.4635 1.59223C78.6472 1.64327 78.8666 1.77596 78.8666 1.77596L78.6727 1.92906C78.6727 1.92906 78.5298 1.80147 78.4073 1.67899C78.2695 1.53609 77.9786 1.45443 77.9786 1.45443C77.9786 1.45443 78.2746 1.5463 78.4584 1.59733L78.4635 1.59223ZM77.9276 1.54119C78.2746 1.73003 78.5349 2.03113 78.5349 2.03113C78.5349 2.03113 78.4073 2.11789 78.2287 2.24548C78.0501 2.37307 77.8 2.42921 77.8 2.42921C77.8 2.42921 77.6418 2.05665 77.5295 1.8423C77.4224 1.64327 77.0753 1.27071 77.0753 1.27071C77.0753 1.27071 77.5857 1.35236 77.9276 1.54119ZM76.5854 1.22988C76.5854 1.22988 76.9579 1.13291 77.2948 1.77085C77.4683 2.10258 77.6316 2.48024 77.6316 2.48024C77.6316 2.48024 77.3713 2.5619 77.1059 2.58742C76.8405 2.61294 76.5854 2.57211 76.5854 2.57211V1.22478V1.22988ZM76.5854 2.77114C76.5854 2.77114 76.8405 2.79156 77.1366 2.77114C77.4326 2.75073 77.7133 2.68949 77.7133 2.68949C77.7133 2.68949 77.8153 2.79666 77.9072 3.22026C77.9939 3.60812 78.0399 3.88371 78.0399 3.88371C78.0399 3.88371 77.7286 3.97047 77.2846 3.99599C76.8406 4.02151 76.5854 3.97558 76.5854 3.97558V2.77114ZM76.3863 1.22988L76.4119 2.59763C76.4119 2.59763 76.121 2.62314 75.7994 2.53638C75.4779 2.44962 75.3299 2.35266 75.3299 2.35266C75.3299 2.35266 75.5034 2.01072 75.7229 1.70961C76.2128 1.04105 76.3914 1.22988 76.3914 1.22988H76.3863ZM75.9729 1.19415C75.9729 1.19415 75.6565 1.49016 75.5187 1.76065C75.3809 2.03113 75.187 2.29141 75.187 2.29141C75.187 2.29141 74.942 2.18424 74.7787 2.06686C74.6154 1.94437 74.5235 1.85761 74.5235 1.85761C74.5235 1.85761 74.794 1.5514 75.2738 1.37788C75.7535 1.20436 75.9729 1.19415 75.9729 1.19415ZM74.7022 1.35236C74.9573 1.29112 75.1564 1.27581 75.1564 1.27581C75.1564 1.27581 74.8757 1.41361 74.7226 1.53609C74.5644 1.65858 74.4266 1.74534 74.4266 1.74534C74.4266 1.74534 74.35 1.6943 74.3143 1.63306C74.2786 1.57182 74.2633 1.49526 74.2633 1.49526C74.2633 1.49526 74.4521 1.41871 74.7073 1.35747L74.7022 1.35236ZM76.2026 14.3408C72.8751 14.3408 69.6088 11.687 69.6088 7.78791C69.6088 2.89873 74.054 1.55651 74.054 1.55651L74.3245 1.80658C74.3245 1.80658 74.0897 1.95968 73.8958 2.16383C73.707 2.36286 73.5896 2.53638 73.5896 2.53638L73.7019 2.64356C73.7019 2.64356 73.8397 2.43942 73.9979 2.28631C74.1561 2.1281 74.3806 1.94948 74.3806 1.94948C74.3806 1.94948 74.6103 2.18424 74.7532 2.271C74.9012 2.35776 75.1104 2.45473 75.1104 2.45473C75.1104 2.45473 75.0951 2.567 75.0339 2.7099C74.9727 2.8477 74.9114 3.03142 74.9114 3.03142L75.0492 3.10798C75.0492 3.10798 75.1462 2.83749 75.1972 2.73542C75.2483 2.63335 75.2942 2.52618 75.2942 2.52618C75.2942 2.52618 75.6259 2.66397 75.9117 2.72521C76.1975 2.78646 76.4068 2.77625 76.4068 2.77625V3.93985H75.9781V4.13889H76.417V5.6036H76.0495V5.76692H76.4119V6.30279H76.5905V5.78223C76.5905 5.78223 76.8252 5.79243 77.4326 5.76692C78.045 5.7414 78.4329 5.68016 78.4329 5.68016C78.4329 5.68016 78.4175 5.12387 78.3614 4.71559C78.3104 4.30731 78.2236 3.99089 78.2236 3.99089C78.2236 3.99089 78.5706 3.94496 78.9534 3.79185C79.3362 3.63364 79.6679 3.48564 79.6679 3.48564C79.6679 3.48564 79.872 3.78164 80.0252 4.20013C80.1783 4.61862 80.3263 5.04221 80.3263 5.04221L80.066 5.15449L80.1119 5.28718L80.413 5.19532L80.4998 5.37905L80.6172 5.32801L80.5304 5.14429C80.5304 5.14429 80.8876 5.03711 81.2449 4.84318C81.6021 4.64924 81.8624 4.47062 81.8624 4.47062C81.8624 4.47062 82.7606 5.83326 82.7606 7.7726C82.7606 10.7531 80.459 14.3408 76.1924 14.3408" fill="#00AEEF"/>
<path id="Vector_18" d="M10.8928 16.8876V15.1779L10.8469 15.132C10.015 16.5048 8.9994 17.2244 7.11109 17.2244C5.37589 17.2244 3.28345 16.3926 3.28345 13.5805V5.11377H5.26362V12.9273C5.26362 14.8615 6.2537 15.5148 7.53979 15.5148C10.0405 15.5148 10.7805 13.31 10.7805 11.6004V5.11887H12.7607V16.8927H10.8928" fill="#00AEEF"/>
<path id="Vector_19" d="M25.3205 16.8873H23.3403V9.64025C23.3403 7.59374 22.7534 6.55772 20.8192 6.55772C19.6964 6.55772 17.7111 7.27732 17.7111 10.4721V16.8873H15.731V5.11342H17.5988V6.77717H17.6448C18.0735 6.14433 19.1758 4.77148 21.2019 4.77148C23.0239 4.77148 25.3205 5.5166 25.3205 8.86962V16.8822" fill="#00AEEF"/>
<path id="Vector_20" d="M28.2908 2.97527V0.724609H30.2709V2.97527H28.2908ZM30.2709 16.8875H28.2908V5.11364H30.2709V16.8875Z" fill="#00AEEF"/>
<path id="Vector_21" d="M40.6056 9.07398C40.3555 7.49699 39.4777 6.55284 37.8139 6.55284C35.3591 6.55284 34.5732 8.89536 34.5732 10.9878C34.5732 13.0802 35.0682 15.5095 37.7935 15.5095C39.1255 15.5095 40.2687 14.5194 40.6107 12.7179H42.5245C42.3203 14.5858 41.1721 17.2192 37.7272 17.2192C34.2823 17.2192 32.4603 14.7236 32.4603 11.3195C32.4603 7.67561 34.2159 4.7666 38.1099 4.7666C41.1925 4.7666 42.3663 7.01726 42.5245 9.06888H40.6107" fill="#00AEEF"/>
<path id="Vector_22" d="M54.4922 13.1977C54.4259 13.7591 53.8849 15.4279 52.3998 16.418C51.8588 16.7804 51.0933 17.2295 49.205 17.2295C45.8979 17.2295 43.9381 14.7338 43.9381 11.3298C43.9381 7.68587 45.6937 4.77686 49.5877 4.77686C52.9867 4.77686 54.6555 7.47662 54.6555 11.6411H46.0561C46.0561 14.0959 47.2044 15.5147 49.4754 15.5147C51.3433 15.5147 52.4457 14.0755 52.512 13.1977H54.4922ZM52.6039 10.0692C52.4916 8.24725 51.7261 6.55799 49.3172 6.55799C47.4953 6.55799 46.051 8.24725 46.051 10.0692H52.5988" fill="#00AEEF"/>
<path id="Vector_23" d="M59.4682 6.75693V16.8874H57.4881V6.75693H55.8702V5.11359H57.4881V3.08749C57.4881 1.31146 58.6159 0.5 60.5502 0.5C60.8411 0.5 61.1371 0.520414 61.4535 0.545932V2.32706C61.2034 2.30155 60.887 2.28113 60.642 2.28113C59.7898 2.28113 59.4733 2.70983 59.4733 3.65398V5.11869H61.4535V6.76203H59.4733" fill="#00AEEF"/>
</g>
<g id="Group_3">
<path id="Vector_24" d="M13.3119 27.4315H11.4236V35.3572L10.6632 34.4743V30.9121C10.6224 30.7079 10.4846 30.5038 10.2447 30.3098C10.0048 30.1159 9.78539 30.0138 9.57614 30.0138C9.27504 30.0138 9.00455 30.1874 8.76979 30.5395C7.93281 31.8001 7.39694 32.4482 7.17238 32.489C7.11114 32.4993 7.01928 32.5044 6.89169 32.5044C6.52934 32.5044 6.32009 32.4584 6.26906 32.3666C6.04961 32.3359 5.76891 32.0093 5.41677 31.3918C5.38615 31.3305 5.28408 31.1366 5.10545 30.8202L5.61581 30.3252C5.62601 30.4272 5.68215 30.5854 5.78422 30.7896C5.88629 30.9988 5.97305 31.1366 6.04961 31.2081C6.15168 31.3101 6.25375 31.3612 6.36092 31.3612C6.53444 31.3612 6.78451 31.1468 7.10604 30.713L7.76949 29.8148C7.73887 29.4627 7.69805 29.2126 7.64701 29.0544C7.44287 28.4368 7.01417 28.1153 6.36092 28.0949C5.90671 28.0745 5.61581 28.049 5.49332 28.0184C5.27897 27.9571 5.05952 27.7581 4.84517 27.4315L4.63082 27.3243L3.93164 26.6455H12.5413L13.317 27.4366L13.3119 27.4315ZM10.6632 30.1567V27.4315H7.16217L7.59597 27.7836C7.96853 28.0898 8.15226 28.5338 8.15226 29.1054C8.15226 29.2075 8.14205 29.3044 8.12164 29.3963C8.20329 29.3759 8.37171 29.2738 8.62689 29.085C8.88206 28.9013 9.05558 28.8043 9.16276 28.8043C9.34649 28.8043 9.57104 28.9166 9.82622 29.1462C9.95891 29.2687 10.2396 29.6056 10.6632 30.1516V30.1567Z" fill="#00AEEF"/>
<path id="Vector_25" d="M22.1053 27.4315H17.9561V28.003C17.997 27.9826 18.048 27.9724 18.1092 27.9724C18.7114 27.9724 19.283 28.2378 19.8189 28.7635C20.3293 29.2483 20.6508 29.7995 20.7835 30.4221C20.8345 30.662 20.86 30.8763 20.86 31.0703C20.86 31.4632 20.7529 31.8052 20.5334 32.091C20.2935 32.4125 19.9873 32.5707 19.6046 32.5707C19.3443 32.5707 19.1146 32.4788 18.9054 32.29C18.7012 32.1063 18.5941 31.8817 18.5941 31.6266C18.5941 31.3357 18.737 31.0754 19.0279 30.8355C19.1912 30.7845 19.3443 30.759 19.477 30.759C19.7015 30.759 19.9669 30.8916 20.268 31.1621C20.2782 31.1417 20.2833 31.0958 20.2833 31.0243C20.2833 30.5497 20.0843 30.1108 19.6811 29.7076C19.1861 29.2126 18.6094 28.9931 17.9459 29.0595V35.2347L17.6652 34.9592L17.4356 34.2804C17.3335 33.9844 17.1038 33.6271 16.7568 33.2137C16.4046 32.8004 16.0933 32.5095 15.8126 32.3308C15.2053 31.9583 14.5725 31.7388 13.9243 31.6674L12.8577 30.3558C13.266 30.0138 13.7457 29.6872 14.2867 29.3657C15.2921 28.7686 16.2566 28.3246 17.1906 28.0388V27.4366H12.48L11.6941 26.6455H21.3398L22.1002 27.4366L22.1053 27.4315ZM17.1957 33.127V29.0697C16.4608 29.3504 15.8688 29.6311 15.4146 29.922C15.4044 29.9322 15.0726 30.1669 14.4245 30.6161C15.6748 31.1519 16.5986 31.9889 17.1957 33.1219V33.127Z" fill="#00AEEF"/>
<path id="Vector_26" d="M30.1076 27.4163H28.1887V35.3574L27.3977 34.597V30.31C27.3977 30.0497 27.2803 29.8048 27.0455 29.5853C26.8108 29.3659 26.5658 29.2689 26.3055 29.2995C26.1167 29.3199 25.9789 29.422 25.8819 29.6057C25.79 29.7895 25.7594 29.9732 25.79 30.162L25.8513 30.555L25.5247 30.6826C25.5451 30.6315 25.494 30.5091 25.3716 30.31C25.1674 29.9783 25.0194 29.7844 24.9378 29.7231C24.6571 29.4424 24.2947 29.3046 23.8405 29.3046C23.4679 29.3046 23.1413 29.4373 22.8555 29.6976C22.5697 29.963 22.4319 30.2794 22.4319 30.652C22.4319 31.2695 22.7739 31.6369 23.4526 31.7492C23.2995 31.5553 23.2179 31.3511 23.2179 31.147C23.2179 30.8969 23.3046 30.6979 23.473 30.5448C23.6415 30.3917 23.8507 30.3151 24.1008 30.3151C24.4733 30.3049 24.7438 30.5244 24.9224 30.9786C25.0653 31.3511 25.1062 31.6063 25.0449 31.7543C24.8408 32.2494 24.4529 32.4994 23.8813 32.4994C23.3557 32.4994 22.8963 32.3616 22.5034 32.0809C22.1104 31.8002 21.8654 31.4124 21.7583 30.902C21.7174 30.7081 21.697 30.5039 21.697 30.2998C21.697 29.7639 21.8399 29.2893 22.1308 28.8759C22.4523 28.4115 22.8657 28.1716 23.371 28.1614C23.917 28.1512 24.3968 28.3503 24.8102 28.7636L25.0909 29.1209C25.0909 28.9474 25.2031 28.7483 25.4277 28.5238C25.6522 28.3043 25.8513 28.1972 26.0299 28.2074C26.3259 28.2278 26.5658 28.3196 26.7546 28.4881C26.8363 28.6003 26.923 28.7177 27.0149 28.83C27.1578 28.9729 27.2854 29.2179 27.3977 29.5598V27.4214H21.4061L20.6049 26.6304H29.3064L30.1127 27.4214L30.1076 27.4163Z" fill="#00AEEF"/>
<path id="Vector_27" d="M41.611 25.8085L40.2943 24.8184C39.4981 24.2213 38.5948 23.9202 37.5843 23.9202C37.0178 23.9202 36.5228 24.058 36.0992 24.3386L35.7266 24.5887C35.6348 24.6806 35.5174 24.8184 35.3694 25.0072C34.9764 25.5125 34.8029 25.8391 34.8437 25.982L35.1397 26.6454H36.5789L37.3547 27.4365H35.4051V35.2704L34.6141 34.5151V27.4365H33.476L32.7104 26.6454H34.7059L34.0272 25.9156C33.9557 25.834 33.92 25.7166 33.92 25.5584C33.9302 25.2777 33.9812 25.0634 34.0731 24.9102C34.3334 24.4867 34.5222 24.2162 34.6447 24.0886C34.9356 23.7875 35.3439 23.517 35.8695 23.2669C36.1502 23.1342 36.482 23.0679 36.8749 23.0679C37.865 23.0679 38.9265 23.42 40.0646 24.1192C40.4168 24.3335 40.8761 24.7316 41.4426 25.3134L41.611 25.8085Z" fill="#00AEEF"/>
<path id="Vector_28" d="M45.2345 27.4466H43.4687V35.3417L42.6776 34.5507L42.7236 29.7227C42.7236 29.4982 42.5654 29.146 42.2438 28.6714C41.8713 28.1253 41.5293 27.8651 41.2231 27.8957C41.0496 27.9161 40.871 27.9824 40.6975 28.0998C40.5239 28.2121 40.4321 28.3499 40.4321 28.5081C40.7944 28.7786 41.019 28.9623 41.1109 29.0542C41.4324 29.3757 41.5906 29.7023 41.5906 30.0238C41.5906 30.1157 41.56 30.2994 41.4987 30.5699C41.3762 30.8914 41.0751 31.0548 40.6005 31.0548C40.1259 31.0548 39.7584 30.7741 39.442 30.2178C39.2685 30.6414 38.9419 30.9323 38.4672 31.0854C38.3754 31.116 38.2886 31.1313 38.2018 31.1313C37.7578 31.1313 37.4567 30.8659 37.3036 30.3352C37.273 30.2331 37.2577 30.1259 37.2577 30.0136C37.2577 29.6258 37.4669 29.2328 37.8905 28.8296C37.9416 28.7786 38.0743 28.6714 38.2937 28.5081C38.3958 28.4264 38.4927 28.3805 38.5897 28.3703C38.5285 28.2172 38.3856 28.0028 38.1559 27.7273C37.916 27.5435 37.6915 27.4517 37.4771 27.4517H36.5177L35.7419 26.6606H37.3342C37.6966 26.6606 38.0079 26.7576 38.2784 26.9566L38.651 27.3139C38.8755 27.5282 39.0235 27.7936 39.0848 28.1049C39.2174 27.8038 39.3603 27.569 39.5032 27.4057C39.7941 27.1046 40.1667 26.8801 40.6311 26.7372C40.8046 26.6861 40.922 26.6606 40.9731 26.6606C41.1772 26.6606 41.4885 26.9158 41.9019 27.4261C42.0244 27.5793 42.2285 27.8804 42.5041 28.3295C42.8154 28.8194 42.9839 29.1205 43.0145 29.2328L42.8001 26.727L42.7236 25.2725C42.8665 25.4 43.0298 25.5532 43.2033 25.742C43.2645 25.8134 43.2952 25.9155 43.2952 26.038C43.3054 26.2166 43.3156 26.3085 43.3258 26.3187C43.4074 26.4871 43.5605 26.5994 43.7902 26.6657H44.4537L45.2294 27.4568L45.2345 27.4466Z" fill="#00AEEF"/>
<path id="Vector_29" d="M50.3278 26.0381C50.3992 26.2882 50.5625 26.6709 50.8075 27.2017C50.9402 27.365 51.0627 27.5283 51.1648 27.6814C51.4863 28.156 51.6751 28.4623 51.7363 28.595C51.869 28.8961 51.9201 29.3197 51.8895 29.8657C51.8792 30.1158 51.8129 30.3097 51.6904 30.4526C51.619 30.5445 51.4505 30.6925 51.1954 30.8864C51.3485 31.1008 51.4557 31.4529 51.5067 31.9378C51.6088 32.785 51.129 33.4076 50.0675 33.8108C49.7664 33.923 49.3173 33.9179 48.7202 33.7954C48.4191 33.7342 48.0108 33.5199 47.4953 33.1626C46.8982 32.8207 46.2501 31.999 45.5611 30.6874C45.1171 29.8402 44.8109 28.9012 44.6475 27.8703L44.4791 26.7883L45.0405 27.1813C45.0609 27.2425 45.1018 27.4671 45.163 27.86C45.3876 29.2227 45.9234 30.3199 46.7553 31.1569C47.7658 32.1674 48.6997 32.6727 49.5571 32.6727C49.9093 32.6727 50.2155 32.6165 50.486 32.5043C50.8585 32.3512 51.0423 32.1215 51.0423 31.8255C51.0423 31.754 51.027 31.6775 50.9963 31.5958L50.9657 31.4274C50.7922 31.5703 50.6034 31.6418 50.4094 31.6418C50.0165 31.6418 49.7153 31.4529 49.4959 31.0702C49.4244 30.9477 49.3887 30.815 49.3887 30.667C49.3785 30.4424 49.4602 30.2332 49.6388 30.0393C49.8123 29.8504 50.0165 29.7535 50.241 29.7535C50.5013 29.7535 50.7105 29.8351 50.8739 30.0035C51.0167 29.9423 51.1086 29.8964 51.1443 29.8708C51.1801 29.8453 51.2413 29.7688 51.323 29.6463C51.3638 29.585 51.3842 29.4932 51.3842 29.3656C51.3842 29.0951 51.2872 28.7685 51.0882 28.3755C50.8943 27.9825 50.7258 27.7733 50.5932 27.7427L49.8787 29.0134C49.6184 28.2377 49.2969 27.758 48.9039 27.5742C48.7814 27.4518 48.6844 27.3905 48.6079 27.3905C48.5568 27.3905 48.4548 27.5079 48.2966 27.7478C48.4395 27.7886 48.6283 27.9519 48.8529 28.2428C49.154 28.6256 49.2764 28.9012 49.2254 29.0798L49.0264 29.4523C48.9141 29.585 48.7814 29.631 48.6385 29.5901C48.5568 29.6412 48.465 29.6667 48.3578 29.6667C48.1639 29.6667 47.9955 29.5748 47.8628 29.386C47.7811 29.2737 47.7301 29.2176 47.7097 29.2176L47.48 29.4983C47.2554 29.779 47.0156 29.8964 46.7655 29.8555C46.2603 29.7841 46.0051 29.5544 46.0051 29.1768C45.9949 28.6307 46.347 28.1254 47.0564 27.661L46.6839 27.2578C46.4236 27.166 46.2041 27.12 46.0204 27.12H45.8367L45.4029 27.0588L45.0609 26.4668C45.1834 26.426 45.3416 26.4055 45.5254 26.4055C46.1327 26.4055 46.5205 26.4821 46.689 26.6352C46.8727 26.6556 47.0921 26.8087 47.3371 27.0996C47.48 27.2629 47.5719 27.416 47.6025 27.5487C47.6127 27.4365 47.7403 27.2068 47.9904 26.87C48.1435 26.6658 48.3272 26.5791 48.5313 26.6199C48.8324 26.7118 49.057 26.8342 49.2101 26.9924C49.3122 27.0945 49.4653 27.3242 49.6592 27.6712L50.3227 26.0636L50.3278 26.0381Z" fill="#00AEEF"/>
<path id="Vector_30" d="M59.6163 27.4315H57.8045V35.2654L57.5085 34.9898L56.8094 33.7088C56.4878 33.1321 56.0183 32.6575 55.3906 32.2798C54.7679 31.9021 54.1147 31.6929 53.4308 31.6521L52.4254 30.2792C53.9667 29.1871 55.4978 28.4113 57.0084 27.9469V27.4366H52.2825L51.4966 26.6455H58.8201L59.6112 27.4366L59.6163 27.4315ZM54.8649 34.6325C54.6812 34.6325 54.5077 34.5662 54.3444 34.4386C54.1861 34.311 54.0841 34.1528 54.0432 33.964C53.9922 33.7394 54.0432 33.5251 54.1912 33.3311C54.3393 33.1372 54.5332 33.0351 54.7731 33.0351C54.9568 33.0351 55.1303 33.0964 55.2834 33.2189C55.4365 33.3413 55.5386 33.4944 55.5794 33.668C55.6304 33.8976 55.5845 34.112 55.4416 34.3161C55.2987 34.5254 55.1048 34.6274 54.87 34.6274L54.8649 34.6325ZM57.0186 33.3618V29.0748C56.4113 29.2789 55.8448 29.5239 55.3089 29.8046C55.0435 29.9475 54.6148 30.2333 54.0279 30.6569C55.4365 31.2438 56.4317 32.1471 57.0135 33.3669L57.0186 33.3618Z" fill="#00AEEF"/>
<path id="Vector_31" d="M73.0233 27.4316H68.2106C68.0984 27.4725 67.9351 27.5592 67.7309 27.6919C67.6493 27.7634 67.6084 27.8399 67.6084 27.9216C67.6084 28.1563 67.8687 28.3554 68.3842 28.5187C68.818 28.6514 69.1701 28.7075 69.4355 28.6871C69.6856 28.6667 70.15 28.5442 70.8288 28.3145C71.1605 28.6463 71.5483 29.0443 71.9924 29.5088C71.778 29.718 71.5432 30.0395 71.2932 30.4835C70.9614 31.0704 70.793 31.5961 70.7828 32.0605C70.7318 32.4025 70.7063 32.7087 70.7063 32.9894C70.7063 33.5763 70.9002 34.3163 71.2932 35.2043C71.283 35.2145 71.2677 35.2196 71.2472 35.2196C71.186 35.2196 71.0533 35.189 70.8441 35.1328C70.6399 35.0767 70.5276 35.0308 70.5174 35.0002C70.497 34.8879 70.3847 34.4081 70.1755 33.561C70.002 32.8363 69.9101 32.2749 69.9101 31.8717C69.9101 31.1929 70.0683 30.4325 70.3898 29.5955C69.905 29.5955 69.3794 29.5241 68.8129 29.3812C68.1188 29.2077 67.6646 28.9729 67.4349 28.682C67.4043 28.631 67.2563 28.4319 66.9858 28.0951C66.9654 28.0849 66.945 28.0798 66.9246 28.0798C66.7102 28.0798 66.4499 28.3196 66.1488 28.7943C65.8477 29.2689 65.6997 29.6312 65.6997 29.8762C65.6997 30.2284 65.8885 30.4019 66.2713 30.4019C66.4652 30.4019 66.899 30.2335 67.5727 29.8915C67.7768 29.7895 67.9044 29.7333 67.9453 29.7231C67.9861 29.7231 68.0218 29.7384 68.0524 29.769C68.1137 29.7486 68.2668 29.8915 68.5169 30.2028C68.8588 30.6264 69.068 31.0347 69.1497 31.4277C69.2211 31.7594 69.2109 32.0809 69.1191 32.4025C68.9353 33.0404 68.5577 33.4997 67.9912 33.7804C67.7105 33.9131 67.4145 33.9795 67.093 33.9795C66.205 33.9795 65.4241 33.5508 64.7556 32.6883C64.4647 32.3208 64.1993 31.7747 63.9492 31.0551C63.7553 30.4886 63.6532 29.4986 63.6532 28.0849C63.9033 28.2074 64.0462 28.289 64.087 28.3298C64.036 29.2128 64.1942 30.0753 64.5667 30.9122C64.8474 31.5502 65.3271 32.0707 66.0059 32.479C66.2866 32.6423 66.5826 32.7138 66.9041 32.6934C67.3175 32.6627 67.685 32.576 68.0014 32.428C68.4352 32.234 68.6495 31.9636 68.6495 31.6216C68.6495 31.4889 68.6138 31.3613 68.5424 31.2491C68.4913 31.0755 68.3893 30.9837 68.2311 30.9837C68.18 30.9837 68.1188 30.999 68.0473 31.0296C67.5523 31.244 67.144 31.3562 66.8225 31.3562C66.552 31.3562 66.2968 31.295 66.0467 31.1725C65.5211 30.8255 65.1996 30.3764 65.0873 29.8303C65.0056 29.4373 65.026 29.0801 65.1485 28.7483C65.2302 28.534 65.4241 28.238 65.7201 27.8705C65.812 27.7787 65.9498 27.6307 66.1386 27.4214H63.0714L62.2957 26.6304H72.2526L73.0131 27.4214L73.0233 27.4316Z" fill="#00AEEF"/>
<path id="Vector_32" d="M80.0967 27.4312H78.1319V35.4948L77.8359 35.1069C77.8869 34.7752 77.8103 34.224 77.6062 33.4482C77.2541 32.1264 76.7692 31.1925 76.1517 30.6464C75.7077 30.2534 75.2688 30.0697 74.835 30.0901C74.7533 30.0901 74.7125 30.1054 74.7125 30.1361L74.9575 30.4933C75.0595 30.6464 75.131 30.8148 75.1718 30.9883C75.2535 31.3711 75.2024 31.6773 75.0085 31.9121C74.8197 32.1417 74.5288 32.2591 74.1511 32.2591C73.3141 32.2591 72.8344 31.8866 72.7119 31.1466C72.6915 31.0241 72.6813 30.9016 72.6813 30.7893C72.6813 30.2841 72.865 29.8656 73.2274 29.5338C73.5948 29.2021 74.0337 29.0388 74.5441 29.0388C75.4678 29.0388 76.2742 29.6308 76.9529 30.8199C77.2081 31.2741 77.3408 31.5191 77.3408 31.5497V27.4312H72.074L71.3033 26.6401H79.2904L80.0967 27.4312Z" fill="#00AEEF"/>
<path id="Vector_33" d="M81.2909 28.4213C81.1991 28.9265 81.2501 29.7074 81.444 30.7689C81.6584 31.9631 81.7707 32.698 81.7707 32.9787C81.7707 33.8361 81.3318 34.5353 80.454 35.0814C80.0202 35.3468 79.7037 35.4794 79.5098 35.4692C79.3261 35.459 79.1985 35.3672 79.1373 35.1885C79.0964 35.0763 79.173 34.9946 79.372 34.9436C79.6629 34.8721 79.8313 34.816 79.8824 34.7752C80.2243 34.5098 80.4233 34.3261 80.4846 34.2342C80.6275 34.0198 80.7193 33.6728 80.7653 33.1982C80.7857 32.9328 80.6989 32.4275 80.4999 31.6824C80.2958 30.9016 80.1886 30.3504 80.1886 30.0289C80.1988 29.4828 80.3366 28.952 80.6071 28.4366C80.8571 28.1048 81.097 27.7731 81.3369 27.4312H79.1679L78.3768 26.6401H82.9904L83.7662 27.3699H82.6842C82.3423 27.3699 82.0412 27.4618 81.7809 27.6506C81.5155 27.8344 81.3573 28.0946 81.2909 28.4213Z" fill="#00AEEF"/>
</g>
<path id="Vector_34" d="M0.650024 20.3477H87.0477" stroke="#00AEEF" stroke-miterlimit="10"/>
</g>
<defs>
<clipPath id="clip0_1327_43797">
<rect width="86.3976" height="35" fill="white" transform="translate(0.650024 0.5)"/>
</clipPath>
</defs>
</svg>
