<svg width="14" height="14" viewBox="0 0 14 14" fill="none" xmlns="http://www.w3.org/2000/svg">
<g id="ico">
<g id="user-add">
<path id="Vector" d="M7.00004 6.99984C8.61087 6.99984 9.91671 5.694 9.91671 4.08317C9.91671 2.47234 8.61087 1.1665 7.00004 1.1665C5.38921 1.1665 4.08337 2.47234 4.08337 4.08317C4.08337 5.694 5.38921 6.99984 7.00004 6.99984Z" stroke="#555555" stroke-linecap="round" stroke-linejoin="round"/>
<path id="Vector_2" d="M1.98914 12.8333C1.98914 10.5758 4.23497 8.75 6.99997 8.75C7.55997 8.75 8.10247 8.82583 8.60997 8.96583" stroke="#555555" stroke-linecap="round" stroke-linejoin="round"/>
<path id="Vector_3" d="M12.8333 10.4998C12.8333 10.6865 12.81 10.8673 12.7633 11.0423C12.7108 11.2757 12.6175 11.5032 12.495 11.7015C12.0925 12.3782 11.3516 12.8332 10.5 12.8332C9.89913 12.8332 9.35662 12.6057 8.94829 12.2323C8.77329 12.0807 8.62162 11.8998 8.50495 11.7015C8.28912 11.3515 8.16663 10.9373 8.16663 10.4998C8.16663 9.86984 8.41746 9.29235 8.8258 8.87235C9.25163 8.43485 9.84663 8.1665 10.5 8.1665C11.1883 8.1665 11.8125 8.46401 12.2325 8.94235C12.6058 9.35651 12.8333 9.90484 12.8333 10.4998Z" stroke="#555555" stroke-miterlimit="10" stroke-linecap="round" stroke-linejoin="round"/>
<g id="Group">
<path id="Vector_4" d="M11.3692 10.4883H9.63086" stroke="#555555" stroke-miterlimit="10" stroke-linecap="round" stroke-linejoin="round"/>
<path id="Vector_5" d="M10.5 9.63672V11.3809" stroke="#555555" stroke-miterlimit="10" stroke-linecap="round" stroke-linejoin="round"/>
</g>
</g>
</g>
</svg>
