<svg width="17" height="16" viewBox="0 0 17 16" fill="none" xmlns="http://www.w3.org/2000/svg">
<g id="eye">
<path id="Vector" d="M11.0534 8.00001C11.0534 9.32001 9.9867 10.3867 8.6667 10.3867C7.3467 10.3867 6.28003 9.32001 6.28003 8.00001C6.28003 6.68001 7.3467 5.61334 8.6667 5.61334C9.9867 5.61334 11.0534 6.68001 11.0534 8.00001Z" stroke="#222222" stroke-width="1.5" stroke-linecap="round" stroke-linejoin="round"/>
<path id="Vector_2" d="M8.66664 13.5133C11.02 13.5133 13.2133 12.1266 14.74 9.72665C15.34 8.78665 15.34 7.20665 14.74 6.26665C13.2133 3.86665 11.02 2.47998 8.66664 2.47998C6.31331 2.47998 4.11998 3.86665 2.59331 6.26665C1.99331 7.20665 1.99331 8.78665 2.59331 9.72665C4.11998 12.1266 6.31331 13.5133 8.66664 13.5133Z" stroke="#195153" stroke-width="1.5" stroke-linecap="round" stroke-linejoin="round"/>
</g>
</svg>
