<svg width="17" height="16" viewBox="0 0 17 16" fill="none" xmlns="http://www.w3.org/2000/svg">
<g id="ico/linear/message">
<g id="message">
<path id="Vector" d="M5.83333 12.6666H5.5C2.83333 12.6666 1.5 12 1.5 8.66665V5.33331C1.5 2.66665 2.83333 1.33331 5.5 1.33331H10.8333C13.5 1.33331 14.8333 2.66665 14.8333 5.33331V8.66665C14.8333 11.3333 13.5 12.6666 10.8333 12.6666H10.5C10.2933 12.6666 10.0933 12.7666 9.96667 12.9333L8.96667 14.2666C8.52667 14.8533 7.80667 14.8533 7.36667 14.2666L6.36667 12.9333C6.26 12.7866 6.01333 12.6666 5.83333 12.6666Z" stroke="#00A1A1" stroke-width="1.5" stroke-miterlimit="10" stroke-linecap="round" stroke-linejoin="round"/>
<path id="Vector_2" d="M10.8311 7.33333H10.8371" stroke="#00A1A1" stroke-width="2" stroke-linecap="round" stroke-linejoin="round"/>
<path id="Vector_3" d="M8.16366 7.33333H8.16964" stroke="#00A1A1" stroke-width="2" stroke-linecap="round" stroke-linejoin="round"/>
<path id="Vector_4" d="M5.49642 7.33333H5.50241" stroke="#00A1A1" stroke-width="2" stroke-linecap="round" stroke-linejoin="round"/>
</g>
</g>
</svg>
